<?xml version="1.0" encoding="utf-8"?>
<!-- Generator: Adobe Illustrator 16.0.0, SVG Export Plug-In . SVG Version: 6.00 Build 0)  -->
<!DOCTYPE svg PUBLIC "-//W3C//DTD SVG 1.1//EN" "http://www.w3.org/Graphics/SVG/1.1/DTD/svg11.dtd">
<svg version="1.1" id="Layer_1" xmlns="http://www.w3.org/2000/svg" xmlns:xlink="http://www.w3.org/1999/xlink" x="0px" y="0px"
	 width="61.268px" height="19.12px" viewBox="0 0 61.268 19.12" enable-background="new 0 0 61.268 19.12" xml:space="preserve">
<g>
	<path fill="#00B6ED" d="M4.133,5.394L3.628,4.198H1.132L0.634,5.394H0L2.344,0.04h0.12l2.328,5.354H4.133z M2.368,1.3L1.333,3.724
		h2.103L2.4,1.3H2.368z"/>
	<path fill="#00B6ED" d="M8.327,0.626H6.641v4.768h-0.65V0.626H4.29V0.08h4.037V0.626z"/>
	<path fill="#00B6ED" d="M11.621,4.246h-0.128L9.566,1.677L9.55,1.693v3.7H8.932V0.048h0.136l2.497,3.371l2.48-3.371h0.136v5.345
		h-0.618V3.516c0.008-0.827,0.008-1.453,0.008-1.886l-0.024-0.016L11.621,4.246z"/>
	<path fill="#00B6ED" d="M15.831,4.703c-0.49-0.514-0.738-1.164-0.738-1.958c0-0.763,0.265-1.413,0.803-1.942
		C16.433,0.265,17.091,0,17.854,0c0.787,0,1.437,0.265,1.958,0.794c0.521,0.522,0.778,1.172,0.778,1.951
		c0,0.778-0.257,1.429-0.778,1.95c-0.514,0.521-1.164,0.778-1.958,0.778C17.003,5.474,16.329,5.217,15.831,4.703z M16.329,4.31
		c0.377,0.409,0.891,0.61,1.525,0.61c0.618,0,1.124-0.208,1.509-0.626c0.394-0.425,0.586-0.939,0.586-1.549
		c0-0.618-0.2-1.132-0.594-1.549c-0.393-0.425-0.891-0.634-1.501-0.634c-0.61,0-1.116,0.208-1.509,0.626s-0.586,0.939-0.586,1.557
		C15.759,3.379,15.952,3.901,16.329,4.31z"/>
	<path fill="#00B6ED" d="M21.133,4.415c0.49,0.345,1.003,0.521,1.549,0.521c0.739,0,1.252-0.297,1.252-0.899
		c0-0.521-0.417-0.891-0.955-1.116c-0.755-0.329-1.758-0.666-1.742-1.557c0-0.433,0.16-0.771,0.473-1.003
		C22.032,0.121,22.409,0,22.843,0c0.53,0,0.995,0.112,1.405,0.329v0.618c-0.401-0.273-0.835-0.41-1.309-0.41
		c-0.586,0-1.043,0.257-1.043,0.803c0,0.385,0.426,0.666,0.947,0.883c0.754,0.297,1.742,0.73,1.734,1.75
		c0,0.971-0.714,1.5-1.806,1.5c-0.65,0-1.196-0.145-1.637-0.425V4.415z"/>
	<path fill="#00B6ED" d="M28.04,5.394h-0.61l2.159-4.824h-2.601V0.096h3.363v0.121L28.04,5.394z"/>
	<path fill="#FFFFFF" d="M4.936,12.185H3.74V7.811H1.621v4.374H0.425V6.887h4.511V12.185z"/>
	<path fill="#FFFFFF" d="M5.863,12.185V6.896h2.031c0.642,0,1.14,0.176,1.485,0.521C9.724,7.762,9.9,8.18,9.9,8.669
		c0,0.522-0.185,0.947-0.546,1.292s-0.827,0.514-1.404,0.514H7.067v1.709H5.863z M7.059,7.786v1.798h0.626
		c0.73,0,1.02-0.409,1.02-0.891c0-0.506-0.345-0.907-1.011-0.907H7.059z"/>
	<path fill="#FFFFFF" d="M11.036,11.502c-0.514-0.522-0.771-1.172-0.771-1.966c0-0.771,0.273-1.421,0.811-1.951
		c0.546-0.53,1.228-0.794,2.047-0.794c0.827,0,1.509,0.265,2.039,0.794c0.53,0.522,0.794,1.172,0.794,1.951
		c0,0.778-0.265,1.437-0.802,1.958c-0.53,0.521-1.212,0.778-2.039,0.778C12.248,12.272,11.558,12.016,11.036,11.502z M11.935,8.284
		c-0.313,0.337-0.465,0.754-0.465,1.252c0,0.514,0.152,0.939,0.449,1.276c0.305,0.337,0.707,0.506,1.212,0.506
		c0.49,0,0.891-0.168,1.188-0.514c0.305-0.345,0.458-0.763,0.458-1.268c0-0.498-0.152-0.915-0.458-1.252
		c-0.297-0.337-0.698-0.505-1.188-0.505C12.641,7.778,12.248,7.947,11.935,8.284z"/>
	<path fill="#FFFFFF" d="M19.894,7.754h-1.316l-0.249,2.625c-0.072,0.602-0.233,1.067-0.474,1.388
		c-0.233,0.313-0.642,0.514-1.22,0.594l-0.449-0.811c0.377-0.088,0.634-0.216,0.771-0.385c0.136-0.176,0.217-0.465,0.257-0.875
		l0.305-3.395h3.58v5.289h-1.196c0-0.49,0-1.22-0.008-2.207V7.754z"/>
	<path fill="#FFFFFF" d="M22.619,11.502c-0.514-0.522-0.771-1.172-0.771-1.966c0-0.771,0.273-1.421,0.811-1.951
		c0.546-0.53,1.228-0.794,2.047-0.794c0.827,0,1.509,0.265,2.039,0.794c0.53,0.522,0.794,1.172,0.794,1.951
		c0,0.778-0.265,1.437-0.802,1.958c-0.53,0.521-1.212,0.778-2.039,0.778C23.831,12.272,23.141,12.016,22.619,11.502z M23.518,8.284
		c-0.313,0.337-0.465,0.754-0.465,1.252c0,0.514,0.152,0.939,0.449,1.276c0.305,0.337,0.707,0.506,1.212,0.506
		c0.49,0,0.891-0.168,1.188-0.514c0.305-0.345,0.458-0.763,0.458-1.268c0-0.498-0.152-0.915-0.458-1.252
		c-0.297-0.337-0.698-0.505-1.188-0.505C24.224,7.778,23.831,7.947,23.518,8.284z"/>
	<path fill="#FFFFFF" d="M31.107,9.327v-2.44h1.196v2.44l1.87-2.44h1.3l-1.999,2.552l2.143,2.745h-1.356l-1.958-2.617v2.617h-1.196
		V9.568l-1.958,2.617h-1.348l2.135-2.745l-1.99-2.552h1.3L31.107,9.327z"/>
	<path fill="#FFFFFF" d="M40.809,12.185h-1.188V9.022h-0.024l-3.371,3.25h-0.169V6.887h1.188v3.17h0.032l3.355-3.274h0.176V12.185z"
		/>
	<path fill="#FFFFFF" d="M4.623,18.759c-0.425,0.209-0.939,0.313-1.541,0.313c-0.891,0-1.581-0.257-2.087-0.763
		c-0.498-0.506-0.746-1.164-0.746-1.959c0-0.778,0.265-1.437,0.787-1.974c0.529-0.538,1.22-0.803,2.079-0.803
		c0.546,0,0.995,0.072,1.34,0.217v1.003c-0.369-0.169-0.763-0.249-1.172-0.249c-0.514,0-0.947,0.161-1.3,0.481
		c-0.345,0.313-0.521,0.755-0.521,1.324c0,1.092,0.674,1.75,1.758,1.75c0.473,0,0.939-0.12,1.396-0.353L4.623,18.759z"/>
	<path fill="#FFFFFF" d="M8.568,16.118c0.618,0.225,0.923,0.746,0.923,1.301c0,0.441-0.161,0.811-0.474,1.107
		s-0.714,0.449-1.204,0.449H5.269V13.67h2.359c0.458,0,0.835,0.121,1.116,0.369c0.289,0.241,0.434,0.562,0.434,0.956
		c0,0.417-0.217,0.842-0.61,1.091V16.118z M6.433,14.569v1.195h0.891c0.377,0,0.73-0.144,0.73-0.585c0-0.361-0.249-0.61-0.69-0.61
		H6.433z M7.46,16.616H6.433v1.437h1.083c0.61,0,0.827-0.346,0.827-0.73C8.343,16.881,8.006,16.616,7.46,16.616z"/>
	<path fill="#FFFFFF" d="M10.819,18.293c-0.514-0.521-0.771-1.172-0.771-1.966c0-0.771,0.273-1.421,0.811-1.95
		c0.546-0.53,1.228-0.795,2.047-0.795c0.827,0,1.509,0.265,2.039,0.795c0.53,0.521,0.794,1.172,0.794,1.95s-0.265,1.437-0.802,1.958
		c-0.53,0.521-1.212,0.778-2.039,0.778C12.031,19.063,11.341,18.807,10.819,18.293z M11.718,15.075
		c-0.313,0.337-0.465,0.754-0.465,1.252c0,0.514,0.152,0.938,0.449,1.276c0.305,0.337,0.707,0.505,1.212,0.505
		c0.49,0,0.891-0.168,1.188-0.514c0.305-0.345,0.458-0.762,0.458-1.268c0-0.498-0.152-0.915-0.458-1.252
		c-0.297-0.338-0.698-0.506-1.188-0.506C12.424,14.569,12.031,14.737,11.718,15.075z"/>
	<path fill="#FFFFFF" d="M21.242,18.976h-1.188v-3.162H20.03l-3.371,3.25H16.49v-5.385h1.188v3.17h0.032l3.355-3.274h0.176V18.976z"
		/>
	<path fill="#FFFFFF" d="M26.77,17.996h-0.176l-1.477-1.613c-0.008,0.009-0.016,0.009-0.024,0.009v2.584h-1.148V13.59h0.177
		l2.561,2.962l2.552-2.962h0.168v5.386h-1.156v-2.584c-0.008-0.009-0.016-0.009-0.032-0.009L26.77,17.996z"/>
	<path fill="#FFFFFF" d="M33.822,18.976l-0.361-0.835H31.43l-0.369,0.835h-1.188l2.512-5.394h0.177l2.472,5.394H33.822z
		 M32.441,15.854l-0.65,1.469h1.316l-0.634-1.469H32.441z"/>
	<path fill="#FFFFFF" d="M35.479,18.976v-5.289h2.031c0.642,0,1.14,0.177,1.484,0.521c0.345,0.345,0.522,0.763,0.522,1.252
		c0,0.521-0.185,0.947-0.546,1.292c-0.361,0.346-0.827,0.514-1.404,0.514h-0.883v1.71H35.479z M36.675,14.577v1.798h0.626
		c0.73,0,1.02-0.409,1.02-0.891c0-0.506-0.345-0.907-1.011-0.907H36.675z"/>
	<path fill="#FFFFFF" d="M47.097,13.67v5.306h-7.023V13.67h1.196v4.391h1.709V13.67h1.204v4.391H45.9V13.67H47.097z"/>
	<path fill="#FFFFFF" d="M48.018,18.976v-5.289h2.031c0.642,0,1.14,0.177,1.485,0.521c0.345,0.345,0.521,0.763,0.521,1.252
		c0,0.521-0.185,0.947-0.546,1.292c-0.361,0.346-0.827,0.514-1.404,0.514h-0.883v1.71H48.018z M49.213,14.577v1.798h0.626
		c0.73,0,1.02-0.409,1.02-0.891c0-0.506-0.345-0.907-1.011-0.907H49.213z"/>
	<path fill="#FFFFFF" d="M54.041,17.684l-1.935-4.005h1.284l1.14,2.833h0.032l1.212-2.833h1.228l-2.031,4.446
		c-0.345,0.738-0.811,0.995-1.429,0.995c-0.321,0-0.642-0.072-0.963-0.217v-0.971c0.353,0.185,0.634,0.272,0.835,0.272
		c0.265,0,0.449-0.128,0.57-0.394L54.041,17.684z"/>
	<path fill="#FFFFFF" d="M61.268,14.594h-1.541v4.382h-1.196v-4.382h-1.549V13.67h4.286V14.594z"/>
</g>
</svg>
