<?xml version="1.0" encoding="utf-8"?>
<!-- Generator: Adobe Illustrator 16.0.0, SVG Export Plug-In . SVG Version: 6.00 Build 0)  -->
<!DOCTYPE svg PUBLIC "-//W3C//DTD SVG 1.1//EN" "http://www.w3.org/Graphics/SVG/1.1/DTD/svg11.dtd">
<svg version="1.1" id="Layer_1" xmlns="http://www.w3.org/2000/svg" xmlns:xlink="http://www.w3.org/1999/xlink" x="0px" y="0px"
	 width="152px" height="90.786px" viewBox="0 0 152 90.786" enable-background="new 0 0 152 90.786" xml:space="preserve">
<g>
	<g>
		<g>
			<polygon fill="#7C8792" points="113.722,68.994 113.394,68.801 114.097,67.608 116.476,67.608 117.041,68.816 116.695,68.978 
				116.233,67.989 114.314,67.989 			"/>
			<polygon fill="#7C8792" points="130.368,68.994 130.04,68.801 130.744,67.608 133.122,67.608 133.687,68.816 133.342,68.978 
				132.88,67.989 130.961,67.989 			"/>
			<path fill="#7C8792" d="M128.951,61.826h-3.871l1.194-1.349h1.438L128.951,61.826z M125.927,61.445h2.158l-0.539-0.587h-1.1
				L125.927,61.445z"/>
			
				<rect x="120.506" y="58.554" transform="matrix(0.4988 0.8667 -0.8667 0.4988 116.5953 -72.1714)" fill="#7C8792" width="0.381" height="12.337"/>
			
				<rect x="126.257" y="64.532" transform="matrix(0.5365 0.8439 -0.8439 0.5365 114.826 -79.6257)" fill="#7C8792" width="7.292" height="0.381"/>
		</g>
		<g>
			<polygon fill="#7C8792" points="116.476,22.655 114.097,22.655 113.394,21.464 113.722,21.271 114.314,22.275 116.233,22.275 
				116.695,21.286 117.041,21.447 			"/>
			<polygon fill="#7C8792" points="133.122,22.655 130.744,22.655 130.04,21.464 130.368,21.271 130.961,22.275 132.88,22.275 
				133.342,21.286 133.687,21.447 			"/>
			<path fill="#7C8792" d="M127.713,29.786h-1.438l-1.194-1.348h3.871L127.713,29.786z M126.446,29.405h1.1l0.539-0.586h-2.158
				L126.446,29.405z"/>
			
				<rect x="114.528" y="25.352" transform="matrix(0.8667 0.4988 -0.4988 0.8667 28.8244 -56.7961)" fill="#7C8792" width="12.337" height="0.38"/>
			
				<rect x="129.713" y="21.896" transform="matrix(0.8441 0.5362 -0.5362 0.8441 33.9499 -65.6729)" fill="#7C8792" width="0.381" height="7.292"/>
		</g>
		<rect x="133.573" y="31.946" fill="#7C8792" width="7.869" height="0.762"/>
		<rect x="133.573" y="57.697" fill="#7C8792" width="7.869" height="0.762"/>
		<rect x="133.573" y="44.822" fill="#7C8792" width="7.869" height="0.761"/>
		<path fill="#7C8792" d="M123.698,62.587c-0.914,0-1.213-0.775-1.243-1.186l-0.001-0.028l0.001-32.161
			c0.03-0.41,0.329-1.186,1.243-1.186c0.804,0,4.759,0.237,4.927,0.248l6.691,0.589c0.407,0.057,0.883,0.29,0.883,0.763
			l-0.001,0.404c-0.015,0.167-0.135,0.452-0.75,0.564h0.009l0.039,0.008c0.339,0.073,0.704,0.355,0.704,0.804l0,0.676
			c-0.013,0.223-0.202,0.518-0.692,0.618l-0.038,0.008h-1.515v6.023h1.499l0.036,0.007c0.342,0.067,0.71,0.335,0.71,0.767l0,0.62
			c-0.005,0.078-0.063,0.474-0.699,0.593l-0.035,0.007h-1.512v9.342h1.499l0.036,0.007c0.342,0.066,0.71,0.335,0.71,0.767l0,0.619
			c-0.005,0.078-0.063,0.475-0.699,0.593l-0.035,0.007h-1.512v5.798h1.503l0.039,0.009c0.339,0.072,0.704,0.354,0.704,0.804l0,0.675
			c-0.013,0.223-0.202,0.518-0.692,0.618l-0.038,0.008h-0.373c0.088,0.012,0.169,0.022,0.238,0.031
			c0.715,0.096,0.849,0.405,0.865,0.582l0.001,0.034v0.37c0,0.473-0.476,0.706-0.883,0.763l-0.02,0.002l-6.662,0.586
			C128.457,62.35,124.502,62.587,123.698,62.587z M123.215,61.354c0.013,0.121,0.087,0.471,0.483,0.471
			c0.781,0,4.84-0.244,4.881-0.246l6.64-0.584c0.076-0.013,0.169-0.043,0.22-0.07v-0.128c-0.045-0.013-0.111-0.028-0.206-0.041
			c-0.52-0.069-1.708-0.22-1.708-0.22l-0.333-0.042v-1.286h2.195c0.021-0.005,0.037-0.011,0.051-0.016v-0.523
			c-0.01-0.019-0.049-0.039-0.077-0.051h-2.169v-7.321h2.199c0.019-0.004,0.034-0.008,0.047-0.012v-0.423
			c-0.017-0.012-0.045-0.025-0.072-0.034h-2.174V39.963h2.199c0.019-0.004,0.034-0.009,0.047-0.013v-0.423
			c-0.017-0.012-0.045-0.025-0.072-0.034h-2.174v-7.547h2.195c0.021-0.005,0.037-0.011,0.051-0.016v-0.524
			c-0.008-0.016-0.043-0.037-0.078-0.051h-2.168v-1.236l0.333-0.042c0,0,1.188-0.15,1.708-0.22c0.094-0.013,0.161-0.028,0.206-0.041
			v-0.128c-0.053-0.028-0.151-0.06-0.219-0.07l-6.651-0.585c-0.03-0.001-4.089-0.245-4.87-0.245c-0.393,0-0.469,0.346-0.483,0.472
			V61.354z"/>
		<path fill="#7C8792" d="M133.299,30.719c-0.004-0.004-0.516-0.52-1.468-0.84c-1.027-0.347-3.485-0.858-4.689-0.928l0.044-0.761
			c1.257,0.073,3.819,0.606,4.888,0.967c1.139,0.384,1.749,1.007,1.774,1.033L133.299,30.719z"/>
		<polygon fill="#7C8792" points="133.517,32.509 128.013,30.785 133.768,30.785 133.768,31.165 130.502,31.165 133.63,32.146 		"/>
		<polygon fill="#7C8792" points="133.768,59.62 128.013,59.62 133.517,57.896 133.63,58.26 130.502,59.239 133.768,59.239 		"/>
		<path fill="#7C8792" d="M133.573,40.534c-0.376,0-1.433-0.118-2.354-0.262c-1.959-0.307-1.959-0.487-1.959-0.661
			c0-0.197,0-0.467,4.304-0.689l0.02,0.381c-1.413,0.073-2.95,0.203-3.642,0.326c0.792,0.203,2.726,0.524,3.632,0.524V40.534z"/>
		<path fill="#7C8792" d="M133.573,51.849c-0.376,0-1.433-0.117-2.354-0.262c-1.959-0.306-1.959-0.486-1.959-0.661
			c0-0.196,0-0.466,4.304-0.688l0.02,0.38c-1.413,0.073-2.95,0.203-3.642,0.327c0.792,0.203,2.726,0.523,3.632,0.523V51.849z"/>
		<path fill="#7C8792" d="M126.76,62.256l-0.028-0.38c4.138-0.311,6.651-0.603,6.651-2.042h0.381
			C133.764,61.639,131.103,61.93,126.76,62.256z"/>
		<path fill="#7C8792" d="M16.578,63.362l-0.051-0.377l22.003-2.981h20.95c15.74,0,27.979-3.397,38.777-6.396
			c8.854-2.458,16.5-4.581,24.578-4.581v0.38c-8.025,0-15.649,2.117-24.476,4.567c-10.821,3.005-23.087,6.41-38.878,6.41H38.556
			L16.578,63.362z"/>
		<path fill="#7C8792" d="M60.67,68.703l-0.062-0.759c0.049-0.004,4.927-0.402,10.886-1.249c7.871-1.118,14.046-2.509,17.859-4.021
			c6.151-2.438,12.785-6.094,17.175-8.513c2.327-1.282,4.009-2.209,4.726-2.463c1.985-0.702,2.986-1.043,2.996-1.047
			c0.224-0.073,5.43-1.769,8.609-1.56l-0.05,0.76c-3.031-0.197-8.265,1.505-8.317,1.522c-0.006,0.002-1.003,0.342-2.983,1.042
			c-0.659,0.233-2.404,1.195-4.613,2.412c-4.407,2.429-11.066,6.099-17.261,8.554c-4.888,1.938-12.507,3.281-18.037,4.067
			C65.615,68.3,60.718,68.699,60.67,68.703z"/>
		<rect x="9.417" y="68.93" fill="#7C8792" width="0.761" height="4.907"/>
		<path fill="#7C8792" d="M45.229,68.672l-0.364-0.11c0.009-0.029,0.89-2.927,1.14-3.932c0.248-0.998,0.438-2.817,0.439-2.835
			c0.002-0.05,0.257-6.086,0.508-8.517c0.086-0.831,0.385-1.419,0.889-1.746c0.685-0.445,1.506-0.245,1.677-0.196H60.34
			c1.371,0,1.518,2.592,1.523,2.702c-0.002,0.296-0.069,7.003-0.513,8.776c-0.439,1.753-1.471,5.521-1.481,5.56l-0.367-0.101
			c0.01-0.038,1.041-3.803,1.479-5.552c0.434-1.729,0.501-8.606,0.502-8.676c-0.033-0.64-0.303-2.329-1.143-2.329H49.458
			l-0.029-0.009c-0.007-0.003-0.787-0.246-1.385,0.146c-0.401,0.262-0.642,0.754-0.715,1.464c-0.25,2.419-0.504,8.444-0.507,8.505
			c-0.009,0.087-0.195,1.876-0.45,2.899C46.122,65.736,45.237,68.643,45.229,68.672z"/>
		<path fill="#7C8792" d="M48.07,66.578c-0.814,0-1.606-0.01-2.355-0.028c-9.719-0.242-20.238-2.824-20.344-2.851l-1.03-0.256
			l13.274-1.492c0.137-0.026,1.706-0.319,2.948-0.319c0.139,0,0.497,0.002,1.032,0.005c1.536,0.009,4.731,0.026,8.336,0.026
			c8.751,0,14.737-0.105,17.312-0.306c5.635-0.438,17.5-2.767,17.619-2.79c0.013-0.002,0.054-0.009,0.113-0.009
			c0.362,0,0.749,0.229,0.749,0.872c0,0.794-0.701,2.127-0.778,2.272c-0.056,0.136-0.353,0.629-1.815,1.035l-0.138,0.038
			c-7.437,2.072-13.904,3.213-18.21,3.213c-1.576,0-3.667,0.107-6.089,0.232C55.449,66.389,51.772,66.578,48.07,66.578z
			 M26.539,63.58c2.924,0.657,11.32,2.394,19.185,2.589c0.746,0.019,1.535,0.028,2.346,0.028c3.693,0,7.364-0.189,10.604-0.355
			c2.427-0.125,4.523-0.233,6.108-0.233c4.272,0,10.703-1.136,18.107-3.199l0.139-0.038c1.359-0.378,1.563-0.812,1.565-0.815
			l0.01-0.022c0.008-0.014,0.739-1.376,0.739-2.103c0-0.326-0.124-0.491-0.368-0.491c-0.024,0-0.042,0.002-0.046,0.003
			c-0.113,0.022-12,2.354-17.657,2.795c-2.621,0.203-8.455,0.307-17.341,0.307c-3.606,0-6.802-0.018-8.338-0.026
			c-0.535-0.003-0.892-0.005-1.03-0.005c-1.236,0-2.867,0.311-2.883,0.313l-0.015,0.002L26.539,63.58z"/>
		<path fill="#7C8792" d="M31.88,79.484c-4.161,0-8.376-0.947-8.418-0.957l-0.037-0.013L9.718,72.232l0.159-0.346l13.688,6.273
			c0.31,0.069,4.339,0.943,8.315,0.943h101.888c0.031-0.002,4.177-0.239,6.54-0.923c0.169-0.049,0.339-0.098,0.508-0.146
			c2.101-0.601,4.274-1.223,4.274-2.357h0.381c0,1.422-2.21,2.054-4.55,2.724c-0.169,0.049-0.338,0.097-0.507,0.146
			c-2.405,0.696-6.593,0.936-6.635,0.938L31.88,79.484z"/>
		<rect x="133.192" y="61.521" fill="#7C8792" width="0.762" height="7.408"/>
		<path fill="#7C8792" d="M132.574,82.974H30.991c-4.855,0-10.591-2.367-10.832-2.468l-0.028-0.012L0,71.15V18.96l20.159-9.355
			c0.241-0.101,5.977-2.468,10.832-2.468h101.583l0.048,0.006c0.109,0.014,2.695,0.348,3.666,0.612
			c0.899,0.245,6.441,1.771,6.757,1.858c1.046,0.251,2.997,1.403,2.997,4.006c0,2.589-1.273,3.272-1.418,3.342l-0.02,0.009
			l-9.993,4.432v0.541H4.688v46.226H134.61v0.541l10.013,4.44c0.146,0.069,1.418,0.753,1.418,3.342c0,2.603-1.951,3.756-2.997,4.006
			c-0.315,0.087-5.857,1.613-6.757,1.858c-0.971,0.265-3.557,0.599-3.666,0.612L132.574,82.974z M20.758,79.105
			c0.305,0.125,5.792,2.346,10.233,2.346h101.485c0.756-0.098,2.706-0.372,3.412-0.564c0.919-0.251,6.708-1.846,6.767-1.861
			l0.029-0.008c0.183-0.046,1.835-0.517,1.835-2.526c0-1.43-0.472-1.892-0.572-1.974l0.04,0.016l-0.041-0.017
			c-0.001-0.001-0.003-0.003-0.005-0.004l-10.853-4.813v-0.008H3.164V20.419h129.923v-0.008l10.853-4.813
			c0.084-0.065,0.578-0.516,0.578-1.979c0-2.01-1.652-2.48-1.841-2.528l-0.023-0.006c-0.058-0.016-5.848-1.61-6.767-1.86
			c-0.706-0.193-2.656-0.467-3.412-0.565H30.991c-4.449,0-9.931,2.222-10.233,2.346L1.523,19.932v50.247L20.758,79.105z"/>
		<path fill="#7C8792" d="M122.834,41.21c-8.078,0-15.724-2.122-24.578-4.581c-10.798-2.998-23.037-6.396-38.777-6.396H38.53
			l-0.013-0.002l-21.99-2.979l0.051-0.377l21.978,2.978H59.48c15.792,0,28.057,3.405,38.878,6.41
			c8.827,2.45,16.451,4.567,24.476,4.567V41.21z"/>
		<path fill="#7C8792" d="M122.288,41.162c-3.193,0-7.826-1.508-8.034-1.576l-0.042-0.017c-0.01-0.005-0.997-0.465-2.958-1.158
			c-0.719-0.255-2.411-1.173-4.752-2.442c-4.384-2.379-11.01-5.974-17.148-8.406c-3.812-1.512-9.988-2.901-17.859-4.021
			c-5.959-0.847-10.837-1.245-10.886-1.249l0.062-0.759c0.048,0.004,4.945,0.403,10.928,1.253c5.53,0.786,13.149,2.13,18.037,4.067
			c6.181,2.45,12.83,6.058,17.23,8.444c2.224,1.207,3.98,2.16,4.644,2.395c1.861,0.658,2.843,1.102,3.004,1.176
			c0.364,0.117,5.363,1.707,8.297,1.516l0.05,0.76C122.676,41.156,122.484,41.162,122.288,41.162z"/>
		<rect x="9.417" y="16.273" fill="#7C8792" width="0.761" height="4.907"/>
		<path fill="#7C8792" d="M48.867,38.988c-0.312,0-0.686-0.062-1.027-0.283c-0.504-0.327-0.803-0.915-0.889-1.746
			c-0.251-2.431-0.506-8.467-0.508-8.527c-0.001-0.007-0.191-1.826-0.439-2.824c-0.25-1.005-1.131-3.902-1.14-3.931l0.364-0.111
			c0.009,0.029,0.893,2.936,1.145,3.951c0.254,1.022,0.441,2.812,0.449,2.887c0.003,0.072,0.258,6.098,0.508,8.517
			c0.073,0.71,0.314,1.202,0.715,1.465c0.598,0.391,1.377,0.147,1.385,0.145l0.028-0.009h0.03H60.34c0.841,0,1.11-1.689,1.143-2.34
			c-0.001-0.059-0.068-6.936-0.502-8.665c-0.438-1.749-1.469-5.514-1.479-5.552l0.367-0.101c0.01,0.038,1.042,3.807,1.481,5.56
			c0.444,1.773,0.511,8.48,0.514,8.766c-0.006,0.121-0.152,2.713-1.523,2.713H49.517C49.431,38.926,49.181,38.988,48.867,38.988z"/>
		<path fill="#7C8792" d="M84.975,31.679c-0.06,0-0.101-0.007-0.108-0.008c-0.124-0.024-11.989-2.353-17.624-2.791
			c-2.574-0.2-8.561-0.306-17.312-0.306c-3.605,0-6.8,0.018-8.336,0.026c-0.536,0.003-0.894,0.005-1.032,0.005
			c-1.242,0-2.811-0.293-2.948-0.319l-13.274-1.492l1.03-0.256c0.105-0.025,10.625-2.608,20.344-2.851
			c0.749-0.019,1.541-0.028,2.355-0.028c3.703,0,7.379,0.189,10.624,0.356c2.422,0.125,4.513,0.232,6.089,0.232
			c4.308,0,10.775,1.142,18.212,3.214L83.13,27.5c1.462,0.405,1.759,0.898,1.815,1.034c0.078,0.146,0.778,1.479,0.778,2.273
			C85.723,31.449,85.336,31.679,84.975,31.679z M84.935,31.296c0.001,0,0.018,0.002,0.04,0.002c0.244,0,0.368-0.165,0.368-0.49
			c0-0.728-0.731-2.09-0.739-2.104l-0.013-0.03l0,0c-0.001,0-0.209-0.432-1.562-0.808l-0.137-0.038
			c-7.404-2.062-13.835-3.199-18.109-3.199c-1.585,0-3.682-0.108-6.108-0.233c-3.24-0.166-6.911-0.355-10.604-0.355
			c-0.811,0-1.6,0.01-2.346,0.028C37.858,24.265,29.462,26,26.539,26.657l11.141,1.254c0.017,0.003,1.647,0.313,2.883,0.313
			c0.138,0,0.496-0.002,1.03-0.005c1.536-0.009,4.732-0.026,8.338-0.026c8.886,0,14.72,0.104,17.341,0.308
			C72.929,28.94,84.815,31.272,84.935,31.296C84.935,31.296,84.935,31.296,84.935,31.296z"/>
		<path fill="#7C8792" d="M37.263,60.384c-1.192-5.451-1.416-13.818-1.418-13.902v-2.721c0.002-0.089,0.226-8.456,1.418-13.907
			l0.372,0.082c-1.185,5.415-1.407,13.746-1.409,13.829l0,2.713c0.002,0.078,0.224,8.409,1.409,13.825L37.263,60.384z"/>
		<path fill="#7C8792" d="M23.321,62.287c-1.857-6.199-2.205-15.708-2.208-15.804v-2.723c0.003-0.103,0.351-9.611,2.208-15.811
			l0.365,0.109c-1.843,6.152-2.189,15.612-2.192,15.707l0,2.711c0.003,0.088,0.349,9.549,2.192,15.7L23.321,62.287z"/>
		<path fill="#7C8792" d="M9.877,18.224l-0.159-0.346l13.724-6.291l0.019-0.004c0.042-0.01,4.257-0.956,8.418-0.956h101.888
			c0.052,0.002,4.241,0.241,6.646,0.938c0.169,0.049,0.338,0.097,0.507,0.146c2.34,0.67,4.55,1.302,4.55,2.724h-0.381
			c0-1.135-2.173-1.756-4.274-2.357c-0.169-0.049-0.339-0.098-0.508-0.146c-2.363-0.684-6.509-0.921-6.55-0.923H31.88
			c-3.978,0-8.005,0.875-8.315,0.943L9.877,18.224z"/>
		<rect x="133.192" y="21.181" fill="#7C8792" width="0.762" height="7.535"/>
		<path fill="#7C8792" d="M22.408,63.895l-4.122-0.773l-0.04-0.094c-0.007-0.016-0.165-0.393-0.42-1.752
			c-0.252-1.348-0.581-5.41-0.595-5.583l-0.014-0.177l2.931-0.439l0.001,0.219c0,0.038,0.038,3.749,0.969,7.12l3.364,0.986
			L22.408,63.895z M18.564,62.785l3.834,0.72l0.599-0.142l-2.188-0.642l-0.028-0.102c-0.84-2.977-0.983-6.239-1.007-7.104
			l-2.148,0.322c0.067,0.813,0.355,4.195,0.575,5.366C18.379,62.156,18.507,62.609,18.564,62.785z"/>
		<path fill="#7C8792" d="M20.148,35.331l-2.931-0.44l0.014-0.177c0.014-0.172,0.342-4.234,0.595-5.583
			c0.255-1.358,0.413-1.736,0.42-1.752l0.04-0.093l4.122-0.773l2.075,0.492l-3.364,0.986c-0.931,3.372-0.969,7.083-0.969,7.12
			L20.148,35.331z M17.626,34.567l2.148,0.322c0.024-0.863,0.167-4.127,1.007-7.104l0.028-0.101l2.188-0.642l-0.599-0.143
			l-3.835,0.72c-0.056,0.176-0.185,0.629-0.363,1.58C17.981,30.372,17.693,33.754,17.626,34.567z"/>
		<path fill="#7C8792" d="M86.125,48.903c-1.982,0-3.596-1.613-3.596-3.597c0-1.982,1.613-3.596,3.596-3.596
			c1.983,0,3.596,1.613,3.596,3.596C89.721,47.29,88.108,48.903,86.125,48.903z M86.125,42.473c-1.562,0-2.834,1.271-2.834,2.834
			c0,1.563,1.271,2.835,2.834,2.835c1.563,0,2.834-1.271,2.834-2.835C88.959,43.744,87.688,42.473,86.125,42.473z"/>
		<path fill="#7C8792" d="M55.475,47.37c-1.138,0-2.063-0.926-2.063-2.063s0.925-2.062,2.063-2.062c1.137,0,2.063,0.925,2.063,2.062
			S56.612,47.37,55.475,47.37z M55.475,44.006c-0.718,0-1.302,0.583-1.302,1.301s0.584,1.302,1.302,1.302
			c0.717,0,1.301-0.584,1.301-1.302S56.192,44.006,55.475,44.006z"/>
		<path fill="#7C8792" d="M10.559,49.598H5.872v-8.474h4.687V49.598z M6.634,48.837h3.164v-6.951H6.634V48.837z"/>
		<rect x="5.872" y="46.666" fill="#7C8792" width="0.762" height="0.323"/>
		<rect x="6.253" y="46.983" fill="#7C8792" width="3.925" height="0.381"/>
		<path fill="#7C8792" d="M152,60.724h-10.938V30.074H152V60.724z M141.823,59.962h9.416V30.836h-9.416V59.962z"/>
		
			<rect x="140.984" y="55.123" transform="matrix(0.0256 0.9997 -0.9997 0.0256 198.0162 -82.1987)" fill="#7C8792" width="0.381" height="10.714"/>
		
			<rect x="135.818" y="29.831" transform="matrix(0.9997 0.0256 -0.0256 0.9997 0.8152 -3.6059)" fill="#7C8792" width="10.714" height="0.381"/>
		<path fill="#7C8792" d="M101.257,54.303c-0.266,0-0.418-0.044-0.521-0.074c-0.02-0.006-0.038-0.012-0.052-0.015
			c-0.359-0.071-0.854-0.907-1.037-1.754c-0.196-0.903-0.216-1.983-0.216-2.029v-6.218h0.38v6.215c0,0.008,0.02,1.086,0.208,1.952
			c0.181,0.833,0.61,1.41,0.745,1.463c0.019,0.003,0.046,0.011,0.079,0.021c0.229,0.066,0.837,0.245,3.192-0.689
			c2.967-1.178,12.629-4.137,17.837-4.137v0.381c-5.157,0-14.75,2.939-17.697,4.109C102.584,54.159,101.736,54.303,101.257,54.303z"
			/>
		<path fill="#7C8792" d="M99.811,45.97h-0.38v-6.215c0-0.049,0.02-1.13,0.216-2.033c0.184-0.846,0.678-1.682,1.037-1.754
			c0.015-0.003,0.032-0.008,0.052-0.014c0.288-0.085,0.962-0.282,3.439,0.7c2.947,1.17,12.54,4.109,17.697,4.109v0.381
			c-5.208,0-14.871-2.959-17.837-4.136c-2.355-0.935-2.963-0.757-3.192-0.689c-0.033,0.01-0.061,0.018-0.085,0.022
			c-0.129,0.05-0.559,0.627-0.739,1.461c-0.188,0.867-0.208,1.944-0.208,1.955V45.97z"/>
		<path fill="#7C8792" d="M46.348,69.014c-13.234,0-29.75-5.424-29.915-5.479l-0.223-0.074l-0.034-0.232
			c-0.014-0.094-1.361-9.447-1.361-16.751v-2.717c0-7.305,1.348-16.658,1.361-16.752l0.753,0.109
			c-0.013,0.093-1.353,9.394-1.353,16.643v2.717c0,6.606,1.112,14.915,1.32,16.407c2.017,0.646,17.177,5.368,29.451,5.368
			c13.252,0,67.658-2.286,78.99-3.688c1.196-0.148,2.247-0.373,3.121-0.668c1.823-0.615,3.27-2.078,3.564-2.466l-0.065-0.071
			c0.152-0.139,0.36-0.33,0.62-0.206l0.22,0.377c-0.023,0.388-1.037,1.258-1.24,1.428c-0.633,0.531-1.642,1.25-2.855,1.66
			c-0.923,0.312-2.023,0.547-3.271,0.701C114.081,66.725,59.612,69.014,46.348,69.014z M132.041,61.451
			c-0.015,0.097,0.009,0.228,0.115,0.327c0.085,0.08,0.189,0.104,0.275,0.1L132.041,61.451z"/>
		<path fill="#7C8792" d="M132.409,29.05c-0.183,0-0.334-0.138-0.451-0.245l0.065-0.071c-0.295-0.388-1.741-1.851-3.564-2.466
			c-0.875-0.295-1.925-0.52-3.121-0.668c-11.333-1.401-65.738-3.688-78.99-3.688c-13.113,0-29.511,5.386-29.675,5.44l-0.24-0.724
			c0.165-0.055,16.681-5.479,29.915-5.479c13.265,0,67.733,2.29,79.083,3.693c1.248,0.154,2.348,0.391,3.271,0.702
			c1.213,0.409,2.223,1.129,2.855,1.659c0.203,0.171,1.218,1.041,1.24,1.429l0.016,0.256l-0.236,0.12
			C132.519,29.038,132.462,29.05,132.409,29.05z M132.411,28.286c-0.082,0-0.176,0.026-0.254,0.101
			c-0.106,0.099-0.13,0.23-0.115,0.327l0.391-0.427C132.425,28.286,132.418,28.286,132.411,28.286z"/>
	</g>
	<g>
		
			<rect x="2.659" y="71.547" transform="matrix(0.8835 0.4684 -0.4684 0.8835 34.1809 6.7831)" fill="#7C8792" width="1.587" height="1.142"/>
		<path fill="#7C8792" d="M133.216,90.786l-3.139-0.166l0.06-1.141l3.14,0.166L133.216,90.786z M136.454,90.55l-0.143-1.133
			c0.389-0.049,0.684-0.095,0.877-0.137c0.311-0.067,1.161-0.253,2.162-0.473l0.244,1.116c-1.002,0.22-1.854,0.405-2.164,0.473
			C137.201,90.446,136.882,90.496,136.454,90.55z M126.938,90.454l-3.14-0.166l0.061-1.141l3.139,0.166L126.938,90.454z
			 M120.659,90.122l-3.139-0.166l0.061-1.141l3.139,0.166L120.659,90.122z M114.38,89.789l-3.139-0.166l0.061-1.141l3.139,0.166
			L114.38,89.789z M108.102,89.457l-3.139-0.166l0.06-1.141l3.14,0.166L108.102,89.457z M142.673,89.25l-0.244-1.116
			c0.925-0.203,1.601-0.351,1.615-0.354l0.023-0.004c0.002-0.001,0.562-0.11,1.099-0.523l0.695,0.906
			c-0.767,0.589-1.561,0.735-1.594,0.741l0-0.003c-0.031,0.009-0.064,0.018-0.098,0.025L142.673,89.25z M101.823,89.125l-3.14-0.166
			l0.061-1.141l3.139,0.166L101.823,89.125z M95.544,88.793l-3.139-0.166l0.061-1.141l3.139,0.166L95.544,88.793z M89.266,88.461
			l-3.139-0.166l0.061-1.141l3.139,0.166L89.266,88.461z M82.987,88.129l-3.139-0.167l0.06-1.141l3.14,0.166L82.987,88.129z
			 M76.709,87.796l-3.14-0.166l0.061-1.141l3.139,0.166L76.709,87.796z M70.43,87.464l-3.139-0.166l0.06-1.141l3.139,0.166
			L70.43,87.464z M64.151,87.132l-3.139-0.166l0.061-1.141l3.139,0.166L64.151,87.132z M57.873,86.8l-3.14-0.166l0.061-1.141
			l3.14,0.166L57.873,86.8z M51.595,86.468l-3.14-0.166l0.061-1.142l3.139,0.167L51.595,86.468z M45.316,86.135l-3.139-0.166
			l0.06-1.141l3.139,0.166L45.316,86.135z M39.037,85.803l-3.139-0.166l0.06-1.141l3.14,0.166L39.037,85.803z M32.759,85.471
			l-0.46-0.024c-0.841-0.044-1.763-0.167-2.741-0.364l0.225-1.119c0.924,0.186,1.791,0.302,2.577,0.343l0.46,0.024L32.759,85.471z
			 M147.34,84.96l-1.142-0.018c0-0.032,0-0.064,0-0.096c0-1.354-0.489-1.791-0.565-1.851l0.025,0.012l-0.025-0.012
			c-0.001-0.001-0.001-0.001-0.002-0.002l-0.373-0.189l0.518-1.019l0.414,0.211c0.118,0.064,1.151,0.689,1.151,2.85
			C147.341,84.884,147.34,84.922,147.34,84.96z M26.455,84.272c-0.985-0.31-1.996-0.673-3.003-1.079l0.427-1.06
			c0.98,0.396,1.962,0.748,2.919,1.049L26.455,84.272z M20.551,81.828l-2.777-1.473l0.535-1.009l2.777,1.472L20.551,81.828z
			 M142.455,81.38l-2.802-1.424l0.518-1.019l2.802,1.425L142.455,81.38z M14.996,78.884l-2.778-1.473l0.535-1.009l2.778,1.472
			L14.996,78.884z M9.44,75.938l-2.777-1.472l0.535-1.01l2.777,1.473L9.44,75.938z"/>
		<polygon fill="#7C8792" points="136.885,78.549 135.14,77.661 135.144,77.587 134.13,77.533 134.19,76.393 136.345,76.507 
			136.32,76.98 137.403,77.53 		"/>
		<path fill="#7C8792" d="M130.885,77.361l-3.246-0.172l0.06-1.141l3.246,0.172L130.885,77.361z M124.394,77.018l-3.245-0.171
			l0.06-1.142l3.246,0.172L124.394,77.018z M117.903,76.675l-3.246-0.172l0.061-1.141l3.245,0.172L117.903,76.675z M111.412,76.331
			l-3.246-0.172l0.061-1.141l3.246,0.172L111.412,76.331z M104.921,75.987l-3.246-0.172l0.061-1.141l3.246,0.172L104.921,75.987z
			 M98.43,75.645l-3.245-0.172l0.061-1.141l3.245,0.172L98.43,75.645z M91.939,75.301l-3.246-0.172l0.061-1.141l3.245,0.172
			L91.939,75.301z M85.448,74.957l-3.246-0.172l0.06-1.141l3.246,0.172L85.448,74.957z M78.957,74.614l-3.245-0.172l0.06-1.141
			l3.246,0.171L78.957,74.614z M72.466,74.271l-3.246-0.172l0.061-1.141l3.245,0.172L72.466,74.271z M65.976,73.927l-3.246-0.172
			l0.06-1.141l3.246,0.172L65.976,73.927z M59.484,73.584l-3.245-0.172l0.06-1.141l3.246,0.172L59.484,73.584z M52.993,73.24
			l-3.245-0.172l0.061-1.141l3.245,0.172L52.993,73.24z M46.502,72.896l-3.246-0.172l0.061-1.141l3.246,0.172L46.502,72.896z
			 M40.012,72.553l-3.246-0.171l0.061-1.142l3.246,0.172L40.012,72.553z M33.521,72.21l-3.245-0.172l0.061-1.141l3.245,0.172
			L33.521,72.21z M27.03,71.866l-3.246-0.172l0.061-1.141l3.245,0.172L27.03,71.866z M20.539,71.522l-3.246-0.171l0.06-1.142
			l3.246,0.172L20.539,71.522z M14.048,71.18l-3.245-0.172l0.06-1.141l3.246,0.172L14.048,71.18z"/>
		
			<rect x="6.002" y="69.653" transform="matrix(0.9986 0.0529 -0.0529 0.9986 3.7276 -0.2613)" fill="#7C8792" width="1.586" height="1.142"/>
	</g>
	<g>
		
			<rect x="2.881" y="17.875" transform="matrix(0.4686 0.8834 -0.8834 0.4686 18.3254 6.8701)" fill="#7C8792" width="1.142" height="1.587"/>
		<path fill="#7C8792" d="M7.198,17.329l-0.535-1.01l2.777-1.472l0.535,1.009L7.198,17.329z M12.753,14.385l-0.535-1.01l2.778-1.472
			l0.535,1.009L12.753,14.385z M140.17,11.849l-0.518-1.019l2.802-1.424l0.518,1.019L140.17,11.849z M18.309,11.439l-0.535-1.009
			l2.777-1.473l0.535,1.01L18.309,11.439z M145.775,9l-0.518-1.019l0.373-0.189c0.068-0.053,0.567-0.484,0.567-1.852
			c0-0.032,0-0.063,0-0.097l1.142-0.018c0,0.038,0.001,0.076,0.001,0.114c0,2.159-1.033,2.784-1.151,2.849l-0.014,0.008L145.775,9z
			 M23.879,8.652l-0.427-1.06c1.008-0.406,2.018-0.77,3.003-1.079l0.343,1.09C25.841,7.904,24.859,8.257,23.879,8.652z
			 M29.782,6.823l-0.225-1.119c0.978-0.197,1.9-0.319,2.741-0.364l0.46-0.024l0.061,1.141l-0.46,0.024
			C31.573,6.522,30.707,6.638,29.782,6.823z M35.958,6.29l-0.06-1.141l3.139-0.166l0.061,1.141L35.958,6.29z M42.237,5.958
			l-0.06-1.141l3.139-0.166l0.06,1.141L42.237,5.958z M48.516,5.626l-0.061-1.141l3.14-0.167l0.06,1.142L48.516,5.626z
			 M54.794,5.294l-0.061-1.142l3.14-0.166l0.061,1.141L54.794,5.294z M61.073,4.961L61.012,3.82l3.139-0.166l0.061,1.141
			L61.073,4.961z M67.351,4.629l-0.06-1.141l3.139-0.166l0.06,1.141L67.351,4.629z M73.63,4.297l-0.061-1.141l3.14-0.166l0.06,1.141
			L73.63,4.297z M79.908,3.965l-0.06-1.141l3.139-0.166l0.061,1.141L79.908,3.965z M86.187,3.633l-0.061-1.142l3.139-0.166
			l0.061,1.142L86.187,3.633z M145.166,3.534c-0.537-0.412-1.097-0.522-1.103-0.523l-0.02-0.004
			c-0.015-0.004-0.69-0.151-1.615-0.354l0.244-1.115l1.496,0.327c0.034,0.008,0.067,0.017,0.098,0.025l0-0.003
			c0.033,0.006,0.827,0.152,1.594,0.741L145.166,3.534z M92.466,3.3l-0.061-1.141l3.139-0.166l0.06,1.141L92.466,3.3z M98.744,2.968
			l-0.061-1.141l3.14-0.166l0.06,1.141L98.744,2.968z M105.022,2.636l-0.06-1.141l3.139-0.166l0.061,1.141L105.022,2.636z
			 M111.301,2.304l-0.061-1.141l3.139-0.166l0.061,1.141L111.301,2.304z M139.351,1.979c-1.001-0.22-1.852-0.405-2.162-0.473
			c-0.193-0.042-0.488-0.088-0.877-0.137l0.143-1.133c0.428,0.054,0.747,0.104,0.976,0.153c0.311,0.067,1.163,0.254,2.165,0.473
			L139.351,1.979z M117.58,1.972l-0.061-1.141l3.139-0.167l0.06,1.142L117.58,1.972z M123.858,1.64l-0.061-1.142l3.14-0.166
			l0.06,1.141L123.858,1.64z M130.137,1.307l-0.06-1.141L133.216,0l0.061,1.141L130.137,1.307z"/>
		<polygon fill="#7C8792" points="134.19,14.394 134.13,13.253 135.144,13.199 135.14,13.125 136.885,12.237 137.403,13.256 
			136.32,13.806 136.345,14.28 		"/>
		<path fill="#7C8792" d="M10.863,20.919l-0.06-1.141l3.245-0.171l0.061,1.141L10.863,20.919z M17.354,20.576l-0.06-1.141
			l3.246-0.172l0.06,1.141L17.354,20.576z M23.845,20.232l-0.061-1.141l3.246-0.172l0.06,1.141L23.845,20.232z M30.336,19.889
			l-0.061-1.141l3.245-0.172l0.061,1.142L30.336,19.889z M36.827,19.546l-0.061-1.141l3.246-0.172l0.061,1.141L36.827,19.546z
			 M43.317,19.202l-0.061-1.141l3.246-0.172l0.061,1.141L43.317,19.202z M49.809,18.858l-0.061-1.141l3.245-0.172l0.061,1.141
			L49.809,18.858z M56.299,18.516l-0.06-1.141l3.245-0.172l0.061,1.141L56.299,18.516z M62.79,18.172l-0.06-1.141l3.246-0.172
			L66.036,18L62.79,18.172z M69.281,17.828l-0.061-1.141l3.246-0.172l0.06,1.141L69.281,17.828z M75.772,17.485l-0.06-1.142
			l3.245-0.171l0.061,1.141L75.772,17.485z M82.263,17.142l-0.06-1.141l3.246-0.172l0.061,1.141L82.263,17.142z M88.754,16.798
			l-0.061-1.141l3.246-0.172l0.06,1.141L88.754,16.798z M95.245,16.455l-0.061-1.142l3.245-0.171l0.061,1.141L95.245,16.455z
			 M101.736,16.111l-0.061-1.141l3.246-0.172l0.061,1.141L101.736,16.111z M108.227,15.768l-0.061-1.141l3.246-0.172l0.06,1.141
			L108.227,15.768z M114.718,15.424l-0.061-1.141l3.246-0.172l0.06,1.142L114.718,15.424z M121.208,15.081l-0.06-1.141l3.245-0.172
			l0.061,1.141L121.208,15.081z M127.699,14.737l-0.06-1.141l3.246-0.172l0.061,1.141L127.699,14.737z"/>
		
			<rect x="6.224" y="19.769" transform="matrix(0.053 0.9986 -0.9986 0.053 26.9683 12.6872)" fill="#7C8792" width="1.142" height="1.586"/>
	</g>
</g>
</svg>
