<?xml version="1.0" encoding="utf-8"?>
<!-- Generator: Adobe Illustrator 16.0.0, SVG Export Plug-In . SVG Version: 6.00 Build 0)  -->
<!DOCTYPE svg PUBLIC "-//W3C//DTD SVG 1.1//EN" "http://www.w3.org/Graphics/SVG/1.1/DTD/svg11.dtd">
<svg version="1.1" id="Layer_1" xmlns="http://www.w3.org/2000/svg" xmlns:xlink="http://www.w3.org/1999/xlink" x="0px" y="0px"
	 width="198px" height="85.673px" viewBox="0 0 198 85.673" enable-background="new 0 0 198 85.673" xml:space="preserve">
<g>
	<path fill="#7C8792" d="M47.491,63.476c-1.406,0-2.519-0.137-3.307-0.405c-1.269-0.433-2.263-0.907-2.651-1.102h-6.441
		c-0.182-0.005-4.477-0.151-7.134-3.193c-2.232-2.556-5.013-7.839-5.679-9.13l-8.691-3.007v-3.754l154.333,0.001
		c0.086,0.006,2.132,0.154,3.985,1.038c1.634,0.779,8.604,3.69,9.24,3.956c0.649,0.186,1.674,0.782,1.674,1.939v2.142l-0.029,0.103
		c-0.102,0.364-0.492,0.963-1.337,1.226c0.688,0.233,1.606,0.828,1.606,1.914v1.138c0.017,0.529-0.252,1.53-1.366,2.032
		c-0.951,0.429-10.188,4.599-10.188,4.599l-0.073,0.033l-0.079,0.018c-0.076,0.017-1.886,0.41-3.452,0.41H48.819
		C48.688,63.442,48.169,63.476,47.491,63.476z M35.125,60.421h6.787l0.171,0.09c0.01,0.006,1.113,0.587,2.601,1.094
		c0.61,0.208,1.607,0.322,2.808,0.322c0.707,0,1.235-0.039,1.241-0.04l0.059-0.002h119.112c1.231,0,2.697-0.287,3.043-0.358
		c0.887-0.4,9.212-4.158,10.112-4.564c0.4-0.18,0.45-0.476,0.455-0.58l-0.003-0.031l0.003,0.005v-1.152
		c0-0.238-0.503-0.438-0.653-0.477l-12.345-2.552l6.928-0.13c0.042,0,4.292-0.08,5.292-0.183c0.323-0.033,0.472-0.136,0.537-0.203
		v-1.84c0-0.246-0.461-0.426-0.576-0.457l-0.055-0.014l-0.045-0.021c-0.31-0.129-7.619-3.178-9.357-4.007
		c-1.492-0.712-3.185-0.871-3.402-0.889H15.136v1.104l8.24,2.851l0.141,0.279c0.032,0.063,3.235,6.375,5.607,9.091
		C31.292,60.239,34.935,60.413,35.125,60.421z"/>
	<rect x="22.686" y="43.658" fill="#7C8792" width="0.387" height="5.463"/>
	<path fill="#7C8792" d="M167.054,43.737c-0.009-0.017-0.912-1.66-1.382-2.42c-0.344-0.554-0.862-0.74-0.978-0.776
		c-0.681-0.047-9.945-0.689-12.979-0.971c-2.302-0.214-4.578-0.652-4.601-0.657l-0.18-0.035l-0.087-0.16
		c-0.04-0.072-0.973-1.795-1.485-3.102c-0.376-0.96-1.133-3.396-0.042-5.29c0.965-1.675,3.471-2.056,3.725-2.091l6.291-1.337v-4.524
		c-1.71-0.305-9.896-1.738-14.502-2.116c-5.087-0.419-18.046-0.946-18.475-0.963c-0.78,0.008-37.351,0.401-48.191,0.928
		c-8.642,0.419-15.484,2.721-17.909,3.885L32.982,37.626l-1.531,6.021l-0.75-0.19l1.611-6.337l23.597-13.703
		c2.458-1.186,9.43-3.54,18.221-3.967c10.917-0.529,47.859-0.925,48.231-0.929h0.01h0.01c0.133,0.006,13.354,0.541,18.517,0.966
		c5.174,0.425,14.798,2.166,14.895,2.184l0.318,0.058v5.797l-6.95,1.478c-0.023,0.003-2.366,0.318-3.169,1.711
		c-0.923,1.603-0.243,3.766,0.092,4.621c0.406,1.036,1.113,2.392,1.358,2.854c0.577,0.105,2.453,0.437,4.345,0.612
		c3.126,0.29,12.902,0.966,13,0.972l0.062,0.01c0.037,0.009,0.921,0.226,1.481,1.128c0.482,0.777,1.366,2.388,1.403,2.456
		L167.054,43.737z"/>
	<path fill="#7C8792" d="M168.146,85.673c-0.708,0-1.339-0.037-1.875-0.109l-0.138-0.019l0.154-1.15l0.138,0.019
		c0.485,0.065,1.064,0.099,1.721,0.099c0.55,0,1.021-0.024,1.252-0.039l0.072,1.159C169.224,85.647,168.727,85.673,168.146,85.673z
		 M162.902,85.11l-3.218-0.433l0.155-1.15l3.218,0.433L162.902,85.11z M172.711,84.73l-0.332-1.113l3.097-0.925l0.333,1.112
		L172.711,84.73z M156.472,84.246l-3.209-0.432l0.154-1.15l3.209,0.432L156.472,84.246z M150.055,83.384l-3.207-0.432l0.155-1.15
		l3.206,0.431L150.055,83.384z M178.906,82.879l-0.332-1.112l1.626-0.485c0.436-0.13,0.596-0.411,0.653-0.624l1.121,0.303
		c-0.088,0.328-0.406,1.124-1.442,1.434L178.906,82.879z M143.644,82.521l-3.205-0.431l0.155-1.151l3.205,0.431L143.644,82.521z
		 M137.235,81.659l-3.203-0.431l0.155-1.15l3.204,0.431L137.235,81.659z M130.829,80.798l-3.203-0.431l0.155-1.15l3.203,0.431
		L130.829,80.798z M124.423,79.937l-3.203-0.431l0.155-1.15l3.203,0.431L124.423,79.937z M118.019,79.075l-3.202-0.431l0.154-1.15
		l3.203,0.431L118.019,79.075z M180.298,78.667l-3.043-1.068l0.182-0.519c-0.567-0.06-1.119-0.12-1.572-0.171l0.129-1.154
		c0.9,0.101,2.187,0.241,3.204,0.336l-0.087,0.929l1.571,0.552L180.298,78.667z M111.621,78.215l-3.206-0.431l0.154-1.15
		l3.206,0.431L111.621,78.215z M105.213,77.354l-3.202-0.431l0.154-1.15l3.202,0.431L105.213,77.354z M98.809,76.492l-3.202-0.431
		l0.154-1.15l3.202,0.431L98.809,76.492z M182.427,75.892l-1.15-0.154l0.225-1.667c0.002-0.021,0.004-0.041,0.004-0.06
		c0-0.286-0.338-0.514-0.483-0.599l0.584-1.003c0.684,0.398,1.061,0.967,1.061,1.602c0,0.07-0.005,0.144-0.015,0.215L182.427,75.892
		z M92.403,75.631L89.201,75.2l0.155-1.15l3.203,0.431L92.403,75.631z M85.999,74.77l-3.203-0.431l0.154-1.15l3.203,0.431
		L85.999,74.77z M79.592,73.908l-3.204-0.431l0.155-1.15l3.204,0.431L79.592,73.908z M73.185,73.047l-3.205-0.431l0.155-1.15
		l3.205,0.431L73.185,73.047z M66.774,72.186l-3.206-0.432l0.154-1.15l3.207,0.431L66.774,72.186z M178.22,71.786
		c-0.867-0.511-1.85-1.092-2.784-1.648l0.594-0.997c0.933,0.555,1.914,1.135,2.779,1.645L178.22,71.786z M60.36,71.322l-3.21-0.432
		l0.155-1.15l3.21,0.432L60.36,71.322z M53.937,70.459l-3.22-0.434l0.154-1.15l3.221,0.434L53.937,70.459z M47.5,69.628
		c-0.939-0.101-2.274-0.304-3.3-0.701l0.42-1.083c0.955,0.371,2.292,0.554,3.003,0.63L47.5,69.628z M172.66,68.461
		c-0.237-0.147-0.438-0.273-0.589-0.373c-0.599-0.392-1.347-0.747-2.164-1.028l0.378-1.098c0.919,0.316,1.733,0.705,2.421,1.154
		c0.146,0.096,0.338,0.217,0.566,0.358L172.66,68.461z M41.723,67.339l-0.446-0.06l-0.002,0.003
		c-0.002-0.002-0.004-0.003-0.006-0.004l-2.915-0.393l0.154-1.15l2.739,0.368l0.14-0.165l0.437,0.311
		c0.005,0.004,0.042,0.03,0.107,0.075l-0.335,0.49l0.333,0.281L41.723,67.339z M166.859,66.472l-3.196-0.431l0.155-1.15l3.197,0.43
		L166.859,66.472z M35.157,66.456l-0.312-0.042c-0.056-0.01-1.383-0.229-2.932-0.993l0.514-1.041c1.332,0.657,2.5,0.87,2.596,0.887
		l0.288,0.038L35.157,66.456z M167.848,66.192c-0.007-0.018-0.68-1.763-1.043-2.573c-0.043-0.096-0.095-0.187-0.154-0.271
		l0.951-0.666c0.101,0.145,0.189,0.3,0.262,0.463c0.376,0.838,1.04,2.558,1.067,2.63L167.848,66.192z M160.467,65.611l-3.196-0.43
		l0.155-1.15l3.196,0.43L160.467,65.611z M154.074,64.752l-3.196-0.43l0.154-1.15l3.197,0.43L154.074,64.752z M147.682,63.893
		l-3.196-0.43l0.154-1.15l3.196,0.43L147.682,63.893z M29.148,63.415c-0.304-0.323-0.58-0.671-0.818-1.032
		c-0.322-0.487-0.67-1.09-1.034-1.79l1.031-0.535c0.345,0.664,0.671,1.23,0.971,1.685c0.203,0.307,0.438,0.603,0.697,0.879
		L29.148,63.415z M141.289,63.033l-3.197-0.43l0.155-1.151l3.196,0.43L141.289,63.033z M164.099,62.422
		c-0.885-0.183-1.99-0.412-3.166-0.657l0.237-1.137c1.174,0.245,2.279,0.475,3.163,0.657L164.099,62.422z M134.896,62.173
		l-3.196-0.43l0.155-1.15l3.196,0.43L134.896,62.173z M128.503,61.313l-3.197-0.43l0.155-1.15l3.196,0.43L128.503,61.313z
		 M157.771,61.1c-1.274-0.27-2.339-0.498-3.164-0.679l0.249-1.135c0.822,0.181,1.884,0.408,3.155,0.678L157.771,61.1z
		 M122.11,60.454l-3.196-0.43l0.155-1.15l3.197,0.43L122.11,60.454z M151.438,59.652c-1.453-0.402-2.545-0.77-2.591-0.785
		l-0.259-0.088l-0.098-0.256c0,0-0.078-0.205-0.195-0.53l1.092-0.394c0.035,0.097,0.066,0.182,0.092,0.253
		c0.408,0.133,1.257,0.4,2.269,0.681L151.438,59.652z M115.718,59.595l-3.196-0.43l0.155-1.151l3.196,0.43L115.718,59.595z
		 M109.325,58.735l-3.196-0.43l0.154-1.151l3.197,0.43L109.325,58.735z M102.933,57.875l-3.196-0.43l0.154-1.15l3.196,0.43
		L102.933,57.875z M25.908,57.631c-0.402-0.931-0.814-1.944-1.225-3.014l1.083-0.417c0.406,1.055,0.812,2.054,1.208,2.971
		L25.908,57.631z M96.54,57.016l-3.197-0.43l0.155-1.15l3.196,0.43L96.54,57.016z M90.147,56.156l-3.196-0.43l0.155-1.151
		l3.196,0.431L90.147,56.156z M83.754,55.297l-3.197-0.431l0.155-1.15l3.196,0.43L83.754,55.297z M147.335,54.824
		c-0.121-0.605-0.183-1.199-0.183-1.767c0-0.611,0.073-1.184,0.216-1.7l1.119,0.311c-0.115,0.416-0.174,0.884-0.174,1.39
		c0,0.491,0.054,1.008,0.16,1.538L147.335,54.824z M77.361,54.437l-3.196-0.43l0.155-1.15l3.197,0.43L77.361,54.437z M70.969,53.577
		l-3.196-0.43l0.155-1.15l3.196,0.43L70.969,53.577z M64.576,52.718l-3.196-0.43l0.154-1.151l3.196,0.431L64.576,52.718z
		 M23.402,52.289l-2.88-1.452l0.522-1.036l2.88,1.451L23.402,52.289z M58.184,51.858l-3.196-0.43l0.154-1.151l3.196,0.43
		L58.184,51.858z M51.791,50.998l-3.196-0.43l0.155-1.15l3.196,0.43L51.791,50.998z M45.398,50.139l-3.196-0.43l0.155-1.15
		l3.196,0.43L45.398,50.139z M150.187,49.722l-0.435-1.076c1.118-0.451,2.29-0.479,2.487-0.479l0.859-0.065l0.088,1.157
		l-0.912,0.069l-0.023-0.001C152.156,49.327,151.13,49.341,150.187,49.722z M17.642,49.386l-1.888-0.951l0.258-1.921l1.151,0.155
		l-0.148,1.101l1.149,0.58L17.642,49.386z M39.005,49.279l-3.196-0.43l0.155-1.15l3.197,0.43L39.005,49.279z M156.402,49.014
		l-0.088-1.158l2.175-0.165l0.014-0.103l1.151,0.154l-0.139,1.035L156.402,49.014z M32.612,48.42l-3.196-0.43l0.155-1.151
		l3.196,0.431L32.612,48.42z M26.22,47.561l-3.196-0.43l0.154-1.151l3.197,0.43L26.22,47.561z M19.827,46.701l-3.196-0.431
		l0.154-1.15l3.196,0.43L19.827,46.701z M34.859,45.468l-1.077-0.434l1.205-2.991l1.077,0.434L34.859,45.468z M160.083,44.546
		l-1.151-0.155l0.117-0.867c-0.308-0.099-0.759-0.242-1.317-0.418l0.348-1.107c1.102,0.347,1.788,0.568,1.788,0.568l0.461,0.149
		L160.083,44.546z M154.65,42.154c-1.08-0.327-2.12-0.635-3.09-0.916l0.323-1.115c0.975,0.282,2.019,0.592,3.104,0.921
		L154.65,42.154z M38.516,41.353l-0.444-1.072l2.98-1.234l0.444,1.073L38.516,41.353z M148.461,40.372
		c-1.192-0.319-2.239-0.581-3.11-0.776l0.254-1.133c0.888,0.199,1.95,0.464,3.157,0.788L148.461,40.372z M142.201,38.943
		c-0.927-0.184-1.993-0.39-3.167-0.612l0.216-1.141c1.178,0.223,2.247,0.43,3.177,0.613L142.201,38.943z M44.475,38.885
		l-0.444-1.072l2.979-1.233l0.444,1.072L44.475,38.885z M135.86,37.738c-1.095-0.202-2.171-0.398-3.176-0.581l0.207-1.143
		c1.006,0.183,2.083,0.379,3.18,0.582L135.86,37.738z M129.505,36.585c-1.448-0.26-2.416-0.43-2.544-0.452l-0.625-0.077l0.142-1.152
		l0.64,0.079v0.002c0.141,0.02,0.612,0.104,2.591,0.457L129.505,36.585z M50.435,36.418l-0.444-1.073l2.98-1.233l0.444,1.073
		L50.435,36.418z M123.121,35.661c-0.935-0.114-2.014-0.246-3.209-0.392l0.14-1.153c1.196,0.146,2.275,0.277,3.21,0.393
		L123.121,35.661z M116.702,34.88c-1.022-0.124-2.096-0.253-3.209-0.387l0.139-1.153c1.113,0.134,2.188,0.264,3.21,0.388
		L116.702,34.88z M110.284,34.108c-1.05-0.126-2.123-0.254-3.209-0.383l0.137-1.153c1.087,0.13,2.16,0.257,3.21,0.383
		L110.284,34.108z M56.395,33.95l-0.444-1.072l2.98-1.233l0.444,1.072L56.395,33.95z M103.866,33.346
		c-1.066-0.125-2.139-0.251-3.208-0.376l0.134-1.153c1.071,0.125,2.143,0.251,3.21,0.377L103.866,33.346z M97.447,32.598
		c-1.083-0.125-2.155-0.248-3.21-0.368l0.131-1.154c1.056,0.121,2.129,0.244,3.212,0.369L97.447,32.598z M91.026,31.867
		c-1.106-0.124-2.18-0.242-3.211-0.354l0.125-1.154c1.033,0.112,2.108,0.231,3.215,0.354L91.026,31.867z M62.333,31.699
		l-0.271-1.129c0.996-0.238,2.075-0.451,3.208-0.633l0.184,1.146C64.351,31.261,63.3,31.468,62.333,31.699z M84.603,31.169
		c-1.189-0.124-2.27-0.234-3.212-0.325l0.112-1.156c0.945,0.092,2.028,0.202,3.221,0.327L84.603,31.169z M68.618,30.679
		l-0.112-1.155c1.067-0.104,2.161-0.179,3.251-0.222l0.046,1.16C70.734,30.504,69.663,30.577,68.618,30.679z M78.186,30.562
		c-1.061-0.074-2.134-0.12-3.19-0.137l0.019-1.161c1.077,0.017,2.172,0.063,3.253,0.14L78.186,30.562z"/>
	<path fill="#7C8792" d="M170.35,41.795h-2.19v-0.773h2.108c0.049-0.013,0.083-0.025,0.105-0.036v-0.643
		c0-0.057-0.089-0.097-0.135-0.113h-2.466V31.86h2.5c0.045-0.01,0.078-0.021,0.102-0.03v-0.554
		c-0.014-0.021-0.082-0.053-0.127-0.067h-2.474V18.734h2.5c0.045-0.01,0.078-0.021,0.102-0.029v-0.554
		c-0.012-0.019-0.072-0.051-0.128-0.068h-2.473V9.451h2.496c0.049-0.012,0.083-0.025,0.105-0.035V8.772
		c0-0.056-0.088-0.095-0.136-0.112h-2.465V7.329l0.338-0.043c0,0,1.376-0.174,1.978-0.254c0.141-0.019,0.23-0.043,0.285-0.062V6.753
		c-0.059-0.041-0.203-0.089-0.301-0.104l-7.703-0.678c-0.037-0.002-4.739-0.284-5.645-0.284c-0.503,0-0.596,0.44-0.613,0.597v33.258
		h-0.774V6.25l0.001-0.015c0.034-0.457,0.368-1.322,1.386-1.322c0.93,0,5.508,0.274,5.702,0.286l7.744,0.682
		c0.451,0.062,0.977,0.317,0.977,0.83l-0.001,0.463c-0.018,0.188-0.164,0.521-0.955,0.626c-0.174,0.023-0.412,0.054-0.664,0.086
		h0.808l0.04,0.009c0.267,0.058,0.772,0.314,0.772,0.878l0,0.779c-0.003,0.053-0.051,0.521-0.759,0.666l-0.038,0.008h-1.804v7.083
		h1.785l0.037,0.008c0.375,0.073,0.779,0.365,0.779,0.835l-0.001,0.714c-0.005,0.083-0.068,0.507-0.765,0.637l-0.035,0.007h-1.8
		v10.926h1.785l0.036,0.007c0.376,0.073,0.78,0.366,0.78,0.835l-0.001,0.714c-0.005,0.084-0.068,0.507-0.765,0.638l-0.035,0.006
		h-1.8v6.822h1.789l0.04,0.009c0.267,0.057,0.772,0.313,0.772,0.878l0,0.779c-0.003,0.053-0.051,0.52-0.759,0.665L170.35,41.795z"/>
	<path fill="#7C8792" d="M167.321,44.043l-0.087-0.77l2.839-0.321c0.104-0.016,0.243-0.064,0.3-0.104v-0.217
		c-0.055-0.02-0.145-0.044-0.285-0.062c-0.602-0.08-1.977-0.254-1.978-0.254l-0.338-0.043v-0.863h0.774v0.182
		c0.448,0.057,1.229,0.156,1.645,0.212c0.791,0.105,0.938,0.437,0.955,0.625l0.001,0.035v0.429c0,0.512-0.526,0.767-0.977,0.83
		L167.321,44.043z"/>
	<path fill="#7C8792" d="M167.88,7.938c-0.005-0.005-0.605-0.609-1.722-0.986c-1.192-0.401-4.046-0.996-5.443-1.077l0.044-0.772
		c1.451,0.084,4.411,0.7,5.646,1.116c1.307,0.44,2.003,1.153,2.032,1.183L167.88,7.938z"/>
	<polygon fill="#7C8792" points="168.102,10.023 161.896,8.08 168.385,8.08 168.385,8.467 164.426,8.467 168.217,9.654 	"/>
	
		<rect x="166.558" y="38.951" transform="matrix(0.2982 0.9545 -0.9545 0.2982 155.5548 -131.1212)" fill="#7C8792" width="0.774" height="2.543"/>
	<rect x="166.239" y="41.021" fill="#7C8792" width="2.146" height="0.773"/>
	<path fill="#7C8792" d="M168.159,19.315c-0.435,0-1.656-0.136-2.723-0.303c-2.246-0.352-2.246-0.558-2.246-0.739
		c0-0.205,0-0.514,4.958-0.771l0.02,0.387c-1.737,0.09-3.627,0.253-4.353,0.404c0.894,0.264,3.576,0.635,4.343,0.635V19.315z"/>
	<path fill="#7C8792" d="M168.159,32.418c-0.435,0-1.656-0.136-2.723-0.303c-2.246-0.351-2.246-0.557-2.246-0.739
		c0-0.204,0-0.514,4.958-0.771l0.02,0.387c-1.736,0.09-3.627,0.254-4.353,0.404c0.894,0.264,3.576,0.635,4.343,0.635V32.418z"/>
	<polygon fill="#7C8792" points="174.558,41.938 168.974,41.938 168.974,41.164 173.784,41.164 173.784,8.66 168.159,8.66 
		168.159,7.886 174.558,7.886 	"/>
	<path fill="#7C8792" d="M170.684,31.705l-0.027-0.386c0.073-0.006,7.335-0.517,8.692-0.64c1.183-0.107,1.182-1.102,1.182-1.144
		v-8.754c0-0.517-0.12-0.881-0.355-1.082c-0.251-0.215-0.561-0.174-0.564-0.173l-0.023,0.004l-0.024-0.003l-8.822-0.803l0.035-0.386
		l8.802,0.802c0.108-0.011,0.508-0.026,0.848,0.264c0.326,0.279,0.491,0.742,0.491,1.377v8.751c0,0.011,0.002,1.393-1.533,1.531
		C178.023,31.188,170.757,31.7,170.684,31.705z"/>
	<path fill="#7C8792" d="M147.087,38.907c-0.209-0.057-0.514-0.123-0.9-0.207c-1.729-0.377-5.329-1.161-10.787-3.362
		c-6.203-2.501-13.705-3.626-22.938-3.439c-8.569,0.174-31.251,1.896-31.479,1.913L35.861,37.76h-3.214v-0.774h3.18l45.092-3.945
		c0.233-0.018,22.937-1.741,31.527-1.915c9.339-0.188,16.941,0.954,23.243,3.495c5.397,2.177,8.954,2.951,10.663,3.323
		c0.396,0.087,0.71,0.155,0.937,0.216L147.087,38.907z"/>
	<path fill="#7C8792" d="M107.705,43.74v-0.387c3.077,0,3.389-1.478,3.391-1.492l0.007-0.029c0.02-0.057,1.969-5.715,2.683-8.349
		c0.173-0.638,0.118-1.111-0.163-1.409c-0.614-0.65-2.109-0.345-2.124-0.342l-0.035,0.004c-0.016,0-1.597,0.039-5.713,0.22
		l-0.017-0.387c3.893-0.171,5.522-0.215,5.704-0.22c0.194-0.038,1.739-0.312,2.467,0.459c0.38,0.402,0.466,1,0.256,1.776
		c-0.701,2.586-2.582,8.059-2.686,8.36C111.431,42.148,110.987,43.74,107.705,43.74z"/>
	<path fill="#7C8792" d="M128.842,43.877c-0.109,0-0.59-0.046-0.913-0.822c-0.327-0.787-0.106-1.88-0.097-1.927
		c0.009-0.039,0.82-3.639,1.405-5.915c0.25-0.975,0.624-1.554,1.11-1.72c0.46-0.158,0.83,0.122,0.846,0.134l-0.237,0.306
		l0.118-0.152l-0.117,0.153c-0.009-0.007-0.227-0.166-0.49-0.073c-0.242,0.086-0.588,0.407-0.855,1.449
		c-0.583,2.271-1.394,5.864-1.402,5.9c-0.001,0.007-0.204,1.021,0.076,1.696c0.241,0.58,0.54,0.583,0.55,0.584l0.027,0.386
		C128.861,43.876,128.854,43.877,128.842,43.877z"/>
	<path fill="#7C8792" d="M128.884,43.876v-0.388h19.895c0.08-0.005,2.22-0.151,2.22-2.014c0-1.908-1.244-2.141-2.966-2.463
		c-0.234-0.044-0.476-0.089-0.721-0.14l0.079-0.379c0.243,0.051,0.481,0.095,0.714,0.139c1.761,0.329,3.281,0.613,3.281,2.843
		s-2.57,2.399-2.596,2.4L128.884,43.876z"/>
	
		<rect x="21.111" y="54.965" transform="matrix(0.8419 0.5396 -0.5396 0.8419 34.8677 -8.7096)" fill="#7C8792" width="22.377" height="0.386"/>
	<path fill="#7C8792" d="M175.188,52.863c-1.221-0.001-122.129-0.107-126.719-0.107c-4.492,0-6.232-0.83-6.401-0.917L22.81,44.332
		l0.141-0.361l19.279,7.516l0.01,0.006c0.017,0.009,1.711,0.877,6.23,0.877c4.59,0,125.499,0.105,126.719,0.106L175.188,52.863z"/>
	<path fill="#7C8792" d="M42.244,33.607c-1.254,0-2.465-0.116-2.477-0.117l0.037-0.385c0.012,0.001,1.205,0.114,2.439,0.114
		c0.857,0,9.56-5.127,15.538-8.775l-2.256-0.1l0.017-0.387l3.521,0.156l-0.54,0.33C56.992,25.382,43.521,33.607,42.244,33.607z"/>
	<path fill="#7C8792" d="M48.685,33.169c-0.406,0-0.69-0.157-0.78-0.431c-0.09-0.276-0.05-0.685,0.655-1.062
		c0.383-0.204,11.128-6.241,11.236-6.302c0.146-0.08,3.582-1.936,6.912-2.007c3.264-0.07,44.338-1.732,45.201-1.768
		c0.026-0.004,0.084-0.01,0.158-0.01c0.29,0,0.524,0.102,0.659,0.286c0.162,0.221,0.178,0.543,0.047,0.957
		c-0.357,1.133-1.625,5.133-1.686,5.324c-0.033,0.135-0.348,1.16-2.297,1.403c-1.912,0.239-43.537,2.928-45.308,3.042
		c-0.074,0.005-7.596,0.562-9.602,0.562h-5.108C48.758,33.167,48.727,33.169,48.685,33.169z M112.067,21.978
		c-0.062,0-0.106,0.007-0.107,0.007l-0.024,0.003c-0.419,0.017-41.934,1.697-45.22,1.768c-3.234,0.069-6.698,1.939-6.732,1.959
		c-0.441,0.247-10.855,6.099-11.241,6.305c-0.376,0.201-0.534,0.402-0.47,0.6c0.051,0.156,0.353,0.164,0.412,0.164
		c0.036,0,0.059-0.002,0.062-0.002l0.018-0.001h5.116c1.992,0,9.5-0.557,9.575-0.562c0.436-0.028,43.386-2.802,45.287-3.039
		c1.745-0.218,1.961-1.075,1.969-1.112l0.005-0.018c0,0,1.321-4.17,1.688-5.33c0.09-0.286,0.094-0.498,0.01-0.612
		C112.332,21.994,112.162,21.978,112.067,21.978z"/>
	<path fill="#7C8792" d="M66.639,40.418c-0.116,0-0.385-0.026-0.626-0.241c-0.292-0.26-0.441-0.697-0.441-1.299
		c0-1.439,0.133-3.603,0.135-3.624c0.004-0.061,0.117-1.449,0.838-3.867c0.716-2.402,3.756-11.247,3.787-11.336l0.366,0.126
		c-0.03,0.089-3.067,8.926-3.781,11.32c-0.708,2.374-0.822,3.77-0.823,3.784c-0.001,0.019-0.133,2.17-0.133,3.597
		c0,0.476,0.106,0.822,0.306,1.005c0.18,0.165,0.383,0.148,0.392,0.148l0.02-0.002h15.832c0.025,0,0.654-0.015,0.811-0.66
		c0.193-0.794,3.535-19.763,3.568-19.954l0.381,0.067c-0.138,0.782-3.378,19.173-3.574,19.978c-0.184,0.757-0.857,0.957-1.187,0.957
		H66.684C66.673,40.417,66.658,40.418,66.639,40.418z"/>
	<polygon fill="#7C8792" points="110.077,19.062 109.69,19.062 109.69,16.734 110.538,15.729 110.834,15.979 110.077,16.876 	"/>
	<polygon fill="#7C8792" points="116.749,19.062 116.361,19.062 116.361,16.876 115.604,15.979 115.899,15.729 116.749,16.734 	"/>
	<path fill="#7C8792" d="M115.642,16.241h-4.901c-1.026,0-1.86-0.835-1.86-1.86c0-1.026,0.834-1.86,1.86-1.86h4.901
		c1.026,0,1.86,0.834,1.86,1.86C117.502,15.406,116.667,16.241,115.642,16.241z M110.74,13.294c-0.6,0-1.087,0.487-1.087,1.087
		c0,0.599,0.487,1.086,1.087,1.086h4.901c0.599,0,1.086-0.487,1.086-1.086c0-0.6-0.487-1.087-1.086-1.087H110.74z"/>
	<polygon fill="#7C8792" points="116.86,15.517 116.575,15.255 119.855,11.683 120.708,0 121.094,0.028 120.232,11.846 	"/>
	<path fill="#7C8792" d="M71.538,20.116l-0.353-0.159l0.457-1.009l4.063-2.306h9.069c0.035,0.001,0.728,0.025,1.048,0.452
		c0.273,0.364,0.882,1.476,0.908,1.523l0.014,0.032c0.008,0.025,0.081,0.261,0.081,0.763h-0.387c0-0.373-0.044-0.575-0.059-0.629
		c-0.082-0.149-0.629-1.14-0.867-1.457c-0.172-0.229-0.596-0.293-0.744-0.298h-8.961l-3.865,2.193L71.538,20.116z"/>
	<path fill="#7C8792" d="M88.969,19.413h-0.387v-0.506c-0.001-0.022-0.011-0.694,0.911-1.155c0.828-0.414,2.292-0.834,2.354-0.853
		c0.035-0.01,0.891-0.257,1.589-0.257h26.923l0.012,0.001c0.026,0.003,0.637,0.08,1.097,0.367c0.411,0.258,1.516,0.731,1.527,0.736
		l0.029,0.016c0.021,0.014,0.517,0.343,0.517,0.989v0.308h-0.387v-0.308c0-0.394-0.271-0.614-0.33-0.656
		c-0.152-0.066-1.15-0.499-1.562-0.757c-0.356-0.222-0.85-0.299-0.928-0.31H93.436c-0.643,0-1.473,0.24-1.481,0.242
		c-0.016,0.005-1.494,0.429-2.289,0.827c-0.688,0.344-0.696,0.787-0.697,0.806L88.969,19.413z"/>
	
		<rect x="33.097" y="37.271" transform="matrix(0.9689 0.2473 -0.2473 0.9689 11.0526 -6.974)" fill="#7C8792" width="0.387" height="6.488"/>
	<polygon fill="#7C8792" points="35.119,41.013 33.213,41.013 33.213,40.625 34.962,40.625 36.212,39.411 39.083,39.411 
		39.744,38.104 33.957,38.104 33.957,37.718 40.374,37.718 39.32,39.798 36.369,39.798 	"/>
	<path fill="#7C8792" d="M155.724,23.246h-23.759c-1.714,0-2.493-0.763-2.525-0.795l-2.579-2.873l0.288-0.259l2.572,2.866l0,0
		c0,0,0.704,0.674,2.244,0.674h23.759V23.246z"/>
	<g>
		<polygon fill="#7C8792" points="145.157,52.862 144.805,52.701 145.607,50.949 148.356,50.949 148.996,52.716 148.632,52.848 
			148.084,51.336 145.856,51.336 		"/>
		<polygon fill="#7C8792" points="164.433,52.862 164.081,52.701 164.884,50.949 167.632,50.949 168.272,52.716 167.909,52.848 
			167.361,51.336 165.132,51.336 		"/>
		<path fill="#7C8792" d="M162.62,34.236h-4.116l1.181-2.416h1.709L162.62,34.236z M159.125,33.849h2.866l-0.833-1.642h-1.23
			L159.125,33.849z"/>
		
			<rect x="153.054" y="32.062" transform="matrix(0.8088 0.588 -0.588 0.8088 54.3479 -81.9685)" fill="#7C8792" width="0.387" height="21.09"/>
		
			<rect x="155.078" y="42.413" transform="matrix(0.2565 0.9665 -0.9665 0.2565 163.044 -126.747)" fill="#7C8792" width="17.662" height="0.387"/>
	</g>
	<rect x="176.019" y="21.157" fill="#7C8792" width="9.112" height="0.774"/>
	<rect x="176.019" y="27.79" fill="#7C8792" width="9.112" height="0.774"/>
	<polygon fill="#7C8792" points="178.638,28.557 178.25,28.557 178.25,27.557 177.787,26.913 176.181,26.913 175.596,27.688 
		168.278,27.688 168.278,27.301 175.403,27.301 175.988,26.526 177.985,26.526 178.638,27.432 	"/>
	<polygon fill="#7C8792" points="177.985,29.914 175.988,29.914 175.403,29.14 168.278,29.14 168.278,28.752 175.596,28.752 
		176.181,29.526 177.787,29.526 178.25,28.884 178.25,27.883 178.638,27.883 178.638,29.009 	"/>
	<path fill="#7C8792" d="M27.084,44.069h-8.123v-3.854h8.123V44.069z M19.736,43.295h6.575V40.99h-6.575V43.295z"/>
	<path fill="#7C8792" d="M24.991,62.533c-1.331,0-2.645-0.618-3.599-1.677c-1.182,1.369-2.491,1.674-3.414,1.677
		c-0.004,0-0.009,0-0.013,0c-1.331,0-2.645-0.618-3.599-1.677c-1.183,1.369-2.491,1.674-3.414,1.677c-0.004,0-0.009,0-0.013,0
		c-1.331,0-2.645-0.618-3.6-1.677c-1.182,1.369-2.491,1.674-3.413,1.677C2.441,62.534,0.971,61.769,0,60.475l0.619-0.464
		c0.81,1.079,2.071,1.749,3.295,1.749c0.003,0,0.007,0,0.01,0c1.185-0.004,2.257-0.608,3.101-1.747l0.311,0.23l0.31-0.232
		c0.81,1.079,2.072,1.749,3.294,1.749c0.004,0,0.007,0,0.011,0c1.185-0.004,2.256-0.608,3.1-1.747l0.311,0.23l0.31-0.232
		c0.81,1.079,2.072,1.749,3.295,1.749c0.003,0,0.007,0,0.01,0c1.184-0.004,2.256-0.608,3.1-1.747l0.312,0.23l0.309-0.232
		c0.81,1.079,2.072,1.749,3.295,1.749c0.003,0,0.007,0,0.01,0c1.185-0.004,2.257-0.608,3.101-1.747l0.622,0.461
		c-1.257,1.696-2.717,2.057-3.72,2.06C25,62.533,24.996,62.533,24.991,62.533z"/>
	<path fill="#7C8792" d="M194.267,62.533c-1.331,0-2.645-0.618-3.6-1.677c-1.182,1.369-2.49,1.674-3.413,1.677
		c-0.004,0-0.009,0-0.014,0c-1.331,0-2.644-0.618-3.599-1.677c-1.183,1.369-2.491,1.674-3.414,1.677c-0.004,0-0.009,0-0.013,0
		c-1.484,0-2.946-0.769-3.914-2.059l0.619-0.464c0.811,1.079,2.072,1.749,3.295,1.749c0.004,0,0.007,0,0.011,0
		c1.185-0.004,2.256-0.608,3.1-1.747l0.311,0.23l0.31-0.232c0.81,1.079,2.072,1.749,3.295,1.749c0.003,0,0.007,0,0.01,0
		c1.184-0.004,2.256-0.608,3.1-1.747l0.311,0.23l0.31-0.232c0.81,1.079,2.072,1.749,3.295,1.749c0.003,0,0.007,0,0.01,0
		c1.185-0.004,2.257-0.608,3.101-1.747L198,60.474c-1.257,1.696-2.717,2.057-3.72,2.06
		C194.275,62.533,194.271,62.533,194.267,62.533z"/>
</g>
</svg>
