<?xml version="1.0" encoding="utf-8"?>
<!-- Generator: Adobe Illustrator 16.0.0, SVG Export Plug-In . SVG Version: 6.00 Build 0)  -->
<!DOCTYPE svg PUBLIC "-//W3C//DTD SVG 1.1//EN" "http://www.w3.org/Graphics/SVG/1.1/DTD/svg11.dtd">
<svg version="1.1" id="Layer_1" xmlns="http://www.w3.org/2000/svg" xmlns:xlink="http://www.w3.org/1999/xlink" x="0px" y="0px"
	 width="420px" height="154.436px" viewBox="0 0 420 154.436" enable-background="new 0 0 420 154.436" xml:space="preserve">
<g>
	<path fill="#00B6ED" d="M81.792,154.435c-2.26,0-5.42-0.159-7.638-0.914c-3.472-1.185-6.134-2.527-6.64-2.788h-16.14
		c-0.115-0.003-2.62-0.078-5.91-1.013c-3.043-0.865-7.339-2.663-10.529-6.315c-5.715-6.543-13.214-21.085-14.023-22.67L0,113.5
		v-6.629l377.604,0.001c0.2,0.015,4.95,0.357,9.245,2.406c4.151,1.979,22.096,9.469,22.864,9.79c0.335,0.092,3.092,0.92,3.092,3.329
		v5.055l-0.016,0.051c-0.021,0.078-0.563,1.902-3.359,2.189c-1.643,0.168-6.445,0.308-9.783,0.388l10.349,2.14
		c0.148,0.034,3.401,0.825,3.401,3.405v2.823c0.006,0.193,0.025,2.462-2.465,3.585c-2.312,1.041-24.806,11.197-25.033,11.299
		l-0.037,0.018l-0.039,0.009c-0.045,0.01-4.473,0.974-8.157,0.974H85.001C84.846,154.342,83.523,154.435,81.792,154.435z
		 M67.61,149.96h0.097l0.085,0.045c0.027,0.016,2.829,1.493,6.612,2.784c2.117,0.723,5.187,0.873,7.388,0.873
		c1.804,0,3.15-0.102,3.165-0.103l0.029-0.001h292.68c3.419,0,7.512-0.854,7.953-0.948c1.047-0.473,22.729-10.261,24.995-11.282
		c2.073-0.935,2.011-2.836,2.01-2.854v-0.019v-2.831c0-1.967-2.767-2.645-2.795-2.65l-17.068-3.528l3.46-0.064
		c0.105-0.002,10.609-0.199,13.132-0.458c2.048-0.21,2.588-1.346,2.681-1.588v-4.938c0-1.907-2.515-2.581-2.54-2.587l-0.053-0.019
		c-0.186-0.078-18.685-7.794-22.923-9.814c-4.054-1.935-8.679-2.312-8.953-2.332H0.773v5.306l20.688,7.157l0.069,0.14
		c0.08,0.157,8.034,15.833,13.988,22.65c5.876,6.728,15.769,7.062,15.867,7.063H67.61V149.96z"/>
	<rect x="21.124" y="107.257" fill="#00B6ED" width="0.386" height="13.422"/>
	<path fill="#00B6ED" d="M376.076,107.179c-0.022-0.041-2.246-4.095-3.412-5.973c-1.006-1.622-2.562-2.106-2.784-2.169
		c-1.075-0.074-24.382-1.688-31.939-2.389c-5.628-0.522-11.193-1.596-11.249-1.607l-0.179-0.035l-0.087-0.159
		c-0.023-0.043-2.374-4.381-3.619-7.559c-0.894-2.283-2.698-8.07-0.14-12.511c2.271-3.941,8.32-4.804,8.761-4.862l15.925-3.387
		V54.485c-2.864-0.514-24.307-4.318-36.152-5.292c-12.579-1.034-44.71-2.339-45.435-2.368c-1.413,0.015-91.727,0.984-118.452,2.281
		c-13.97,0.678-25.267,3.26-32.282,5.306c-7.39,2.155-11.695,4.178-11.962,4.304L45.654,92.063l-3.821,15.024l-0.749-0.189
		l3.901-15.34l0.142-0.081l57.583-33.444l0.014-0.006c0.043-0.021,4.439-2.125,12.094-4.356c7.057-2.058,18.416-4.653,32.461-5.335
		c26.815-1.302,117.577-2.271,118.491-2.281h0.009h0.011c0.326,0.013,32.801,1.328,45.476,2.37
		c12.687,1.042,36.308,5.315,36.545,5.358l0.317,0.058v13.317l-16.584,3.526c-0.062,0.007-6.09,0.812-8.205,4.481
		c-2.392,4.149-0.664,9.664,0.188,11.844c1.093,2.788,3.058,6.498,3.492,7.311c0.996,0.187,5.971,1.095,10.994,1.562
		c7.688,0.715,31.715,2.374,31.958,2.392l0.062,0.01c0.081,0.02,2.033,0.499,3.288,2.521c1.178,1.896,3.41,5.967,3.434,6.008
		L376.076,107.179z"/>
	<path fill="#00B6ED" d="M383.62,102.114h-5.324v-0.773h5.244c0.599-0.131,0.732-0.354,0.758-0.411l0.001,0.037l-0.001-0.038
		c0-0.001,0-0.001,0.001-0.003v-1.817c0-0.584-0.649-0.798-0.806-0.841h-5.584V78.831h5.634c0.521-0.104,0.715-0.278,0.756-0.355
		v-1.644c0-0.499-0.651-0.691-0.803-0.729h-5.587V46.579h5.634c0.522-0.104,0.715-0.28,0.756-0.356V44.58
		c0-0.499-0.654-0.692-0.803-0.73h-5.589V23.768h5.632c0.599-0.131,0.732-0.354,0.758-0.412l0.001,0.038l-0.001-0.038
		c0-0.001,0-0.002,0.001-0.003v-1.817c0-0.583-0.646-0.796-0.808-0.841h-5.584v-2.208l0.339-0.043
		c0.033-0.004,3.399-0.43,4.861-0.625c0.858-0.114,1.123-0.316,1.19-0.385v-0.965c0-0.398-0.844-0.654-1.238-0.713l-18.945-1.667
		c-0.105-0.006-11.676-0.7-13.92-0.7c-1.83,0-2.053,1.813-2.07,2V97.14h-0.773V15.358l0.001-0.015
		c0.07-0.943,0.754-2.729,2.843-2.729c2.268,0,13.5,0.674,13.978,0.703l18.984,1.67c0.196,0.027,1.914,0.299,1.914,1.479
		l-0.001,1.089c-0.021,0.236-0.247,0.812-1.858,1.027c-1.189,0.159-3.635,0.47-4.53,0.583v0.754h4.898l0.04,0.009
		c0.503,0.106,1.451,0.582,1.451,1.604l-0.001,1.881c-0.005,0.085-0.087,0.844-1.414,1.117l-0.039,0.008h-4.938v18.534h4.896
		l0.037,0.007c0.061,0.012,1.458,0.298,1.458,1.497l-0.001,1.718c-0.008,0.133-0.117,0.804-1.42,1.049l-0.035,0.006h-4.935v27.976
		h4.896l0.037,0.007c0.06,0.013,1.458,0.297,1.458,1.497l-0.001,1.718c-0.008,0.133-0.117,0.804-1.42,1.048l-0.036,0.007h-4.934
		v17.891h4.898l0.04,0.009c0.502,0.107,1.451,0.581,1.451,1.605l-0.001,1.881c-0.005,0.086-0.087,0.844-1.414,1.116L383.62,102.114z
		"/>
	<path fill="#00B6ED" d="M376.174,107.641l-0.087-0.769l6.976-0.79c0.38-0.054,1.237-0.311,1.237-0.713v-0.965
		c-0.067-0.069-0.332-0.271-1.19-0.385c-1.462-0.195-4.829-0.621-4.861-0.625l-0.338-0.042v-1.625h0.772v0.942
		c0.896,0.113,3.341,0.425,4.53,0.583c1.612,0.216,1.837,0.79,1.858,1.028l0.002,0.035v1.053c0,1.18-1.719,1.453-1.914,1.48
		L376.174,107.641z"/>
	<path fill="#00B6ED" d="M378.018,19.096c-0.015-0.017-1.565-1.594-4.458-2.568c-2.961-0.998-10.051-2.475-13.523-2.675l0.044-0.772
		c3.526,0.204,10.723,1.703,13.726,2.715c3.082,1.038,4.7,2.694,4.769,2.765L378.018,19.096z"/>
	<polygon fill="#00B6ED" points="378.239,24.339 364.752,20.115 378.851,20.115 378.851,20.501 367.279,20.501 378.354,23.97 	"/>
	
		<rect x="374.913" y="95.673" transform="matrix(-0.2991 -0.9542 0.9542 -0.2991 393.2917 486.468)" fill="#00B6ED" width="0.774" height="6.251"/>
	<rect x="373.579" y="101.341" fill="#00B6ED" width="5.271" height="0.773"/>
	<path fill="#00B6ED" d="M378.296,47.159c-1.057,0-4.038-0.332-6.647-0.74c-5.277-0.825-5.277-1.307-5.277-1.538
		c0-0.271,0-0.685,6.042-1.206c2.902-0.25,5.843-0.403,5.873-0.404l0.02,0.386c-5.148,0.266-10.809,0.783-11.512,1.236
		c0.264,0.201,1.572,0.633,5.139,1.181c2.517,0.386,5.371,0.701,6.363,0.701V47.159L378.296,47.159z"/>
	<path fill="#00B6ED" d="M378.296,79.355c-1.057,0-4.038-0.332-6.647-0.74c-5.277-0.826-5.277-1.307-5.277-1.538
		c0-0.271,0-0.685,6.042-1.206c2.902-0.25,5.843-0.404,5.873-0.405l0.02,0.387c-5.148,0.266-10.809,0.783-11.512,1.234
		c0.264,0.202,1.572,0.634,5.139,1.182c2.516,0.386,5.371,0.701,6.363,0.701V79.355L378.296,79.355z"/>
	<polygon fill="#00B6ED" points="393.455,102.465 380.298,102.465 380.298,101.692 392.682,101.692 392.682,20.695 378.296,20.695 
		378.296,19.922 393.455,19.922 	"/>
	<path fill="#00B6ED" d="M384.48,77.603l-0.026-0.387c0.18-0.013,18.026-1.268,21.365-1.57c3.154-0.287,3.16-2.981,3.159-3.097
		V51.046c0-1.353-0.325-2.317-0.968-2.871c-0.719-0.618-1.608-0.493-1.617-0.491l-0.023,0.003l-0.022-0.002L384.67,45.71
		l0.035-0.385l21.654,1.973c0.17-0.021,1.105-0.098,1.898,0.581c0.734,0.628,1.106,1.695,1.106,3.168v21.501
		c0.017,1.092-0.696,3.229-3.51,3.484C402.512,76.334,384.661,77.59,384.48,77.603z"/>
	<path fill="#00B6ED" d="M326.665,95.036c-0.527-0.142-1.283-0.307-2.239-0.515c-4.235-0.922-13.048-2.842-26.415-8.232
		c-15.313-6.174-33.822-8.953-56.584-8.493c-21.071,0.427-76.822,4.66-77.382,4.702l-110.855,9.7h-7.871v-0.773h7.837l110.824-9.695
		c0.565-0.043,56.337-4.278,77.431-4.705c22.868-0.462,41.478,2.334,56.889,8.549c13.306,5.365,22.076,7.275,26.29,8.194
		c0.968,0.21,1.73,0.377,2.277,0.523L326.665,95.036z"/>
	<path fill="#00B6ED" d="M229.75,107.176v-0.387c2.27,0,5.377-0.34,7.293-1.96c1.134-0.958,1.313-1.929,1.315-1.938l0.009-0.03
		c0.048-0.14,4.842-14.051,6.597-20.532c0.452-1.668,0.294-2.923-0.468-3.729c-1.617-1.712-5.445-0.932-5.483-0.923l-0.035,0.004
		c-0.038,0.001-3.924,0.096-14.042,0.541l-0.017-0.387c9.777-0.429,13.74-0.532,14.033-0.54c0.329-0.066,4.104-0.784,5.825,1.04
		c0.86,0.911,1.05,2.29,0.561,4.098c-1.734,6.403-6.425,20.036-6.601,20.543c-0.028,0.148-0.263,1.14-1.416,2.127
		C235.714,106.478,233.166,107.176,229.75,107.176z"/>
	<path fill="#00B6ED" d="M281.675,107.511c-0.22,0-1.242-0.099-1.969-1.848c-0.771-1.854-0.245-4.458-0.223-4.567
		c0.021-0.093,2.015-8.933,3.45-14.521c0.59-2.297,1.446-3.654,2.545-4.03c0.989-0.34,1.781,0.26,1.814,0.285l-0.236,0.307
		c-0.027-0.021-0.667-0.498-1.458-0.225c-0.952,0.33-1.744,1.63-2.291,3.759c-1.435,5.584-3.427,14.418-3.447,14.508
		c-0.004,0.021-0.521,2.596,0.201,4.338c0.686,1.646,1.585,1.609,1.623,1.607l0.031,0.385
		C281.712,107.51,281.698,107.511,281.675,107.511z"/>
	<path fill="#00B6ED" d="M281.79,107.508v-0.387h48.886c0.003,0,1.459-0.091,2.89-0.788c1.889-0.92,2.847-2.415,2.847-4.441
		c0-4.925-3.153-5.515-7.518-6.329c-0.572-0.107-1.166-0.218-1.768-0.343l0.079-0.379c0.598,0.124,1.188,0.234,1.76,0.342
		c2.2,0.411,4.1,0.766,5.515,1.681c1.582,1.022,2.318,2.62,2.318,5.028c0,5.214-6.051,5.612-6.112,5.616H281.79z"/>
	
		<rect x="16.968" y="135.315" transform="matrix(-0.8419 -0.5396 0.5396 -0.8419 8.769 273.587)" fill="#00B6ED" width="54.983" height="0.387"/>
	<path fill="#00B6ED" d="M395.568,129.592c-2.999-0.002-300.093-0.263-311.371-0.263c-11.154,0-15.327-2.078-15.614-2.229
		l-47.335-18.452l0.14-0.36l47.357,18.46l0.01,0.005c0.041,0.022,4.233,2.188,15.442,2.188c11.278,0,308.373,0.26,311.372,0.263
		L395.568,129.592z"/>
	<path fill="#00B6ED" d="M68.9,82.276c-3.067,0-6.028-0.282-6.06-0.285l0.038-0.385c0.029,0.003,2.974,0.283,6.021,0.283
		c0.858,0,5.188-1.942,20.939-11.196c8.13-4.776,16.068-9.605,18.174-10.891l-6.467-0.286l0.017-0.387l7.731,0.343l-0.539,0.33
		C107.256,60.721,72.012,82.276,68.9,82.276z"/>
	<path fill="#00B6ED" d="M84.725,81.2c-0.411,0-1.394-0.084-1.647-0.865c-0.274-0.837,0.222-1.601,1.475-2.271
		c0.941-0.503,27.347-15.337,27.614-15.487c0.088-0.048,8.736-4.721,16.853-4.895c8.043-0.174,109.486-4.279,111.089-4.345
		c0.043-0.007,0.18-0.024,0.361-0.024c0.438,0,1.036,0.102,1.392,0.588c0.343,0.466,0.367,1.173,0.074,2.101
		c-0.878,2.783-4.032,12.736-4.144,13.089c-0.048,0.215-0.698,2.658-5.407,3.247c-4.69,0.586-110.247,7.403-111.313,7.473
		c-0.184,0.014-18.655,1.383-23.574,1.383H84.93C84.904,81.195,84.83,81.2,84.725,81.2z M240.467,53.7
		c-0.18,0-0.308,0.021-0.309,0.021l-0.025,0.003c-1.03,0.042-103.038,4.17-111.108,4.344c-8.021,0.172-16.588,4.8-16.673,4.847
		c-0.265,0.149-26.674,14.985-27.619,15.49c-1.062,0.568-1.496,1.177-1.29,1.81c0.178,0.54,0.956,0.599,1.282,0.599
		c0.108,0,0.178-0.006,0.179-0.006l0.019-0.001h12.572c4.904,0,23.362-1.368,23.549-1.383c1.066-0.068,106.612-6.885,111.292-7.469
		c4.521-0.564,5.073-2.928,5.079-2.952l0.005-0.02c0.033-0.104,3.257-10.278,4.146-13.098c0.253-0.805,0.248-1.396-0.018-1.757
		C241.287,53.774,240.816,53.7,240.467,53.7z"/>
	<path fill="#00B6ED" d="M128.833,99.013c-0.246,0-0.82-0.057-1.342-0.521c-0.656-0.584-0.989-1.587-0.989-2.98
		c0-3.528,0.326-8.835,0.33-8.89c0.003-0.037,0.285-3.525,2.048-9.439c1.757-5.896,9.225-27.624,9.3-27.844l0.366,0.126
		c-0.075,0.22-7.54,21.939-9.295,27.828c-1.75,5.869-2.03,9.322-2.033,9.356c-0.003,0.05-0.329,5.345-0.329,8.862
		c0,1.277,0.289,2.185,0.859,2.691c0.545,0.485,1.156,0.421,1.163,0.42l0.021-0.001h38.901c0.074,0,1.828-0.029,2.268-1.84
		c0.477-1.958,8.689-48.577,8.772-49.047l0.38,0.067c-0.338,1.923-8.298,47.103-8.777,49.07c-0.512,2.111-2.622,2.135-2.643,2.135
		h-38.893C128.922,99.011,128.885,99.013,128.833,99.013z"/>
	<polygon fill="#00B6ED" points="235.295,46.818 234.908,46.818 234.908,41.202 236.927,38.811 237.222,39.06 235.295,41.344 	"/>
	<polygon fill="#00B6ED" points="251.688,46.818 251.302,46.818 251.302,41.344 249.374,39.06 249.669,38.811 251.688,41.201 	"/>
	<path fill="#00B6ED" d="M249.251,39.322h-12.045c-2.209,0-4.006-1.797-4.006-4.006c0-2.21,1.797-4.007,4.006-4.007h12.045
		c2.209,0,4.006,1.797,4.006,4.007C253.258,37.525,251.46,39.322,249.251,39.322z M237.206,32.082c-1.783,0-3.233,1.451-3.233,3.234
		c0,1.782,1.451,3.232,3.233,3.232h12.045c1.783,0,3.232-1.45,3.232-3.232c0-1.784-1.449-3.234-3.232-3.234H237.206z"/>
	<polygon fill="#00B6ED" points="252.038,37.917 251.753,37.656 259.88,28.805 261.981,0 262.367,0.028 260.256,28.969 	"/>
	<path fill="#00B6ED" d="M140.622,49.293l-0.353-0.159l1.084-2.394l0.056-0.031l9.785-5.554h22.21
		c0.072,0.002,1.644,0.058,2.35,0.999c0.659,0.879,2.146,3.594,2.208,3.709l0.014,0.032c0.007,0.022,0.187,0.575,0.187,1.786h-0.388
		c0-1.032-0.135-1.558-0.162-1.65c-0.131-0.239-1.554-2.824-2.169-3.645c-0.594-0.792-2.03-0.845-2.045-0.846h-22.103l-9.643,5.474
		L140.622,49.293z"/>
	<path fill="#00B6ED" d="M183.428,47.68h-0.387v-1.242c-0.001-0.057-0.024-1.534,2.081-2.586c2.011-1.005,5.699-2.065,5.736-2.076
		c0.086-0.025,2.151-0.622,3.827-0.622h66.138l0.013,0.001c0.061,0.007,1.503,0.188,2.581,0.862
		c1.028,0.643,3.764,1.816,3.792,1.829l0.028,0.016c0.046,0.03,1.142,0.758,1.142,2.193v0.755h-0.388v-0.755
		c0-1.153-0.842-1.783-0.952-1.861c-0.258-0.11-2.806-1.211-3.827-1.85c-0.956-0.599-2.277-0.787-2.411-0.806h-66.114
		c-1.621,0-3.699,0.602-3.72,0.607c-0.038,0.011-3.693,1.061-5.672,2.05c-1.87,0.935-1.868,2.183-1.867,2.235V47.68L183.428,47.68z"
		/>
	
		<rect x="46.704" y="91.564" transform="matrix(-0.9688 -0.2479 0.2479 -0.9688 67.6569 207.5904)" fill="#00B6ED" width="0.386" height="15.943"/>
	<polygon fill="#00B6ED" points="51.277,100.473 46.708,100.473 46.708,100.086 51.121,100.086 54.192,97.103 61.305,97.103 
		63.215,93.328 48.535,93.328 48.535,92.941 63.844,92.941 61.542,97.489 54.349,97.489 	"/>
	<path fill="#00B6ED" d="M347.74,56.817h-58.38c-4.096,0-5.93-1.794-6.005-1.87l-6.327-7.049l0.288-0.258l6.32,7.042
		c0.603,0.6,2.585,1.749,5.725,1.749h58.381v0.386H347.74z"/>
	<g>
		<polygon fill="#00B6ED" points="321.519,107.094 321.167,106.933 323.063,102.793 329.438,102.793 330.943,106.948 
			330.581,107.079 329.167,103.178 323.312,103.178 		"/>
		<polygon fill="#00B6ED" points="368.885,107.094 368.534,106.933 370.43,102.793 376.804,102.793 378.31,106.948 377.946,107.079 
			376.533,103.178 370.678,103.178 		"/>
		<path fill="#00B6ED" d="M364.226,61.16h-9.202l2.627-5.372h3.852L364.226,61.16z M355.644,60.774h7.953l-2.332-4.6h-3.372
			L355.644,60.774z"/>
		
			<rect x="341.459" y="56.101" transform="matrix(-0.8084 -0.5886 0.5886 -0.8084 569.5736 349.4146)" fill="#00B6ED" width="0.387" height="51.821"/>
		
			<rect x="346.157" y="81.802" transform="matrix(-0.2565 -0.9665 0.9665 -0.2565 382.9674 458.5766)" fill="#00B6ED" width="43.399" height="0.386"/>
	</g>
	<rect x="397.609" y="52.532" fill="#00B6ED" width="22.392" height="0.773"/>
	<rect x="397.609" y="68.83" fill="#00B6ED" width="22.392" height="0.773"/>
	<polygon fill="#00B6ED" points="403.762,70.149 403.375,70.149 403.375,67.6 402.098,65.828 397.866,65.828 396.428,67.731 
		378.59,67.731 378.59,67.345 396.235,67.345 397.674,65.441 402.295,65.441 403.762,67.476 	"/>
	<polygon fill="#00B6ED" points="402.295,73.202 397.674,73.202 396.235,71.298 378.59,71.298 378.59,70.912 396.428,70.912 
		397.866,72.815 402.098,72.815 403.375,71.042 403.375,68.494 403.762,68.494 403.762,71.167 	"/>
	<path fill="#00B6ED" d="M31.084,107.701h-18.83v-8.338h18.83V107.701z M13.027,106.928h17.284v-6.792H13.027V106.928z"/>
</g>
</svg>
