<?xml version="1.0" encoding="utf-8"?>
<!-- Generator: Adobe Illustrator 16.0.0, SVG Export Plug-In . SVG Version: 6.00 Build 0)  -->
<!DOCTYPE svg PUBLIC "-//W3C//DTD SVG 1.1//EN" "http://www.w3.org/Graphics/SVG/1.1/DTD/svg11.dtd">
<svg version="1.1" id="Layer_1" xmlns="http://www.w3.org/2000/svg" xmlns:xlink="http://www.w3.org/1999/xlink" x="0px" y="0px"
	 width="100px" height="100.086px" viewBox="0 0 100 100.086" enable-background="new 0 0 100 100.086" xml:space="preserve">
<g>
	<path fill="#FFFFFF" d="M50,73.841c-13.146,0-23.841-10.695-23.841-23.841S36.854,26.159,50,26.159
		c13.146,0,23.842,10.695,23.842,23.841S63.146,73.841,50,73.841z M50,27.497c-12.408,0-22.502,10.094-22.502,22.503
		S37.592,72.503,50,72.503c12.408,0,22.503-10.094,22.503-22.503S62.408,27.497,50,27.497z"/>
	<rect x="49.331" fill="#FFFFFF" width="1.34" height="18.804"/>
	<rect x="49.331" y="81.196" fill="#FFFFFF" width="1.34" height="18.804"/>
	<rect x="81.197" y="49.33" fill="#FFFFFF" width="18.803" height="1.34"/>
	<rect y="49.33" fill="#FFFFFF" width="18.803" height="1.34"/>
	
		<rect x="78.037" y="11.892" transform="matrix(0.7069 0.7073 -0.7073 0.7069 38.1274 -49.4282)" fill="#FFFFFF" width="1.339" height="18.803"/>
	
		<rect x="20.623" y="69.306" transform="matrix(0.7071 0.7071 -0.7071 0.7071 61.8909 7.9966)" fill="#FFFFFF" width="1.339" height="18.803"/>
	
		<rect x="69.306" y="78.037" transform="matrix(0.7071 0.7071 -0.7071 0.7071 78.7052 -32.6015)" fill="#FFFFFF" width="18.802" height="1.34"/>
	
		<rect x="11.891" y="20.623" transform="matrix(0.7071 0.7071 -0.7071 0.7071 21.2934 -8.8197)" fill="#FFFFFF" width="18.804" height="1.339"/>
</g>
</svg>
