<?xml version="1.0" encoding="utf-8"?>
<!-- Generator: Adobe Illustrator 16.0.0, SVG Export Plug-In . SVG Version: 6.00 Build 0)  -->
<!DOCTYPE svg PUBLIC "-//W3C//DTD SVG 1.1//EN" "http://www.w3.org/Graphics/SVG/1.1/DTD/svg11.dtd">
<svg version="1.1" id="Layer_1" xmlns="http://www.w3.org/2000/svg" xmlns:xlink="http://www.w3.org/1999/xlink" x="0px" y="0px"
	 width="85.39px" height="85.853px" viewBox="0 0 85.39 85.853" enable-background="new 0 0 85.39 85.853" xml:space="preserve">
<g>
	<path fill="#FFFFFF" d="M42.696,86.454c-11.408,0-22.128-4.441-30.19-12.506C4.44,65.885,0,55.164,0,43.759
		c0-8.191,2.325-16.148,6.725-23.014c4.284-6.683,10.321-12.032,17.458-15.471c5.8-2.794,12.027-4.211,18.513-4.211
		c11.404,0,22.125,4.441,30.19,12.505c8.062,8.064,12.504,18.787,12.504,30.191s-4.442,22.126-12.504,30.19
		C64.821,82.013,54.1,86.454,42.696,86.454z M42.696,2.919c-6.206,0-12.159,1.355-17.706,4.026
		c-6.827,3.29-12.602,8.409-16.704,14.802c-4.208,6.564-6.431,14.176-6.431,22.011c0,10.908,4.246,21.165,11.962,28.878
		c7.713,7.712,17.971,11.961,28.878,11.961c10.906,0,21.164-4.249,28.879-11.961c7.71-7.713,11.96-17.97,11.96-28.878
		c0-10.909-4.25-21.165-11.96-28.878C63.859,7.167,53.602,2.919,42.696,2.919z"/>
	<path fill="#FFFFFF" d="M42.696,59.45c-8.654,0-15.699-7.039-15.699-15.691s7.045-15.692,15.699-15.692
		c8.656,0,15.692,7.04,15.692,15.692S51.352,59.45,42.696,59.45z M42.696,29.923c-7.63,0-13.838,6.208-13.838,13.835
		c0,7.629,6.208,13.834,13.838,13.834c7.629,0,13.837-6.205,13.837-13.834C56.533,36.131,50.325,29.923,42.696,29.923z"/>
	<rect x="7.959" y="27.561" fill="#FFFFFF" width="68.144" height="0.927"/>
	<path fill="#FFFFFF" d="M48.615,80.87l-0.904-0.197l4.883-22.455c0.031-0.134,0.775-2.917,3.015-4.937
		c1.992-1.793,4.819-2.407,4.938-2.432l20.771-3.61l0.156,0.915L60.72,51.761c-0.011,0.001-2.688,0.586-4.488,2.21
		c-1.977,1.779-2.692,4.299-2.734,4.455L48.615,80.87z"/>
	<path fill="#FFFFFF" d="M37.488,80.877l-5.327-22.895c-0.008-0.015-0.706-2.624-2.737-4.451c-1.754-1.58-4.319-2.173-4.496-2.212
		L5.344,48.154l0.152-0.917l19.616,3.17c0.12,0.026,2.943,0.639,4.936,2.433c2.242,2.02,2.987,4.802,3.014,4.919l5.333,22.906
		L37.488,80.877z"/>
</g>
</svg>
