<?xml version="1.0" encoding="utf-8"?>
<!-- Generator: Adobe Illustrator 16.0.0, SVG Export Plug-In . SVG Version: 6.00 Build 0)  -->
<!DOCTYPE svg PUBLIC "-//W3C//DTD SVG 1.1//EN" "http://www.w3.org/Graphics/SVG/1.1/DTD/svg11.dtd">
<svg version="1.1" id="Layer_1" xmlns="http://www.w3.org/2000/svg" xmlns:xlink="http://www.w3.org/1999/xlink" x="0px" y="0px"
	 width="96.1px" height="86.454px" viewBox="0 0 96.1 86.454" enable-background="new 0 0 96.1 86.454" xml:space="preserve">
<g>
	<path fill="#FFFFFF" d="M37.646,39.617c-3.952-6.424-5.041-21.695-4.535-29.995l0.929,0.056c-0.206,3.4-0.175,9.187,0.546,15.229
		c0.538,4.507,1.64,10.633,3.848,14.223L37.646,39.617z"/>
	<path fill="#FFFFFF" d="M87.823,67.697c-6.719-4.616-20.021-11.399-27.387-11.399c-0.042,0-0.083,0-0.122,0.001l-0.01-0.929
		c0.042,0,0.084-0.001,0.13-0.001c7.558,0,21.1,6.88,27.912,11.562L87.823,67.697z"/>
	<path fill="#FFFFFF" d="M14.408,85.853l-0.421-0.826c7.287-3.746,19.669-12.314,23.083-18.81l0.825,0.432
		C34.385,73.322,21.806,82.054,14.408,85.853z"/>
	<path fill="#FFFFFF" d="M44.648,64.858c-6.037,0-10.946-4.91-10.946-10.944s4.91-10.944,10.946-10.944
		c6.034,0,10.944,4.91,10.944,10.944S50.683,64.858,44.648,64.858z M44.648,44.826c-5.012,0-9.091,4.076-9.091,9.087
		c0,5.012,4.079,9.088,9.091,9.088c5.009,0,9.088-4.077,9.088-9.088C53.737,48.902,49.658,44.826,44.648,44.826z"/>
	<polygon fill="#FFFFFF" points="45.667,43.759 43.808,43.759 43.808,1.856 36.579,1.856 35.529,5.9 33.73,5.431 34.967,0.695 
		35.864,0 44.735,0 45.667,0.929 	"/>
	<polygon fill="#FFFFFF" points="90.283,82.012 53.504,60.066 54.456,58.472 90.438,79.941 94.141,73.736 91.21,70.761 
		92.531,69.457 95.965,72.942 96.1,74.07 91.556,81.691 	"/>
	<polygon fill="#FFFFFF" points="5.4,89.016 4.354,88.573 0,80.84 0.358,79.575 37.687,58.577 38.6,60.195 2.077,80.738 
		5.619,87.039 9.66,85.971 10.133,87.767 	"/>
</g>
</svg>
