<?xml version="1.0" encoding="utf-8"?>
<!-- Generator: Adobe Illustrator 16.0.0, SVG Export Plug-In . SVG Version: 6.00 Build 0)  -->
<!DOCTYPE svg PUBLIC "-//W3C//DTD SVG 1.1//EN" "http://www.w3.org/Graphics/SVG/1.1/DTD/svg11.dtd">
<svg version="1.1" id="Layer_1" xmlns="http://www.w3.org/2000/svg" xmlns:xlink="http://www.w3.org/1999/xlink" x="0px" y="0px"
	 width="82.165px" height="93.602px" viewBox="0 0 82.165 93.602" enable-background="new 0 0 82.165 93.602" xml:space="preserve">
<path fill="#FFFFFF" d="M82.165,48.94l-0.673-1.159L63.608,58.156l-12.54-7.324c0.778-1.513,1.226-3.224,1.226-5.04
	c0-1.773-0.429-3.446-1.174-4.933l12.92-7.545l17.068,9.63l0.658-1.167l-16.387-9.246l16.601-9.694l-0.676-1.156l-16.649,9.723
	V10.255h-1.339v21.931l-12.86,7.511c-1.866-2.817-4.986-4.722-8.558-4.938V19.855l17.784-10.47l-0.68-1.154L41.897,18.301V0h-1.339
	v18.549L23.45,8.565l-0.676,1.156L40.558,20.1v14.66c-3.571,0.215-6.691,2.122-8.557,4.938l-12.859-7.51V12.26h-1.339v19.145
	L1.152,21.682l-0.675,1.156l16.922,9.882L0.75,42.378l0.672,1.159l17.308-10.04l12.607,7.363c-0.745,1.487-1.175,3.158-1.175,4.932
	c0,1.815,0.448,3.526,1.227,5.04l-12.854,7.505L0.658,48.25L0,49.417l17.198,9.702L0.477,68.884l0.675,1.156l16.651-9.725v18.894
	h1.339V59.533l12.923-7.546c1.872,2.762,4.964,4.624,8.493,4.837v14.904L22.905,82.121l0.68,1.153l16.973-9.992v20.32h1.339V73.034
	l15.022,8.765l0.675-1.156l-15.697-9.159V56.824c3.53-0.213,6.621-2.074,8.495-4.837l12.923,7.548v18.17h1.339V60.317l16.649,9.723
	l0.676-1.156l-17.041-9.951L82.165,48.94z M41.897,55.485c-0.222,0.015-0.443,0.034-0.669,0.034c-0.227,0-0.447-0.019-0.67-0.034
	c-3.037-0.209-5.695-1.81-7.332-4.176c-0.252-0.367-0.477-0.753-0.679-1.154c-0.664-1.315-1.045-2.793-1.045-4.363
	c0-1.528,0.363-2.968,0.993-4.256c0.198-0.403,0.413-0.795,0.661-1.165c1.631-2.42,4.323-4.061,7.402-4.272
	c0.223-0.016,0.444-0.034,0.67-0.034c0.226,0,0.447,0.018,0.669,0.034c3.079,0.21,5.772,1.852,7.402,4.272
	c0.249,0.37,0.465,0.762,0.661,1.165c0.63,1.287,0.995,2.728,0.995,4.256c0,1.57-0.382,3.049-1.045,4.364
	c-0.202,0.4-0.425,0.787-0.68,1.153C47.593,53.676,44.936,55.277,41.897,55.485z"/>
</svg>
