<?xml version="1.0" encoding="utf-8"?>
<!-- Generator: Adobe Illustrator 16.0.0, SVG Export Plug-In . SVG Version: 6.00 Build 0)  -->
<!DOCTYPE svg PUBLIC "-//W3C//DTD SVG 1.1//EN" "http://www.w3.org/Graphics/SVG/1.1/DTD/svg11.dtd">
<svg version="1.1" xmlns="http://www.w3.org/2000/svg" xmlns:xlink="http://www.w3.org/1999/xlink" x="0px" y="0px" width="1920px"
	 height="1012px" viewBox="-793.662 1485.281 1920 1012" enable-background="new -793.662 1485.281 1920 1012" xml:space="preserve"
	>
<g id="Layer_1">
</g>
<g id="Layer_2">
	<g>
		<g>
			<path fill="#B1BCC9" d="M540.84,2088.413c-5.217,0-9.204-0.279-9.671-0.313h-882.055c-11.108,0-24.453-2.905-24.585-2.935
				l-0.119-0.028l-0.109-0.05c-0.684-0.309-68.484-30.917-75.447-34.053c-7.505-3.384-7.45-10.227-7.429-10.806v-8.51
				c0-7.776,9.804-10.162,10.221-10.257l31.219-6.455c-10.061-0.242-24.539-0.664-29.485-1.171
				c-8.427-0.866-10.062-6.365-10.129-6.599l-0.042-0.154v-15.234c0-7.259,8.31-9.756,9.318-10.033
				c2.313-0.967,56.397-23.538,68.908-29.506c12.943-6.174,27.26-7.209,27.864-7.252l0.078-0.001H787.352v19.981l-63.026,21.805
				c-2.442,4.779-25.044,48.605-42.267,68.326c-5.307,6.076-15.12,14.31-31.735,19.033c-9.912,2.818-17.463,3.045-17.78,3.054
				h-48.676c-1.523,0.787-9.546,4.833-20.009,8.4C557.174,2087.938,547.651,2088.413,540.84,2088.413z M-374.855,2082.916
				c1.327,0.284,13.665,2.855,23.969,2.855h882.143l0.044,0.005c0.041,0.002,4.103,0.31,9.539,0.31
				c6.635,0,15.885-0.457,22.265-2.632c11.407-3.89,19.847-8.346,19.931-8.389l0.256-0.137h49.223
				c0.269-0.008,30.1-1.039,47.79-21.292c17.947-20.547,41.918-67.79,42.156-68.263l0.214-0.422l62.348-21.569v-15.993h-1135.6
				c-0.823,0.063-14.764,1.2-26.984,7.029c-12.771,6.092-68.524,29.349-69.086,29.58l-0.16,0.054
				c-0.074,0.02-7.654,2.05-7.654,7.798v14.886c0.271,0.711,1.889,4.149,8.079,4.784c7.6,0.779,39.259,1.377,39.579,1.383
				l10.427,0.194l-51.475,10.642c-0.054,0.013-8.393,2.055-8.393,7.982l-0.001,8.585c-0.007,0.231-0.137,5.812,6.06,8.605
				C-443.361,2051.989-378.01,2081.49-374.855,2082.916z"/>
			<rect x="722.521" y="1946.227" fill="#B1BCC9" width="1.165" height="40.451"/>
			<path fill="#B1BCC9" d="M-346.094,1945.992l-2.043-1.121c0.066-0.123,6.799-12.394,10.345-18.107
				c3.782-6.093,9.665-7.538,9.913-7.595l0.188-0.029c0.729-0.05,73.146-5.054,96.315-7.204c15.14-1.407,30.132-4.145,33.136-4.708
				c1.311-2.446,7.231-13.628,10.523-22.032c2.571-6.566,7.777-23.188,0.571-35.692c-6.38-11.075-24.544-13.488-24.728-13.511
				l-0.095-0.017l-49.887-10.609v-40.138l0.958-0.173c0.716-0.131,71.912-13.008,110.144-16.149
				c38.198-3.138,136.074-7.105,137.057-7.146h0.031h0.03c2.754,0.03,276.297,2.957,357.115,6.88
				c42.332,2.055,76.569,9.881,97.836,16.082c23.068,6.728,36.319,13.065,36.45,13.129l0.079,0.04l173.934,101.021l11.759,46.236
				l-2.259,0.573l-11.517-45.285l-173.044-100.503c-0.799-0.38-13.824-6.495-36.119-12.991
				c-21.134-6.158-55.158-13.93-97.231-15.973c-80.546-3.908-352.739-6.828-356.998-6.875c-2.181,0.088-99.019,4.022-136.929,7.139
				c-35.703,2.933-100.33,14.398-108.96,15.945v36.303l47.996,10.208c1.326,0.175,19.56,2.774,26.404,14.652
				c7.711,13.382,2.274,30.825-0.422,37.706c-3.752,9.578-10.834,22.648-10.906,22.779l-0.262,0.482l-0.539,0.106
				c-0.168,0.03-16.941,3.266-33.904,4.84c-22.777,2.116-93.04,6.98-96.263,7.202c-0.659,0.186-5.354,1.644-8.39,6.537
				C-339.325,1933.655-346.028,1945.869-346.094,1945.992z"/>
			<path fill="#B1BCC9" d="M-352.785,1930.727h-16.045l-0.117-0.024c-3.997-0.821-4.247-3.105-4.261-3.362l-0.001-0.071v-5.6
				c0-3.086,2.859-4.515,4.373-4.838l0.12-0.025h14.766v-53.922h-14.87l-0.106-0.02c-3.927-0.735-4.255-2.76-4.282-3.156
				l-0.001-0.075v-5.103c0-3.613,4.214-4.476,4.396-4.51l0.111-0.023h14.752v-84.315h-14.87l-0.106-0.021
				c-3.925-0.734-4.253-2.758-4.28-3.156l-0.002-0.076v-5.102c0-3.614,4.215-4.479,4.395-4.512l0.111-0.021h14.752v-55.862h-14.881
				l-0.116-0.024c-3.997-0.82-4.246-3.106-4.261-3.363l-0.001-0.068v-5.602c0-3.087,2.859-4.516,4.373-4.84l0.121-0.024h14.767
				v-2.272c-2.7-0.344-10.068-1.276-13.652-1.756c-4.86-0.648-5.537-2.384-5.603-3.1l-0.005-0.106v-3.174
				c0-3.555,5.177-4.376,5.769-4.459l0.057-0.006l57.127-5.024c1.473-0.09,35.328-2.121,42.159-2.121
				c6.295,0,8.357,5.377,8.569,8.222l0.003,0.087v246.438h-2.33v-246.391c-0.054-0.543-0.72-6.028-6.242-6.028
				c-6.763,0-41.633,2.094-41.985,2.114l-57.064,5.021c-1.188,0.175-3.731,0.945-3.731,2.146v2.909
				c0.201,0.207,0.999,0.815,3.584,1.159c4.409,0.59,14.552,1.872,14.656,1.884l1.02,0.129v6.656h-16.831
				c-0.478,0.13-2.429,0.771-2.429,2.532v5.479c0.065,0.16,0.453,0.851,2.288,1.252h16.972v60.519h-16.841
				c-0.451,0.114-2.418,0.697-2.418,2.204v4.95c0.125,0.232,0.703,0.763,2.278,1.076h16.981v88.975h-16.842
				c-0.45,0.114-2.417,0.694-2.417,2.203v4.95c0.125,0.231,0.703,0.761,2.278,1.075h16.981v58.58h-16.83
				c-0.479,0.131-2.43,0.771-2.43,2.534v5.479c0.065,0.159,0.453,0.849,2.288,1.249h15.807v2.331H-352.785z"/>
			<path fill="#B1BCC9" d="M-346.388,1947.384l-21.025-2.383c-0.62-0.084-5.796-0.904-5.796-4.463l0.004-3.279
				c0.064-0.718,0.743-2.451,5.602-3.098c3.586-0.479,10.955-1.416,13.652-1.758v-2.842h2.331v4.894l-1.02,0.129
				c-0.102,0.015-10.247,1.296-14.655,1.886c-2.586,0.344-3.382,0.951-3.584,1.159v2.908c0,1.211,2.582,1.985,3.759,2.153
				l20.993,2.376L-346.388,1947.384z"/>
			<path fill="#B1BCC9" d="M-351.947,1680.519l-1.678-1.616c0.205-0.21,5.082-5.2,14.369-8.33c9.053-3.051,30.74-7.565,41.369-8.182
				l0.136,2.326c-10.468,0.607-31.836,5.057-40.761,8.065C-347.266,1675.732-351.901,1680.471-351.947,1680.519z"/>
			<polygon fill="#B1BCC9" points="-352.613,1696.323 -352.961,1695.211 -319.582,1684.758 -354.458,1684.758 -354.458,1683.592 
				-311.966,1683.592 			"/>
			
				<rect x="-353.201" y="1919.605" transform="matrix(-0.9543 -0.2987 0.2987 -0.9543 -1245.634 3651.1494)" fill="#B1BCC9" width="18.837" height="2.331"/>
			<rect x="-354.456" y="1928.396" fill="#B1BCC9" width="15.888" height="2.331"/>
			<path fill="#B1BCC9" d="M-352.785,1765.098v-1.165c2.99,0,11.593-0.946,19.178-2.112c10.748-1.651,14.691-2.95,15.488-3.558
				c-2.118-1.363-19.18-2.92-34.696-3.725l0.061-1.162c0.089,0.004,8.951,0.466,17.7,1.221c18.211,1.572,18.211,2.813,18.211,3.637
				c0,0.695,0,2.146-15.909,4.635C-340.615,1764.1-349.603,1765.098-352.785,1765.098z"/>
			<path fill="#B1BCC9" d="M-352.785,1862.134v-1.166c2.99,0,11.592-0.946,19.176-2.111c10.747-1.648,14.691-2.951,15.489-3.559
				c-2.12-1.363-19.18-2.921-34.696-3.725l0.061-1.162c0.088,0.003,8.951,0.466,17.7,1.221c18.21,1.572,18.21,2.813,18.21,3.635
				c0,0.696,0,2.146-15.909,4.633C-340.615,1861.133-349.603,1862.134-352.785,1862.134z"/>
			<polygon fill="#B1BCC9" points="-358.82,1931.785 -398.471,1931.785 -398.471,1683.01 -352.785,1683.01 -352.785,1685.339 
				-396.141,1685.339 -396.141,1929.454 -358.82,1929.454 			"/>
			<path fill="#B1BCC9" d="M-371.425,1856.852c-0.542-0.039-54.344-3.822-64.417-4.737c-8.48-0.771-10.628-7.209-10.581-10.508
				v-64.792c0-4.442,1.123-7.655,3.337-9.551c2.391-2.046,5.209-1.812,5.721-1.749l65.267-5.944l0.105,1.16l-65.402,5.957
				l-0.071-0.011c-0.025-0.004-2.707-0.382-4.874,1.483c-1.937,1.666-2.916,4.577-2.916,8.654v64.801
				c-0.004,0.353,0.015,8.475,9.52,9.337c10.061,0.915,63.851,4.699,64.394,4.734L-371.425,1856.852z"/>
			<path fill="#B1BCC9" d="M-197.175,1909.393l-0.609-2.248c1.644-0.442,3.947-0.945,6.861-1.578
				c12.703-2.767,39.135-8.524,79.235-24.697c46.449-18.728,102.533-27.155,171.456-25.763
				c63.571,1.285,231.661,14.049,233.352,14.177l334.022,29.225h23.622v2.329l-23.773-0.004l-334.06-29.228
				c-1.678-0.128-169.702-12.888-233.208-14.172c-68.603-1.387-124.386,6.985-170.537,25.597
				c-40.285,16.244-66.846,22.031-79.61,24.812C-193.309,1908.47-195.586,1908.968-197.175,1909.393z"/>
			<path fill="#B1BCC9" d="M94.914,1945.984c-10.297,0-17.976-2.105-22.822-6.257c-3.474-2.976-4.176-5.962-4.265-6.411
				c-0.528-1.529-14.663-42.612-19.89-61.914c-1.475-5.446-0.908-9.601,1.687-12.347c2.249-2.381,5.91-3.629,10.883-3.703
				c3.425-0.054,6.245,0.482,6.677,0.569c0.881,0.023,12.82,0.334,42.294,1.63l-0.052,1.163
				c-30.495-1.339-42.209-1.625-42.325-1.628l-0.104-0.014c-0.117-0.024-11.662-2.371-16.527,2.782
				c-2.296,2.434-2.77,6.216-1.409,11.243c5.29,19.53,19.736,61.457,19.882,61.879l0.024,0.093c0.005,0.027,0.549,2.951,3.967,5.839
				c5.775,4.882,15.142,5.908,21.981,5.908v1.167H94.914z"/>
			<path fill="#B1BCC9" d="M-61.581,1946.992c-0.068,0-0.112-0.002-0.126-0.005l0.102-1.161c0.104,0.008,2.818,0.116,4.882-4.846
				c2.184-5.259,0.62-13.007,0.602-13.086c-0.056-0.257-6.061-26.884-10.384-43.713c-1.647-6.417-4.036-10.335-6.903-11.331
				c-2.384-0.827-4.312,0.614-4.394,0.677l-0.711-0.923c0.099-0.078,2.485-1.881,5.467-0.858c3.311,1.135,5.891,5.222,7.669,12.146
				c4.328,16.847,10.337,43.49,10.398,43.757c0.069,0.344,1.652,8.191-0.667,13.777
				C-57.838,1946.697-60.918,1946.992-61.581,1946.992z"/>
			<path fill="#B1BCC9" d="M-61.929,1946.984h-147.336c-0.215-0.011-18.453-1.213-18.453-16.928c0-7.258,2.221-12.074,6.987-15.154
				c4.265-2.757,9.989-3.827,16.621-5.067c1.721-0.32,3.504-0.653,5.304-1.028l0.236,1.141c-1.813,0.377-3.6,0.709-5.327,1.032
				c-13.152,2.456-22.655,4.231-22.655,19.075c0,14.624,17.147,15.753,17.32,15.764h147.305v1.166H-61.929z"/>
			
				<rect x="652.814" y="1948.551" transform="matrix(-0.5391 -0.8422 0.8422 -0.5391 -705.1995 3676.9419)" fill="#B1BCC9" width="1.166" height="165.72"/>
			<path fill="#B1BCC9" d="M-404.843,2013.541v-1.165c9.039-0.006,904.444-0.793,938.435-0.793c33.782,0,46.42-6.527,46.545-6.595
				l0.063-0.03l142.693-55.623l0.425,1.084l-142.665,55.612c-0.864,0.455-13.441,6.719-47.059,6.719
				C499.601,2012.748-395.804,2013.532-404.843,2013.541z"/>
			<path fill="#B1BCC9" d="M579.697,1870.939c-9.38,0-115.603-64.967-120.121-67.731l-1.625-0.995l23.3-1.028l0.052,1.162
				l-19.492,0.861c6.347,3.871,30.272,18.43,54.777,32.823c47.474,27.888,60.522,33.742,63.108,33.742
				c9.186,0,18.06-0.846,18.147-0.855l0.112,1.159C597.867,1870.087,588.941,1870.939,579.697,1870.939z"/>
			<path fill="#B1BCC9" d="M531.999,1867.696c-0.314,0-0.539-0.019-0.619-0.024h-37.865c-14.826,0-70.499-4.126-71.059-4.168
				c-3.208-0.204-321.343-20.749-335.479-22.516c-14.192-1.775-16.152-9.139-16.295-9.784c-0.337-1.063-9.844-31.06-12.49-39.45
				c-0.882-2.798-0.806-4.926,0.225-6.333c1.072-1.465,2.871-1.773,4.194-1.773c0.547,0,0.958,0.058,1.087,0.077
				c4.83,0.194,310.567,12.569,334.807,13.09c24.459,0.525,50.525,14.607,50.786,14.749c0.811,0.456,80.394,45.166,83.231,46.682
				c3.772,2.019,5.27,4.321,4.444,6.844C536.201,1867.441,533.239,1867.696,531.999,1867.696z M62.612,1784.813
				c-1.051,0-2.469,0.224-3.254,1.295c-0.8,1.088-0.816,2.871-0.053,5.293c2.679,8.498,12.399,39.167,12.497,39.475l0.016,0.063
				c0.014,0.068,1.675,7.189,15.307,8.894c14.101,1.761,332.2,22.305,335.412,22.51c0.567,0.043,56.196,4.167,70.98,4.167
				l37.945,0.001c0.002,0,0.212,0.02,0.537,0.02c0.983,0,3.33-0.176,3.861-1.802c0.623-1.908-0.687-3.745-3.886-5.457
				c-2.848-1.521-82.442-46.237-83.246-46.688c-0.253-0.138-26.077-14.087-50.247-14.604
				c-24.321-0.523-331.762-12.969-334.865-13.094l-0.075-0.007C63.539,1784.877,63.158,1784.813,62.612,1784.813z"/>
			<path fill="#B1BCC9" d="M399.066,1921.38c-0.157,0-0.271-0.007-0.329-0.012H281.52c-0.063,0-6.422-0.074-7.965-6.436
				c-1.442-5.934-25.432-142.101-26.453-147.895l1.146-0.201c0.25,1.418,25.005,141.922,26.438,147.822
				c1.325,5.459,6.61,5.544,6.833,5.544h117.278l0.034,0.004c0.074,0.008,1.893,0.182,3.522-1.284
				c1.706-1.534,2.572-4.258,2.572-8.097c0-10.6-0.979-26.559-0.992-26.716c-0.007-0.096-0.852-10.504-6.126-28.189
				c-5.289-17.749-27.787-83.211-28.014-83.869l1.103-0.379c0.226,0.659,22.73,66.144,28.028,83.916
				c5.313,17.821,6.165,28.337,6.173,28.44c0.011,0.169,0.995,16.163,0.995,26.798c0,4.2-1.004,7.223-2.982,8.982
				C401.538,1921.212,399.808,1921.38,399.066,1921.38z"/>
			<polygon fill="#B1BCC9" points="79.367,1764.071 78.201,1764.071 78.201,1747.57 72.394,1740.691 73.283,1739.939 
				79.367,1747.143 			"/>
			<polygon fill="#B1BCC9" points="29.96,1764.071 28.795,1764.071 28.795,1747.143 34.88,1739.939 35.768,1740.691 29.96,1747.57 
							"/>
			<path fill="#B1BCC9" d="M72.442,1741.479H36.14c-6.659,0-12.074-5.419-12.074-12.074c0-6.661,5.415-12.077,12.074-12.077h36.302
				c6.658,0,12.075,5.416,12.075,12.077C84.516,1736.06,79.099,1741.479,72.442,1741.479z M36.14,1719.657
				c-5.374,0-9.745,4.372-9.745,9.747c0,5.373,4.372,9.743,9.745,9.743h36.302c5.374,0,9.745-4.37,9.745-9.743
				c0-5.374-4.371-9.747-9.745-9.747H36.14z"/>
			<polygon fill="#B1BCC9" points="27.741,1737.245 2.973,1710.273 -3.388,1623.053 -2.228,1622.968 4.105,1709.783 
				28.599,1736.458 			"/>
			<path fill="#B1BCC9" d="M363.534,1771.532l-3.11-6.869l-29.062-16.494h-66.632c-0.026,0-4.357,0.16-6.146,2.543
				c-1.855,2.476-6.143,10.266-6.538,10.986c-0.079,0.277-0.487,1.858-0.487,4.973h-1.166c0-3.649,0.537-5.312,0.56-5.384
				l0.043-0.096c0.189-0.347,4.672-8.53,6.656-11.178c2.127-2.837,6.862-3.003,7.062-3.009h66.956l29.657,16.831l3.268,7.216
				L363.534,1771.532z"/>
			<path fill="#B1BCC9" d="M235.688,1766.669h-1.164v-3.741c0.003-0.175,0.008-3.935-5.628-6.753
				c-5.965-2.983-16.979-6.144-17.089-6.177c-0.065-0.019-6.334-1.83-11.214-1.83H1.329c-0.402,0.054-4.385,0.625-7.267,2.426
				c-3.083,1.925-10.767,5.244-11.536,5.571c-0.353,0.247-2.873,2.116-2.873,5.609v2.276h-1.165v-2.276
				c0-4.325,3.298-6.52,3.438-6.609l0.087-0.048c0.084-0.035,8.328-3.574,11.427-5.513c3.248-2.029,7.594-2.574,7.777-2.597
				l0.07-0.003h199.3c5.051,0,11.275,1.796,11.537,1.874c0.11,0.032,11.228,3.224,17.289,6.253c6.344,3.173,6.277,7.625,6.271,7.813
				V1766.669z"/>
			
				<rect x="621.976" y="1922.32" transform="matrix(-0.2477 -0.9688 0.9688 -0.2477 -1056.9316 3025.1274)" fill="#B1BCC9" width="48.045" height="1.166"/>
			<polygon fill="#B1BCC9" points="646.577,1925.779 632.806,1925.779 623.55,1916.786 601.87,1916.786 594.933,1903.079 
				641.07,1903.079 641.07,1904.246 596.828,1904.246 602.586,1915.622 624.021,1915.622 633.28,1924.613 646.577,1924.613 			"/>
			<path fill="#B1BCC9" d="M-84.742,1794.21h-175.949v-1.167h175.949c9.461,0,15.437-3.463,17.275-5.295l19.024-21.2l0.867,0.779
				l-19.046,21.223C-66.872,1788.801-72.397,1794.21-84.742,1794.21z"/>
			<g>
				<polygon fill="#B1BCC9" points="-181.664,2014.032 -187.07,2002.236 -204.718,2002.236 -208.976,2013.988 -210.072,2013.592 
					-205.534,2001.071 -186.322,2001.071 -180.606,2013.547 				"/>
				<polygon fill="#B1BCC9" points="-324.421,2014.032 -329.826,2002.236 -347.472,2002.236 -351.732,2013.988 -352.827,2013.592 
					-348.289,2001.071 -329.077,2001.071 -323.363,2013.547 				"/>
				<path fill="#B1BCC9" d="M-282.648,1875.594h-27.732l8.21-16.19h11.604L-282.648,1875.594z M-308.484,1874.429h23.969
					l-6.777-13.859h-10.162L-308.484,1874.429z"/>
				
					<rect x="-320.46" y="1937.849" transform="matrix(-0.5871 -0.8095 0.8095 -0.5871 -1953.8544 2880.2822)" fill="#B1BCC9" width="156.178" height="1.164"/>
				
					<rect x="-321.916" y="1873.041" transform="matrix(-0.9665 -0.2565 0.2565 -0.9665 -1129.1538 3729.5972)" fill="#B1BCC9" width="1.165" height="130.801"/>
			</g>
			<rect x="-478.474" y="1781.294" fill="#B1BCC9" width="67.482" height="2.329"/>
			<rect x="-478.474" y="1830.411" fill="#B1BCC9" width="67.482" height="2.33"/>
			<polygon fill="#B1BCC9" points="-428.371,1834.388 -429.535,1834.388 -429.535,1826.329 -425.116,1820.198 -411.188,1820.198 
				-406.854,1825.936 -353.672,1825.936 -353.672,1827.101 -407.434,1827.101 -411.77,1821.365 -424.522,1821.365 
				-428.371,1826.705 			"/>
			<polygon fill="#B1BCC9" points="-411.188,1843.587 -425.116,1843.587 -429.535,1837.457 -429.535,1829.4 -428.371,1829.4 
				-428.371,1837.083 -424.522,1842.421 -411.77,1842.421 -407.434,1836.686 -353.672,1836.686 -353.672,1837.852 
				-406.854,1837.852 			"/>
			<path fill="#B1BCC9" d="M750.418,1947.566h-56.751v-25.13h56.751V1947.566z M695.997,1945.237h52.089v-20.473h-52.089V1945.237z"
				/>
		</g>
		<g>
			<path fill="#00B6ED" d="M-357.771,2121.095l68.485-0.004c0.413-0.013,10.251-0.431,20.432-5.395
				c9.665-4.712,21.431-14.474,22.579-34.211c0.91-15.65-6.799-29.873-15.38-40.662c27.959,7.413,60.856,0.009,86.581-5.783
				c6.692-1.504,13.012-2.931,18.348-3.861l-1.398-8.005c-5.532,0.968-11.945,2.41-18.734,3.938
				c-26.276,5.917-60.411,13.599-87.341,4.429c-1.829-0.623-5.771-1.955-9.879-4.353c-4.539-2.652-9.178-6.358-9.178-6.358
				c-12.04-10.331-19.967-26.466-23.703-48.165c3.967,3.63,9.043,6.402,15.282,8.398c16.183,5.173,39.284,5.323,71.257,5.536
				c14.088,0.093,30.058,0.197,47.489,0.781l0.136,0.003h713.256l0.073-0.004c22.872-0.838,57.263,1.442,62.097,9.118
				c2.139,3.393,2.536,6.581,1.256,10.036c-2.425,6.539-10.537,13.029-20.472,18.447l-0.017-0.029
				c-0.152,0.078-0.675,0.358-1.485,0.833c-7.11,3.735-15.028,6.917-22.409,9.188c-17.173,5.282-54.75,10.676-113.44-12.592
				l-2.994,7.556c60.999,24.18,100.63,18.399,118.826,12.803c0.127-0.039,0.281-0.088,0.467-0.146
				c-7.376,8.98-13.853,21.438-13.853,37.499c0,30.252,23.394,39.949,35.763,40.851l0.297,0.012h52.682v-8.125h-52.514
				c-2.285-0.214-28.103-3.289-28.103-32.736c0-31.64,30.215-47.776,30.52-47.935v-0.003c10.426-5.631,20.843-13.343,24.348-22.792
				c2.143-5.775,1.451-11.721-1.998-17.19c-9.029-14.334-59.027-13.277-69.191-12.912h-713.042
				c-17.511-0.584-33.514-0.69-47.634-0.78c-60.464-0.403-84.933-1.968-88.846-27.358c-0.157-3.436-0.238-6.977-0.238-10.619h-0.279
				c0.781-17.002,10.013-35.668,27.474-49.18h-4.974c-20.358,15.755-30.681,30.966-30.681,51.549c0,3.111,0.195,6.031,0.591,8.765
				c1.7,36.142,11.902,61.917,30.396,76.711c2.148,1.718,4.369,3.266,6.659,4.662c10.14,9.183,27.062,27.681,25.88,48.005
				c-1.745,29.986-33.023,31.865-35.134,31.954h-68.252L-357.771,2121.095L-357.771,2121.095z"/>
			<path fill="#00B6ED" d="M-496.064,1801.806c88.652,0,163.709-5.623,316.434-50.974c56.131-16.669,108.318-29.626,164.24-36.828
				c61.083-7.868,129.104-13.757,214.063-13.757l0,0c-85.315,0-153.666-0.377-215.102,7.535
				c-56.364,7.26-108.957,18.466-165.514,35.259c-175.524,52.121-247.778,51.421-357.153,50.354
				c-16.497-0.161-33.557-0.329-52.045-0.329v8.128c18.451,0,35.489,0.165,51.967,0.323
				C-524.235,1801.666-509.981,1801.806-496.064,1801.806z"/>
			<path fill="#00B6ED" d="M-468.282,1759.062c78.902,0,153.935-10.12,291.199-72.155c110.409-49.9,213.165-63.092,375.756-63.092
				l0,0c-95.18,0-159.324,0.892-214.482,9.099c-60.157,8.958-110.928,22.321-164.621,46.587
				c-166.979,75.466-240.9,73.319-343.21,70.348c-21.218-0.616-43.159-1.253-67.503-1.253v8.125c24.225,0,46.106,0.636,67.265,1.25
				C-504.616,1758.529-486.344,1759.062-468.282,1759.062z"/>
			<polygon fill="#00B6ED" points="-585.81,1742.742 -585.81,1761.944 -627.624,1752.342 			"/>
			<polygon fill="#00B6ED" points="-585.81,1788.134 -585.81,1807.338 -627.624,1797.735 			"/>
			<polygon fill="#00B6ED" points="-350.698,2107.431 -350.698,2126.635 -392.511,2117.031 			"/>
			<polygon fill="#00B6ED" points="-168.985,2019.267 -163.322,2037.617 -126.2,2016.112 			"/>
			<polygon fill="#00B6ED" points="636.271,2107.431 636.271,2126.635 678.085,2117.031 			"/>
			<polygon fill="#00B6ED" points="454.555,2019.267 448.893,2037.617 411.771,2016.112 			"/>
		</g>
	</g>
</g>
</svg>
