<?xml version="1.0" encoding="utf-8"?>
<!-- Generator: Adobe Illustrator 16.0.0, SVG Export Plug-In . SVG Version: 6.00 Build 0)  -->
<!DOCTYPE svg PUBLIC "-//W3C//DTD SVG 1.1//EN" "http://www.w3.org/Graphics/SVG/1.1/DTD/svg11.dtd">
<svg version="1.1" id="Layer_1" xmlns="http://www.w3.org/2000/svg" xmlns:xlink="http://www.w3.org/1999/xlink" x="0px" y="0px"
	 width="1920px" height="1012px" viewBox="0 0 1920 1012" enable-background="new 0 0 1920 1012" xml:space="preserve">
<g>
	<path fill="#FFFFFF" d="M387.783,512.417l-23.796-54.994H230.201l-24.325,54.994h-78.262l165.514-355.352h11.634L467.63,512.417
		H387.783z M296.829,306.715l-42.832,96.77h86.722l-41.774-96.77H296.829z"/>
	<path fill="#FFFFFF" d="M702.945,223.694H601.416v288.723h-78.79V223.694H420.567v-60.812h282.378V223.694z"/>
	<path fill="#FFFFFF" d="M920.809,447.904h-11.636l-97.298-106.289c-0.528,0.528-1.057,0.528-1.587,0.528v170.273h-75.617V157.596
		h11.635L914.99,352.721l168.158-195.125h11.104v354.821h-76.147V342.144c-0.527-0.528-1.056-0.528-2.115-0.528L920.809,447.904z"/>
	<path fill="#FFFFFF" d="M1193.666,467.469c-33.843-34.371-50.764-77.203-50.764-129.555c0-50.764,17.979-93.596,53.406-128.498
		c35.959-34.899,80.907-52.351,134.846-52.351c54.465,0,99.413,17.451,134.314,52.351c34.9,34.372,52.35,77.204,52.35,128.498
		s-17.449,94.655-52.879,129.027c-34.902,34.371-79.849,51.293-134.313,51.293C1273.515,518.234,1228.038,501.312,1193.666,467.469z
		 M1252.893,255.422c-20.625,22.21-30.67,49.708-30.67,82.492c0,33.843,10.045,61.869,29.612,84.08
		c20.093,22.207,46.532,33.312,79.848,33.312c32.256,0,58.696-11.105,78.263-33.843c20.092-22.737,30.141-50.235,30.141-83.55
		c0-32.784-10.049-60.282-30.141-82.492c-19.566-22.209-46.007-33.313-78.263-33.313
		C1299.426,222.108,1273.515,233.213,1252.893,255.422z"/>
	<path fill="#FFFFFF" d="M1548.493,418.821c15.335,11.633,33.843,20.622,54.465,27.496c21.152,6.873,39.66,10.047,56.052,10.047
		c35.959,0,60.812-12.691,60.812-38.602c0-23.795-26.439-42.833-58.696-57.109c-46.534-20.623-108.934-47.063-107.875-107.876
		c0-29.083,11.104-52.88,32.784-70.331c22.211-17.448,50.766-26.438,86.196-26.438c37.542,0,71.915,7.403,104.173,22.209v67.687
		c-12.162-7.931-27.498-14.807-44.947-20.093c-17.451-5.289-32.787-7.934-46.534-7.934c-31.2,0-52.88,11.104-52.88,34.372
		c0,25.383,42.303,35.43,83.02,56.582c14.279,7.402,28.027,15.334,40.189,23.795c24.854,16.394,43.361,47.062,43.361,83.551
		c0,29.612-11.104,53.938-33.843,73.502c-22.209,19.566-53.937,29.084-95.712,29.084c-48.65,0-88.84-9.518-120.565-28.025V418.821z"
		/>
</g>
</svg>
