<?xml version="1.0" encoding="utf-8"?>
<!-- Generator: Adobe Illustrator 16.0.0, SVG Export Plug-In . SVG Version: 6.00 Build 0)  -->
<!DOCTYPE svg PUBLIC "-//W3C//DTD SVG 1.1//EN" "http://www.w3.org/Graphics/SVG/1.1/DTD/svg11.dtd">
<svg version="1.1" id="Layer_1" xmlns="http://www.w3.org/2000/svg" xmlns:xlink="http://www.w3.org/1999/xlink" x="0px" y="0px"
	 width="99.351px" height="71.96px" viewBox="0 0 99.351 71.96" enable-background="new 0 0 99.351 71.96" xml:space="preserve">
<g>
	<path fill="#FFFFFF" d="M79.968,71.96H47.693v-4.596H25.341l-14.425-5.393V43.975l14.931-3.171l4.152-3.604
		c-1.248-2.789-6.291-14.037-7.952-17.691c-0.73-1.606-0.831-3.06-0.302-4.32c0.756-1.802,2.542-2.465,2.617-2.49l0.077-0.025
		l8.588-2.282L35.364,0h63.987v36.869l-8.1,2.351l-7.071,24.03l-2.427,7.958L79.968,71.96z M49.55,70.104h30.042l0.639-0.27
		l2.171-7.118l7.356-24.995l7.734-2.246V1.857H36.851l-2.26,10.04l-9.621,2.556c-0.169,0.072-1.125,0.514-1.519,1.47
		c-0.313,0.763-0.219,1.71,0.284,2.817c1.895,4.167,8.173,18.187,8.239,18.329l0.283,0.629l-5.556,4.822l-13.929,2.959v15.204
		l12.904,4.825H49.55V70.104z"/>
	<path fill="#FFFFFF" d="M73.916,55.194l-0.852-0.377l4.246-9.576l7.144-15.631c0.12-0.318,2.15-6.087-0.735-9.146l-0.024-0.025
		c-1.771-2.172-4.994-3.409-8.221-3.151c-4.914,0.479-8.15,6.461-8.181,6.523l-0.035,0.052l-3.839,5.366H50.281
		c-8.246,0-9.058-1.475-10-3.186c-0.112-0.199-0.223-0.406-0.346-0.603l-0.033-0.056l-6.513-14.047l0.842-0.389l6.496,14.018
		c0.138,0.215,0.254,0.424,0.365,0.628c0.8,1.453,1.496,2.707,9.188,2.707h12.66l3.547-4.954c0.124-0.229,0.951-1.708,2.365-3.259
		c2.021-2.217,4.282-3.505,6.54-3.724c3.52-0.282,7.054,1.081,9.014,3.476c1.39,1.483,1.988,3.709,1.723,6.439
		c-0.195,2.026-0.785,3.605-0.81,3.67l-0.008,0.029l-7.154,15.643L73.916,55.194z"/>
	<path fill="#FFFFFF" d="M60.114,41.999H38.277c-2.715,0-5.24-1.542-7.294-4.458c-1.525-2.161-2.253-4.291-2.286-4.38l0.881-0.298
		c0.025,0.083,2.854,8.208,8.7,8.208h21.836V41.999z"/>
	<path fill="#FFFFFF" stroke="#E40B14" stroke-width="5" stroke-miterlimit="10" d="M55.87,47.186"/>
	<rect x="73.217" y="59.412" fill="#FFFFFF" width="0.93" height="11.621"/>
	<rect x="56.554" y="59.412" fill="#FFFFFF" width="0.927" height="11.621"/>
	<rect x="64.981" y="59.412" fill="#FFFFFF" width="0.927" height="11.621"/>
	<rect x="1.893" y="43.323" fill="#FFFFFF" width="1.854" height="20.111"/>
	<rect x="25.339" y="42.747" fill="#FFFFFF" width="0.931" height="21.612"/>
	<rect x="35.252" y="8.764" fill="#FFFFFF" width="61.802" height="0.929"/>
	<rect x="26.116" y="58.948" fill="#FFFFFF" width="57.802" height="0.928"/>
</g>
</svg>
