<?xml version="1.0" encoding="utf-8"?>
<!-- Generator: Adobe Illustrator 16.0.0, SVG Export Plug-In . SVG Version: 6.00 Build 0)  -->
<!DOCTYPE svg PUBLIC "-//W3C//DTD SVG 1.1//EN" "http://www.w3.org/Graphics/SVG/1.1/DTD/svg11.dtd">
<svg version="1.1" id="Layer_1" xmlns="http://www.w3.org/2000/svg" xmlns:xlink="http://www.w3.org/1999/xlink" x="0px" y="0px"
	 width="170.241px" height="35.226px" viewBox="0 0 170.241 35.226" enable-background="new 0 0 170.241 35.226"
	 xml:space="preserve">
<g>
	<path fill="#FFFFFF" d="M166.052,36.156H0.929L0,35.226V28.09l0.471-0.807c0.238-0.136,24.143-13.708,37.067-20.211
		c2.664-1.341,4.746-2.428,6.419-3.301C50.498,0.355,51.183,0,57.086,0h113.154l0.929,0.929v10.176l-0.927,0.928
		c-0.031,0-3.206,0.029-6.571,1.261c-4.377,1.593-7.014,4.374-7.847,8.263c-0.821,3.829,0.643,7.123,4.343,9.788
		c2.888,2.079,6.096,2.978,6.127,2.988L166.052,36.156z M1.856,34.298h159.556c-0.747-0.399-1.523-0.87-2.291-1.419
		c-4.321-3.094-6.088-7.146-5.109-11.712c0.963-4.506,4.1-7.838,9.071-9.637c2.562-0.925,4.963-1.218,6.23-1.31V1.857H57.086
		c-5.448,0-5.833,0.201-12.265,3.558c-1.681,0.877-3.773,1.968-6.45,3.316c-11.88,5.976-33.096,17.962-36.515,19.9V34.298z"/>
	<path fill="#FFFFFF" d="M0.975,30.271l-0.094-0.924c4.094-0.42,8.117-0.821,11.863-1.188c9.766-0.962,19.516-1.885,28.977-2.749
		c5.692-0.518,9.098-1.025,12.389-1.515c3.7-0.549,7.188-1.069,13.55-1.563c10.518-0.818,21.846-1.649,33.438-2.186
		c12.078-0.555,23.866-0.822,35.328,1.98c3.952,0.966,7.715,2.274,11.188,3.888l-0.393,0.842c-3.417-1.589-7.123-2.877-11.012-3.829
		c-11.346-2.773-23.062-2.507-35.067-1.953c-11.581,0.534-22.902,1.363-33.41,2.182c-6.331,0.493-9.804,1.009-13.483,1.557
		c-3.308,0.492-6.725,1-12.446,1.522c-9.462,0.861-19.208,1.787-28.968,2.746C9.092,29.451,5.067,29.849,0.975,30.271z"/>
	<path fill="#FFFFFF" stroke="#E40B14" stroke-width="5" stroke-miterlimit="10" d="M33.145,25.03"/>
	<path fill="#FFFFFF" d="M33.19,19.42l-0.088-0.924l63.336-6.22c0.025-0.002,2.727-0.296,3.768-1.985
		c1.15-1.873,5.521-10.172,5.566-10.256l0.818,0.433c-0.181,0.342-4.428,8.408-5.598,10.31c-1.279,2.083-4.331,2.41-4.458,2.422
		L33.19,19.42z"/>
</g>
</svg>
