<?xml version="1.0" encoding="utf-8"?>
<!-- Generator: Adobe Illustrator 16.0.0, SVG Export Plug-In . SVG Version: 6.00 Build 0)  -->
<!DOCTYPE svg PUBLIC "-//W3C//DTD SVG 1.1//EN" "http://www.w3.org/Graphics/SVG/1.1/DTD/svg11.dtd">
<svg version="1.1" id="Layer_1" xmlns="http://www.w3.org/2000/svg" xmlns:xlink="http://www.w3.org/1999/xlink" x="0px" y="0px"
	 width="132.497px" height="62.488px" viewBox="0 0 132.497 62.488" enable-background="new 0 0 132.497 62.488"
	 xml:space="preserve">
<g>
	<path fill="#FFFFFF" d="M26.793,24.825L2.222,8.084C0.478,7.02-0.353,5.111,0.141,3.328C0.591,1.718,2.268,0,5.627,0h114.51
		l0.45,0.118l11.909,6.643l-0.902,1.622l-11.698-6.526H5.627c-1.967,0-3.352,0.736-3.698,1.969C1.652,4.821,2.152,5.874,3.203,6.509
		l0.042,0.028L27.84,23.291L26.793,24.825z"/>
	<polygon fill="#FFFFFF" points="120.691,24.877 119.818,23.239 131.612,16.93 132.483,18.567 	"/>
	<polygon fill="#FFFFFF" points="118.268,38.43 117.339,38.43 117.339,12.956 27.957,12.956 27.957,37.487 27.031,37.487 
		27.031,12.493 27.493,12.028 117.803,12.028 118.268,12.493 	"/>
	<path fill="#FFFFFF" d="M120.252,62.488H27.318l-0.525-0.16L2.222,45.587c-1.744-1.064-2.575-2.973-2.081-4.758
		c0.45-1.608,2.127-3.327,5.486-3.327h114.51l0.45,0.119l11.909,6.642l-0.902,1.622l-11.698-6.525H5.627
		c-1.967,0-3.352,0.735-3.698,1.968c-0.277,0.996,0.223,2.049,1.273,2.683l0.042,0.028l24.36,16.592h92.414l11.594-6.2l0.871,1.638
		l-11.792,6.309L120.252,62.488z"/>
	<rect x="27.493" y="49.531" fill="#FFFFFF" width="90.31" height="0.928"/>
</g>
</svg>
