<?xml version="1.0" encoding="utf-8"?>
<!-- Generator: Adobe Illustrator 16.0.0, SVG Export Plug-In . SVG Version: 6.00 Build 0)  -->
<!DOCTYPE svg PUBLIC "-//W3C//DTD SVG 1.1//EN" "http://www.w3.org/Graphics/SVG/1.1/DTD/svg11.dtd">
<svg version="1.1" id="Layer_1" xmlns="http://www.w3.org/2000/svg" xmlns:xlink="http://www.w3.org/1999/xlink" x="0px" y="0px"
	 width="177px" height="65.236px" viewBox="0 0 177 65.236" enable-background="new 0 0 177 65.236" xml:space="preserve">
<g>
	<g>
		<path fill="#7C8792" d="M121.587,44.8h-3.227l22.353-22.353l0.066,0.011c1.183,0.204,1.938,0.341,1.945,0.342l0.107,0.019v0.735
			l-5.489,5.489l-1.452,0.309c-0.037,0.005-2.59,0.346-3.488,1.905c-0.507,0.88-0.639,1.877-0.403,3.048l0.014,0.068L121.587,44.8z
			 M118.99,44.539h2.49l10.251-10.251c-0.193-1.014-0.121-1.907,0.223-2.712L118.99,44.539z M140.802,22.727l-6.985,6.985
			c0.979-0.477,1.964-0.607,2.03-0.616l1.367-0.291l5.358-5.358v-0.409C142.33,22.994,141.693,22.88,140.802,22.727z"/>
		<path fill="#7C8792" d="M115.871,44.8h-3.227l23.159-23.159l0.065,0.01c0.81,0.126,1.639,0.259,2.464,0.396l0.25,0.041
			L115.871,44.8z M113.273,44.539h2.49l22.277-22.277c-0.72-0.118-1.44-0.233-2.146-0.344L113.273,44.539z"/>
		<path fill="#7C8792" d="M124.446,44.8h-3.227l10.732-10.733L132,34.305c0.097,0.478,0.249,0.976,0.481,1.568
			c0.064,0.166,0.139,0.345,0.228,0.547l0.035,0.082L124.446,44.8z M121.848,44.539h2.49l8.096-8.096
			c-0.074-0.173-0.139-0.329-0.196-0.475c-0.2-0.511-0.343-0.955-0.443-1.377L121.848,44.539z"/>
		<path fill="#7C8792" d="M118.729,44.8h-3.227l22.764-22.765l0.066,0.011c0.823,0.135,1.646,0.274,2.447,0.412l0.248,0.042
			L118.729,44.8z M116.131,44.539h2.49l21.866-21.866c-0.7-0.121-1.416-0.241-2.131-0.359L116.131,44.539z"/>
		<path fill="#7C8792" d="M127.304,44.8h-3.227l8.554-8.555l0.076,0.175c0.303,0.694,0.669,1.429,0.924,1.923l0.043,0.084
			L127.304,44.8z M124.706,44.539h2.49l6.161-6.161c-0.231-0.452-0.539-1.072-0.811-1.679L124.706,44.539z"/>
		<path fill="#7C8792" d="M130.163,44.8h-3.227l6.614-6.615l0.082,0.159c0.154,0.3,0.274,0.525,0.327,0.624
			c0.178,0.034,0.734,0.136,1.487,0.255l0.252,0.04L130.163,44.8z M127.564,44.539h2.49l5.1-5.1
			c-0.782-0.127-1.299-0.227-1.305-0.228l-0.061-0.012l-0.029-0.054c0,0-0.11-0.203-0.277-0.524L127.564,44.539z"/>
		<path fill="#7C8792" d="M110.154,44.8h-3.227l23.876-23.877l0.063,0.008c0.781,0.101,1.627,0.217,2.516,0.345l0.257,0.038
			L110.154,44.8z M107.556,44.539h2.49l23.042-23.042c-0.77-0.11-1.505-0.211-2.19-0.299L107.556,44.539z"/>
		<path fill="#7C8792" d="M104.438,44.8h-3.227l24.383-24.383l0.059,0.004c0.649,0.044,1.219,0.086,1.694,0.125
			c0.296,0.024,0.618,0.054,0.956,0.088l0.273,0.027L104.438,44.8z M101.84,44.539h2.49l23.673-23.673
			c-0.237-0.023-0.463-0.043-0.677-0.061c-0.459-0.038-1.008-0.079-1.631-0.121L101.84,44.539z"/>
		<path fill="#7C8792" d="M101.58,44.8h-3.227l24.55-24.55l0.058,0.003c0.999,0.058,1.905,0.114,2.692,0.168l0.286,0.019
			L101.58,44.8z M98.981,44.539h2.49l23.878-23.878c-0.701-0.046-1.488-0.095-2.345-0.145L98.981,44.539z"/>
		<path fill="#7C8792" d="M113.012,44.8h-3.227l23.533-23.532l0.065,0.009c0.773,0.112,1.609,0.238,2.485,0.375l0.253,0.04
			L113.012,44.8z M110.415,44.539h2.49l22.67-22.67c-0.759-0.118-1.486-0.227-2.165-0.325L110.415,44.539z"/>
		<path fill="#7C8792" d="M98.721,44.8h-3.227l24.698-24.699l0.058,0.003c0.928,0.049,1.84,0.099,2.71,0.149l0.29,0.017L98.721,44.8
			z M96.123,44.539h2.49l24.042-24.043c-0.763-0.043-1.556-0.087-2.36-0.129L96.123,44.539z"/>
		<path fill="#7C8792" d="M133.021,44.8h-3.227l5.587-5.587l0.065,0.01c0.881,0.14,1.726,0.254,2.512,0.34l0.27,0.029L133.021,44.8z
			 M130.423,44.539h2.49l4.749-4.748c-0.693-0.08-1.427-0.181-2.189-0.301L130.423,44.539z"/>
		<path fill="#7C8792" d="M14.291,40.622l0.618-2.428l4.303-2.493L14.291,40.622z M15.134,38.365l-0.357,1.403l2.844-2.844
			L15.134,38.365z"/>
		<path fill="#7C8792" d="M107.296,44.8h-3.227l24.172-24.172l0.062,0.006c0.753,0.075,1.617,0.175,2.565,0.297l0.263,0.034
			L107.296,44.8z M104.698,44.539h2.49l23.383-23.383c-0.818-0.103-1.567-0.189-2.233-0.257L104.698,44.539z"/>
		<path fill="#7C8792" d="M136.875,29.143l5.957-5.957v3.227l-1.858,1.858L136.875,29.143z M142.572,23.815l-4.89,4.89l3.163-0.672
			l1.728-1.728V23.815z"/>
		<path fill="#7C8792" d="M155.361,44.8h-2.7l1.892-1.892l0.077,0.173c0.35,0.784,0.655,1.532,0.658,1.539L155.361,44.8z
			 M153.29,44.539h1.683c-0.099-0.24-0.289-0.692-0.504-1.179L153.29,44.539z"/>
		<path fill="#7C8792" d="M140.506,28.371l2.326-2.326v1.831L140.506,28.371z M142.572,26.674l-1.26,1.259l1.26-0.268V26.674z"/>
		<path fill="#7C8792" d="M13.316,44.456l1.101-4.327l3.935-3.928l7.655-4.435L13.316,44.456z M14.651,40.262l-0.85,3.34
			l10.613-10.613l-5.919,3.429L14.651,40.262z"/>
		<path fill="#7C8792" d="M95.863,44.8h-3.227l24.836-24.836l0.058,0.002c0.903,0.044,1.819,0.091,2.721,0.138l0.292,0.015
			L95.863,44.8z M93.265,44.539h2.49l24.19-24.19c-0.787-0.041-1.583-0.081-2.37-0.12L93.265,44.539z"/>
		<path fill="#7C8792" d="M153.029,44.8h-3.227l3.722-3.723l0.092,0.107c0.082,0.095,0.156,0.197,0.221,0.301
			c0.188,0.302,0.454,0.839,0.792,1.596l0.036,0.082L153.029,44.8z M150.431,44.539h2.49l1.434-1.434
			c-0.312-0.694-0.567-1.205-0.739-1.482c-0.034-0.056-0.07-0.108-0.109-0.16L150.431,44.539z"/>
		<path fill="#7C8792" d="M15.83,44.8h-2.602l0.213-0.838l11.704-11.698L32.8,27.83L15.83,44.8z M13.563,44.539h2.159l15.487-15.487
			l-5.919,3.429L13.676,44.095L13.563,44.539z"/>
		<path fill="#7C8792" d="M138.737,44.8h-3.227l5.022-5.022l0.06,0.004c0.743,0.051,1.647,0.108,2.688,0.169l0.289,0.017
			L138.737,44.8z M136.139,44.539h2.49l4.346-4.346c-0.894-0.053-1.68-0.103-2.342-0.148L136.139,44.539z"/>
		<path fill="#7C8792" d="M141.596,44.8h-3.227l4.852-4.853l0.059,0.003c0.884,0.052,1.804,0.104,2.704,0.153l0.291,0.016
			L141.596,44.8z M138.998,44.539h2.49l4.191-4.191c-0.788-0.043-1.584-0.088-2.356-0.134L138.998,44.539z"/>
		<path fill="#7C8792" d="M150.17,44.8h-3.227l4.417-4.417l0.058,0.003c0.646,0.032,1.031,0.05,1.031,0.05l0.023,0.003
			c0.026,0.006,0.639,0.157,1.143,0.745l0.079,0.091L150.17,44.8z M147.573,44.539h2.49l3.274-3.275
			c-0.395-0.412-0.841-0.548-0.914-0.569c-0.071-0.003-0.418-0.02-0.96-0.047L147.573,44.539z"/>
		<path fill="#7C8792" d="M135.879,44.8h-3.226l5.244-5.244l0.062,0.007c0.214,0.023,0.43,0.045,0.646,0.065
			c0.488,0.045,1.157,0.097,1.987,0.153l0.286,0.02L135.879,44.8z M133.281,44.539h2.49l4.518-4.518
			c-0.702-0.049-1.275-0.094-1.708-0.134c-0.197-0.018-0.394-0.038-0.588-0.059L133.281,44.539z"/>
		<path fill="#7C8792" d="M147.312,44.8h-3.227l4.555-4.555l0.058,0.003c1.096,0.057,2.049,0.104,2.721,0.138l0.293,0.015
			L147.312,44.8z M144.714,44.539h2.49l3.908-3.908c-0.63-0.031-1.449-0.073-2.37-0.12L144.714,44.539z"/>
		<path fill="#7C8792" d="M144.454,44.8h-3.227l4.699-4.699l0.058,0.003c0.946,0.052,1.872,0.101,2.714,0.144l0.292,0.015
			L144.454,44.8z M141.856,44.539h2.49l4.046-4.046c-0.744-0.039-1.546-0.081-2.364-0.126L141.856,44.539z"/>
		<path fill="#7C8792" d="M52.988,44.8h-3.227l24.751-24.751l0.052-0.001c0.96-0.019,1.934-0.038,2.915-0.057l0.323-0.006
			L52.988,44.8z M50.39,44.539h2.49l24.281-24.281c-0.854,0.016-1.702,0.033-2.54,0.05L50.39,44.539z"/>
		<path fill="#7C8792" d="M38.697,44.8H35.47l24.356-24.357l0.051-0.002c0.845-0.034,1.814-0.068,2.964-0.105l0.329-0.01
			L38.697,44.8z M36.099,44.539h2.49l23.932-23.932c-0.985,0.032-1.833,0.062-2.582,0.092L36.099,44.539z"/>
		<path fill="#7C8792" d="M32.98,44.8h-3.227l23.893-23.893l0.045-0.005c1.047-0.126,2.113-0.228,3.168-0.304l0.348-0.025
			L32.98,44.8z M30.382,44.539h2.49l23.656-23.656c-0.921,0.071-1.848,0.162-2.761,0.271L30.382,44.539z"/>
		<path fill="#7C8792" d="M50.13,44.8h-3.227L71.592,20.11l0.052-0.001c0.955-0.021,1.93-0.042,2.92-0.062l0.324-0.006L50.13,44.8z
			 M47.532,44.539h2.49l24.224-24.224c-0.861,0.018-1.709,0.036-2.543,0.053L47.532,44.539z"/>
		<path fill="#7C8792" d="M35.838,44.8h-3.227L56.81,20.601l0.049-0.003c0.493-0.035,0.989-0.065,1.473-0.089
			c0.471-0.023,0.988-0.045,1.546-0.068l0.333-0.014L35.838,44.8z M33.24,44.539h2.49l23.825-23.824
			c-0.432,0.018-0.836,0.036-1.211,0.054c-0.466,0.023-0.943,0.052-1.418,0.085L33.24,44.539z"/>
		<path fill="#7C8792" d="M47.271,44.8h-3.227l24.623-24.623l0.052-0.001c0.948-0.022,1.926-0.045,2.925-0.066l0.325-0.007
			L47.271,44.8z M44.673,44.539h2.49l24.163-24.162c-0.869,0.019-1.72,0.038-2.548,0.058L44.673,44.539z"/>
		<path fill="#7C8792" d="M44.413,44.8h-3.227l24.548-24.548l0.052-0.001c0.938-0.025,1.919-0.05,2.933-0.075l0.325-0.008
			L44.413,44.8z M41.815,44.539h2.49L68.4,20.444c-0.88,0.021-1.733,0.043-2.555,0.065L41.815,44.539z"/>
		<path fill="#7C8792" d="M41.555,44.8h-3.226L62.79,20.338l0.051-0.002c0.923-0.029,1.908-0.058,2.945-0.085l0.327-0.009
			L41.555,44.8z M38.957,44.539h2.49l24.02-24.02c-0.898,0.025-1.755,0.05-2.565,0.075L38.957,44.539z"/>
		<path fill="#7C8792" d="M30.122,44.8h-3.227l23.404-23.404l0.041-0.007c1.11-0.19,2.238-0.354,3.351-0.487l0.374-0.045
			L30.122,44.8z M27.524,44.539h2.49l23.333-23.333c-0.973,0.122-1.954,0.268-2.922,0.432L27.524,44.539z"/>
		<path fill="#7C8792" d="M18.688,44.8h-3.227l16.478-16.472l6.47-3.747c0,0,0.082-0.034,0.24-0.095l0.579-0.226L18.688,44.8z
			 M16.09,44.539h2.49l19.423-19.423l-5.918,3.429L16.09,44.539z"/>
		<path fill="#7C8792" d="M21.546,44.8H18.32l20.304-20.304l0.025-0.01c0.544-0.212,2.05-0.774,4.279-1.414l0.484-0.139L21.546,44.8
			z M18.949,44.539h2.49l21.075-21.075c-1.918,0.567-3.226,1.053-3.744,1.254L18.949,44.539z"/>
		<path fill="#7C8792" d="M27.263,44.8h-3.227l22.699-22.699l0.037-0.008c1.177-0.265,2.377-0.501,3.568-0.704l0.403-0.069
			L27.263,44.8z M24.666,44.539h2.49l22.824-22.824c-1.041,0.184-2.085,0.393-3.113,0.623L24.666,44.539z"/>
		<path fill="#7C8792" d="M24.405,44.8h-3.227l21.718-21.718l0.033-0.009c1.249-0.358,2.542-0.688,3.844-0.979l0.438-0.098
			L24.405,44.8z M21.807,44.539h2.49L46.39,22.447c-1.137,0.263-2.264,0.554-3.357,0.867L21.807,44.539z"/>
		<path fill="#7C8792" d="M78.713,44.8h-3.227l25.163-25.162l0.053-0.001c1.055-0.014,2.026-0.025,2.894-0.036l0.32-0.004
			L78.713,44.8z M76.115,44.539h2.49l24.674-24.674c-0.77,0.009-1.614,0.02-2.521,0.031L76.115,44.539z"/>
		<path fill="#7C8792" d="M81.571,44.8h-3.227l25.198-25.198l0.053,0c1.163-0.014,2.141-0.025,2.893-0.034l0.319-0.004L81.571,44.8z
			 M78.973,44.539h2.49l24.708-24.708c-0.689,0.008-1.538,0.018-2.52,0.03L78.973,44.539z"/>
		<path fill="#7C8792" d="M93.004,44.8h-3.227l24.966-24.966l0.058,0.003c0.876,0.041,1.795,0.084,2.729,0.129l0.294,0.015
			L93.004,44.8z M90.407,44.539h2.49l24.328-24.327c-0.812-0.04-1.611-0.077-2.377-0.113L90.407,44.539z"/>
		<path fill="#7C8792" d="M84.429,44.8h-3.227l25.232-25.232l0.053,0c1.098-0.013,1.714-0.02,1.714-0.02
			c0.007,0,0.417,0.017,1.124,0.047l0.296,0.012L84.429,44.8z M81.832,44.539h2.49l24.697-24.697
			c-0.52-0.022-0.816-0.034-0.821-0.034c0,0-0.595,0.006-1.654,0.019L81.832,44.539z"/>
		<path fill="#7C8792" d="M75.854,44.8h-3.227l25.125-25.125l0.053-0.001c1.02-0.013,1.989-0.025,2.896-0.037l0.32-0.004
			L75.854,44.8z M73.256,44.539h2.49l24.638-24.638c-0.797,0.01-1.641,0.021-2.523,0.032L73.256,44.539z"/>
		<path fill="#7C8792" d="M87.288,44.8h-3.227l25.208-25.208l0.057,0.003c0.676,0.028,1.623,0.068,2.741,0.118l0.295,0.013
			L87.288,44.8z M84.69,44.539h2.49l24.579-24.58c-0.959-0.042-1.778-0.077-2.387-0.103L84.69,44.539z"/>
		<path fill="#7C8792" d="M90.146,44.8h-3.227l25.09-25.09l0.057,0.002c0.831,0.037,1.756,0.079,2.735,0.124l0.294,0.014
			L90.146,44.8z M87.548,44.539h2.49l24.456-24.456c-0.848-0.039-1.651-0.075-2.383-0.108L87.548,44.539z"/>
		<path fill="#7C8792" d="M55.846,44.8H52.62l24.808-24.808l0.052-0.001c0.964-0.018,1.937-0.035,2.912-0.053l0.322-0.006
			L55.846,44.8z M53.249,44.539h2.49l24.334-24.334c-0.849,0.015-1.695,0.031-2.536,0.046L53.249,44.539z"/>
		<path fill="#7C8792" d="M64.421,44.8h-3.227l24.957-24.958l0.053,0c0.978-0.016,1.948-0.031,2.903-0.045l0.321-0.005L64.421,44.8z
			 M61.824,44.539h2.49l24.477-24.477c-0.834,0.013-1.679,0.026-2.529,0.039L61.824,44.539z"/>
		<path fill="#7C8792" d="M61.563,44.8h-3.227l24.91-24.91l0.053-0.001c0.973-0.016,1.943-0.032,2.905-0.047l0.321-0.005
			L61.563,44.8z M58.965,44.539h2.49l24.432-24.432c-0.839,0.014-1.684,0.027-2.531,0.042L58.965,44.539z"/>
		<path fill="#7C8792" d="M58.705,44.8h-3.227l24.86-24.86l0.053-0.001c0.969-0.017,1.939-0.034,2.908-0.05l0.321-0.005L58.705,44.8
			z M56.107,44.539h2.49l24.385-24.385c-0.844,0.015-1.689,0.029-2.534,0.044L56.107,44.539z"/>
		<path fill="#7C8792" d="M67.28,44.8h-3.227l25.002-25.002l0.053,0c0.984-0.015,1.953-0.029,2.901-0.043l0.32-0.004L67.28,44.8z
			 M64.682,44.539h2.49l24.52-24.52c-0.828,0.012-1.672,0.024-2.527,0.037L64.682,44.539z"/>
		<path fill="#7C8792" d="M72.997,44.8H69.77l25.086-25.086l0.053-0.001c1.003-0.014,1.971-0.027,2.897-0.039l0.32-0.004
			L72.997,44.8z M70.398,44.539h2.49l24.601-24.601c-0.812,0.011-1.655,0.022-2.524,0.034L70.398,44.539z"/>
		<path fill="#7C8792" d="M70.138,44.8h-3.227l25.044-25.045l0.053-0.001c0.991-0.014,1.96-0.028,2.899-0.041l0.321-0.004
			L70.138,44.8z M67.54,44.539h2.49l24.562-24.561c-0.821,0.011-1.665,0.023-2.525,0.036L67.54,44.539z"/>
	</g>
	<path fill="#7C8792" d="M34.653,65.236c-0.968,0-2.325-0.069-3.287-0.397c-1.403-0.479-2.47-1.004-2.777-1.161h-6.738
		c-0.191-0.005-4.459-0.15-7.091-3.163c-2.376-2.72-5.378-8.501-5.893-9.506L0,47.941v-3.18l159.172,0.001
		c0.086,0.006,2.127,0.153,3.974,1.034c1.724,0.822,9.134,3.916,9.6,4.11c0.219,0.063,1.454,0.471,1.454,1.617v2.159l-0.014,0.052
		c-0.011,0.039-0.281,0.95-1.611,1.087c-0.405,0.042-1.259,0.079-2.18,0.109l2.44,0.504c0.076,0.018,1.614,0.392,1.614,1.657v1.188
		c0.002,0.139-0.017,1.197-1.172,1.718c-0.983,0.443-10.536,4.755-10.536,4.755l-0.037,0.017l-0.04,0.009
		c-0.077,0.017-1.906,0.415-3.482,0.415H36.012C35.913,65.199,35.373,65.236,34.653,65.236z M28.684,62.896h0.097l0.086,0.045
		c0.012,0.006,1.177,0.621,2.75,1.158c0.861,0.293,2.126,0.355,3.035,0.355c0.75,0,1.31-0.042,1.315-0.042l0.03-0.001h123.185
		c1.369,0,3.005-0.332,3.276-0.389c0.656-0.296,9.551-4.312,10.498-4.738c0.733-0.331,0.713-0.977,0.712-0.984v-0.018v-1.191
		c0-0.645-0.992-0.892-1.002-0.894l-9.175-1.896l3.496-0.065c0.045,0,4.457-0.084,5.508-0.192c0.651-0.067,0.867-0.379,0.923-0.49
		v-2.03c0-0.624-0.89-0.867-0.899-0.869l-0.052-0.018c-0.32-0.134-7.869-3.282-9.658-4.136c-1.638-0.781-3.511-0.946-3.679-0.959
		H0.781v1.843l8.64,2.99l0.072,0.141c0.033,0.066,3.369,6.639,5.855,9.486c2.408,2.757,6.472,2.894,6.512,2.895H28.684z"/>
	<path fill="#7C8792" d="M161.711,43.215h-2.264v-0.781h2.181c0.057-0.014,0.094-0.029,0.118-0.041v-0.671
		c0-0.064-0.097-0.107-0.148-0.125h-2.542v-8.637h2.576c0.051-0.011,0.088-0.023,0.113-0.034v-0.58
		c-0.014-0.026-0.087-0.062-0.139-0.08h-2.551V19.385h2.576c0.052-0.011,0.088-0.023,0.114-0.034v-0.58
		c-0.014-0.026-0.087-0.062-0.139-0.08h-2.55V9.784h2.571c0.057-0.014,0.095-0.029,0.118-0.041V9.073
		c0-0.064-0.097-0.108-0.148-0.126h-2.542V7.588l0.342-0.043c0,0,1.422-0.18,2.045-0.263c0.151-0.021,0.247-0.047,0.303-0.067V6.979
		c-0.057-0.042-0.2-0.094-0.321-0.113l-7.966-0.701c-0.038-0.002-4.901-0.294-5.838-0.294c-0.554,0-0.633,0.519-0.644,0.624v34.398
		h-0.781V6.464l0.001-0.015c0.035-0.47,0.377-1.359,1.424-1.359c0.961,0,5.695,0.284,5.896,0.296l8.009,0.705
		c0.462,0.064,1.002,0.325,1.002,0.849l-0.002,0.478c-0.017,0.192-0.167,0.53-0.979,0.639c-0.214,0.028-0.523,0.068-0.835,0.109
		h0.985l0.04,0.008c0.273,0.059,0.791,0.322,0.791,0.899l-0.001,0.805c-0.003,0.054-0.051,0.531-0.776,0.68l-0.039,0.008h-1.873
		v7.345h1.854l0.037,0.007c0.384,0.075,0.798,0.374,0.798,0.854l-0.001,0.737c-0.005,0.085-0.068,0.517-0.783,0.65l-0.036,0.007
		h-1.87v11.319h1.854l0.037,0.007c0.384,0.075,0.798,0.374,0.798,0.854l-0.001,0.737c-0.005,0.085-0.068,0.518-0.783,0.65
		l-0.036,0.007h-1.869v7.075h1.858l0.04,0.008c0.273,0.059,0.791,0.322,0.791,0.898l-0.001,0.805
		c-0.003,0.054-0.051,0.531-0.776,0.68L161.711,43.215z"/>
	<path fill="#7C8792" d="M158.58,45.539l-0.088-0.776l2.937-0.333c0.112-0.017,0.261-0.07,0.318-0.113v-0.236
		c-0.056-0.021-0.151-0.047-0.303-0.067c-0.623-0.083-2.045-0.263-2.045-0.263l-0.342-0.043v-0.885h0.781v0.196
		c0.462,0.059,1.277,0.163,1.709,0.22c0.811,0.108,0.961,0.446,0.979,0.638l0.002,0.036v0.443c0,0.524-0.54,0.785-1.002,0.849
		L158.58,45.539z"/>
	<path fill="#7C8792" d="M159.167,8.204c-0.005-0.005-0.627-0.633-1.785-1.023c-1.232-0.416-4.185-1.031-5.632-1.114l0.045-0.78
		c1.501,0.086,4.561,0.724,5.837,1.154c1.349,0.455,2.068,1.19,2.098,1.221L159.167,8.204z"/>
	<polygon fill="#7C8792" points="159.389,10.361 153.001,8.361 159.681,8.361 159.681,8.751 155.556,8.751 159.506,9.988 	"/>
	
		<rect x="157.802" y="40.283" transform="matrix(0.2987 0.9543 -0.9543 0.2987 150.6333 -121.7974)" fill="#7C8792" width="0.781" height="2.631"/>
	<rect x="157.462" y="42.434" fill="#7C8792" width="2.219" height="0.781"/>
	<path fill="#7C8792" d="M159.448,19.971c-0.449,0-1.712-0.14-2.815-0.312c-2.317-0.363-2.317-0.574-2.317-0.76
		c0-0.211,0-0.393,2.647-0.622c1.224-0.105,2.463-0.17,2.476-0.17l0.02,0.39c-1.812,0.094-3.784,0.265-4.521,0.423
		c0.907,0.273,3.711,0.661,4.511,0.661V19.971z"/>
	<path fill="#7C8792" d="M159.448,33.522c-0.449,0-1.712-0.141-2.815-0.313c-2.317-0.362-2.317-0.573-2.317-0.76
		c0-0.211,0-0.393,2.647-0.621c1.224-0.105,2.463-0.17,2.476-0.171l0.02,0.39c-1.812,0.094-3.783,0.265-4.521,0.423
		c0.907,0.273,3.711,0.662,4.511,0.662V33.522z"/>
	<polygon fill="#7C8792" points="166.055,43.362 160.291,43.362 160.291,42.581 165.274,42.581 165.274,8.947 159.448,8.947 
		159.448,8.166 166.055,8.166 	"/>
	<path fill="#7C8792" d="M162.059,32.784l-0.027-0.39c0.076-0.005,7.586-0.534,8.99-0.661c1.219-0.111,1.227-1.145,1.227-1.189
		v-9.051c0-0.536-0.124-0.914-0.369-1.124c-0.261-0.223-0.584-0.18-0.588-0.18l-0.023,0.003l-0.024-0.002l-9.123-0.831l0.035-0.389
		l9.104,0.829c0.11-0.011,0.523-0.028,0.874,0.272c0.335,0.287,0.506,0.765,0.506,1.42v9.049c0,0.012,0.002,1.436-1.582,1.58
		C169.649,32.25,162.134,32.779,162.059,32.784z"/>
	<path fill="#7C8792" d="M137.657,40.228c-0.216-0.058-0.532-0.127-0.931-0.214c-1.789-0.389-5.511-1.2-11.155-3.476
		c-6.417-2.588-14.177-3.751-23.726-3.559c-8.862,0.18-32.32,1.961-32.556,1.979l-46.664,4.083h-3.323V38.26h3.289l46.634-4.08
		c0.241-0.019,23.721-1.801,32.604-1.981c9.656-0.195,17.518,0.987,24.034,3.615c5.583,2.251,9.261,3.052,11.029,3.437
		c0.41,0.089,0.733,0.16,0.969,0.223L137.657,40.228z"/>
	<path fill="#7C8792" d="M96.926,45.231v-0.391c3.217,0,3.509-1.53,3.511-1.545l0.008-0.032c0.02-0.059,2.037-5.91,2.774-8.634
		c0.179-0.661,0.122-1.153-0.169-1.462c-0.638-0.675-2.186-0.358-2.202-0.355l-0.036,0.004c-0.016,0.001-1.651,0.041-5.908,0.228
		l-0.017-0.39c4.029-0.177,5.713-0.222,5.899-0.227c0.199-0.04,1.796-0.323,2.547,0.473c0.391,0.415,0.48,1.031,0.263,1.833
		c-0.724,2.675-2.671,8.337-2.778,8.646C100.775,43.586,100.319,45.231,96.926,45.231z"/>
	<path fill="#7C8792" d="M118.786,45.372c-0.112,0-0.606-0.047-0.938-0.847c-0.337-0.812-0.11-1.941-0.1-1.989
		c0.009-0.041,0.849-3.763,1.454-6.118c0.259-1.006,0.644-1.604,1.145-1.775c0.473-0.163,0.854,0.125,0.87,0.138l-0.238,0.31
		c-0.01-0.007-0.237-0.173-0.51-0.077c-0.252,0.089-0.611,0.422-0.888,1.502c-0.604,2.349-1.442,6.065-1.45,6.103
		c-0.001,0.007-0.212,1.057,0.079,1.757c0.252,0.605,0.562,0.607,0.573,0.606l0.027,0.39
		C118.806,45.372,118.798,45.372,118.786,45.372z"/>
	<path fill="#7C8792" d="M118.83,45.371V44.98h20.575c0.083-0.005,2.3-0.157,2.3-2.087c0-1.978-1.289-2.219-3.071-2.552
		c-0.243-0.045-0.492-0.092-0.746-0.145l0.08-0.382c0.251,0.052,0.498,0.098,0.738,0.143c1.819,0.34,3.39,0.633,3.39,2.936
		c0,2.301-2.653,2.476-2.68,2.478H118.83z"/>
	
		<rect x="7.371" y="56.848" transform="matrix(0.8419 0.5396 -0.5396 0.8419 33.7736 -1.204)" fill="#7C8792" width="23.142" height="0.391"/>
	<path fill="#7C8792" d="M166.717,54.666c-1.263-0.001-126.305-0.111-131.052-0.111c-4.65,0-6.447-0.86-6.619-0.948L9.129,45.843
		l0.142-0.364l19.938,7.772l0.01,0.005c0.017,0.009,1.769,0.908,6.446,0.908c4.747,0,129.79,0.109,131.052,0.111V54.666z"/>
	<path fill="#7C8792" d="M29.227,34.751c-1.296,0-2.548-0.12-2.561-0.121l0.038-0.389c0.012,0.001,1.246,0.119,2.523,0.119
		c0.889,0,9.902-5.311,16.085-9.084l-2.349-0.104l0.018-0.39l3.626,0.16l-0.545,0.333C44.477,26.246,30.546,34.751,29.227,34.751z"
		/>
	<path fill="#7C8792" d="M35.888,34.299c-0.418,0-0.711-0.162-0.803-0.443c-0.093-0.284-0.051-0.704,0.675-1.092
		c0.395-0.211,11.508-6.455,11.62-6.517c0.151-0.083,3.703-2.001,7.146-2.075c3.375-0.073,45.86-1.792,46.748-1.828
		c0.026-0.004,0.086-0.011,0.162-0.011c0.298,0,0.539,0.104,0.678,0.294c0.167,0.227,0.183,0.559,0.048,0.986
		c-0.37,1.172-1.681,5.309-1.743,5.506c-0.034,0.138-0.357,1.197-2.371,1.449c-1.978,0.247-45.026,3.027-46.857,3.145
		c-0.077,0.006-7.855,0.583-9.93,0.583h-5.283C35.963,34.297,35.931,34.299,35.888,34.299z M101.437,22.724
		c-0.065,0-0.11,0.007-0.111,0.007l-0.024,0.002c-0.434,0.018-43.368,1.755-46.766,1.829c-3.349,0.072-6.93,2.006-6.966,2.026
		c-0.456,0.256-11.226,6.307-11.625,6.521c-0.391,0.209-0.556,0.419-0.488,0.626c0.053,0.161,0.344,0.173,0.432,0.173
		c0.036,0,0.061-0.002,0.064-0.002l0.018-0.001h5.292c2.06,0,9.825-0.576,9.903-0.582c0.45-0.029,44.87-2.897,46.836-3.143
		c1.809-0.226,2.031-1.116,2.04-1.154l0.005-0.018c0,0,1.367-4.312,1.745-5.512c0.094-0.298,0.097-0.518,0.01-0.638
		C101.714,22.741,101.536,22.724,101.437,22.724z"/>
	<path fill="#7C8792" d="M54.456,41.795c-0.12,0-0.396-0.027-0.645-0.248c-0.302-0.269-0.454-0.719-0.454-1.339
		c0-1.489,0.137-3.726,0.139-3.749c0.005-0.062,0.121-1.498,0.866-3.999c0.741-2.483,3.884-11.631,3.916-11.724l0.369,0.127
		c-0.031,0.092-3.172,9.232-3.911,11.708c-0.732,2.456-0.85,3.899-0.851,3.914c-0.001,0.019-0.138,2.245-0.138,3.721
		c0,0.492,0.109,0.853,0.317,1.043c0.188,0.171,0.4,0.154,0.409,0.153l0.02-0.001h16.373c0.027,0,0.681-0.015,0.844-0.688
		c0.199-0.82,3.656-20.438,3.69-20.636l0.385,0.068c-0.143,0.809-3.493,19.828-3.695,20.66c-0.189,0.78-0.883,0.986-1.224,0.986
		H54.501C54.491,41.795,54.475,41.795,54.456,41.795z"/>
	<polygon fill="#7C8792" points="99.375,19.713 98.984,19.713 98.984,17.308 99.86,16.27 100.159,16.521 99.375,17.451 	"/>
	<polygon fill="#7C8792" points="106.274,19.713 105.883,19.713 105.883,17.451 105.099,16.521 105.397,16.27 106.274,17.308 	"/>
	<path fill="#7C8792" d="M105.134,16.786h-5.07c-1.055,0-1.914-0.858-1.914-1.914s0.859-1.915,1.914-1.915h5.07
		c1.056,0,1.914,0.859,1.914,1.915S106.19,16.786,105.134,16.786z M100.064,13.739c-0.625,0-1.133,0.508-1.133,1.133
		s0.508,1.133,1.133,1.133h5.07c0.625,0,1.133-0.508,1.133-1.133s-0.508-1.133-1.133-1.133H100.064z"/>
	<polygon fill="#7C8792" points="106.391,16.045 106.103,15.78 109.497,12.084 110.378,0 110.768,0.028 109.876,12.248 	"/>
	<path fill="#7C8792" d="M59.517,20.802l-0.355-0.161l0.472-1.041l4.2-2.384h9.378c0.036,0.001,0.75,0.026,1.08,0.466
		c0.282,0.376,0.912,1.526,0.938,1.575l0.014,0.033c0.008,0.026,0.083,0.269,0.083,0.788h-0.391c0-0.388-0.046-0.597-0.061-0.652
		c-0.084-0.154-0.651-1.18-0.897-1.509c-0.18-0.239-0.619-0.305-0.773-0.31h-9.269l-4,2.27L59.517,20.802z"/>
	<path fill="#7C8792" d="M77.544,20.076h-0.391v-0.522c-0.001-0.023-0.012-0.715,0.939-1.19c0.856-0.428,2.371-0.863,2.435-0.881
		c0.036-0.011,0.92-0.266,1.642-0.266h27.843l0.012,0.001c0.027,0.003,0.658,0.083,1.133,0.379c0.426,0.266,1.569,0.757,1.58,0.762
		l0.029,0.016c0.022,0.014,0.533,0.353,0.533,1.019v0.318h-0.391v-0.318c0-0.41-0.284-0.639-0.343-0.683
		c-0.156-0.067-1.189-0.516-1.615-0.782c-0.371-0.232-0.882-0.31-0.962-0.321H82.169c-0.665,0-1.525,0.248-1.534,0.25
		c-0.017,0.005-1.545,0.444-2.368,0.855c-0.714,0.357-0.723,0.818-0.723,0.838V20.076z"/>
	
		<rect x="19.772" y="38.547" transform="matrix(0.9686 0.2487 -0.2487 0.9686 11.0484 -3.6493)" fill="#7C8792" width="0.391" height="6.709"/>
	<polygon fill="#7C8792" points="21.856,42.41 19.887,42.41 19.887,42.02 21.698,42.02 22.991,40.764 25.96,40.764 26.649,39.403 
		20.656,39.403 20.656,39.012 27.285,39.012 26.201,41.154 23.149,41.154 	"/>
	<path fill="#7C8792" d="M146.587,24.036h-24.572c-1.771,0-2.575-0.787-2.608-0.821l-2.667-2.971l0.291-0.261l2.66,2.964l0,0
		c0,0,0.729,0.698,2.324,0.698h24.572V24.036z"/>
	<g>
		<polygon fill="#7C8792" points="135.654,54.668 135.299,54.505 136.128,52.696 138.963,52.696 139.625,54.52 139.257,54.653 
			138.69,53.087 136.378,53.087 		"/>
		<polygon fill="#7C8792" points="155.59,54.668 155.235,54.505 156.064,52.696 158.9,52.696 159.561,54.52 159.193,54.653 
			158.625,53.087 156.314,53.087 		"/>
		<path fill="#7C8792" d="M153.711,35.402h-4.241l1.217-2.489h1.762L153.711,35.402z M150.096,35.011h2.979l-0.866-1.708h-1.278
			L150.096,35.011z"/>
		
			<rect x="143.831" y="33.158" transform="matrix(0.8101 0.5863 -0.5863 0.8101 53.1876 -76.0761)" fill="#7C8792" width="0.391" height="21.811"/>
		
			<rect x="145.919" y="43.868" transform="matrix(0.2565 0.9665 -0.9665 0.2565 157.8686 -117.1035)" fill="#7C8792" width="18.266" height="0.391"/>
	</g>
	<rect x="167.576" y="21.891" fill="#7C8792" width="9.424" height="0.781"/>
	<rect x="167.576" y="28.75" fill="#7C8792" width="9.424" height="0.781"/>
	<polygon fill="#7C8792" points="170.279,29.533 169.889,29.533 169.889,28.498 169.407,27.829 167.741,27.829 167.136,28.63 
		159.571,28.63 159.571,28.239 166.941,28.239 167.547,27.438 169.607,27.438 170.279,28.371 	"/>
	<polygon fill="#7C8792" points="169.606,30.932 167.547,30.932 166.941,30.131 159.571,30.131 159.571,29.74 167.136,29.74 
		167.741,30.541 169.407,30.541 169.889,29.873 169.889,28.836 170.279,28.836 170.279,29.999 	"/>
	<path fill="#7C8792" d="M156.329,45.451H12.391l1.954-7.682L38.112,24l0.047-0.02c0.351-0.146,8.723-3.567,20.141-4.122
		c11.297-0.549,49.51-0.957,49.895-0.961l0.02,0l0.021,0c0.137,0.006,13.818,0.56,19.166,1c5.369,0.441,15.341,2.245,15.441,2.263
		l0.642,0.116v6.127L135.961,30c-0.625,0.082-2.385,0.525-2.994,1.582c-0.771,1.337-0.372,2.799,0.12,4.054
		c0.373,0.952,0.998,2.173,1.3,2.748c0.741,0.133,2.503,0.431,4.278,0.596c3.221,0.299,13.71,0.801,13.816,0.806l0.072,0.003
		l0.07,0.017c0.112,0.026,1.118,0.289,1.768,1.337c0.519,0.835,1.401,2.989,1.501,3.232L156.329,45.451z M14.401,43.888h139.588
		c-0.312-0.719-0.689-1.542-0.926-1.922c-0.254-0.409-0.618-0.575-0.755-0.625c-1.143-0.055-10.663-0.516-13.788-0.806
		c-2.399-0.223-4.698-0.667-4.795-0.685l-0.362-0.07l-0.176-0.324c-0.042-0.076-1.017-1.877-1.555-3.25
		c-0.544-1.39-1.139-3.461-0.019-5.404c1.069-1.855,3.754-2.296,4.116-2.347l6.191-1.317v-3.555
		c-2.288-0.404-10.14-1.758-14.649-2.129c-5.221-0.429-18.481-0.97-19.08-0.994c-1.057,0.011-38.65,0.417-49.816,0.959
		c-10.725,0.521-18.893,3.713-19.573,3.986L15.697,38.791L14.401,43.888z"/>
</g>
</svg>
