<?xml version="1.0" encoding="utf-8"?>
<!-- Generator: Adobe Illustrator 16.0.0, SVG Export Plug-In . SVG Version: 6.00 Build 0)  -->
<!DOCTYPE svg PUBLIC "-//W3C//DTD SVG 1.1//EN" "http://www.w3.org/Graphics/SVG/1.1/DTD/svg11.dtd">
<svg version="1.1" id="Layer_1" xmlns="http://www.w3.org/2000/svg" xmlns:xlink="http://www.w3.org/1999/xlink" x="0px" y="0px"
	 width="137.238px" height="93.56px" viewBox="0 0 137.238 93.56" enable-background="new 0 0 137.238 93.56" xml:space="preserve">
<g>
	<path fill-rule="evenodd" clip-rule="evenodd" fill="#0061AC" d="M31.214,43.584L31.214,43.584
		c4.532-6.725,6.823-13.598,6.823-21.717c0-8.069-2.44-15.094-6.823-21.867l0,0c-3.985,6.376-6.525,13.001-6.774,20.372
		C24.19,28.641,26.582,36.758,31.214,43.584L31.214,43.584z M31.214,41.989L31.214,41.989c-1.246-2.49-1.893-5.181-1.893-7.92
		c0-2.689,0.647-5.478,1.893-7.87l0,0c1.195,2.49,1.942,5.081,1.942,7.87C33.156,36.959,32.409,39.399,31.214,41.989L31.214,41.989z
		 M26.134,20.173c0.448-5.977,2.291-11.356,5.08-16.785v0.05c3.237,5.778,4.881,11.455,5.229,18.031
		c0.149,2.888-0.149,5.678-0.747,8.518c0.15-2.89-0.05-5.63-0.548-8.469c-0.698-3.935-2.092-7.471-3.935-11.058l0,0
		c-1.644,3.188-2.889,6.376-3.637,9.912c-0.747,3.237-0.896,6.276-0.896,9.614C26.233,26.698,25.884,23.511,26.134,20.173
		L26.134,20.173z"/>
	<path fill-rule="evenodd" clip-rule="evenodd" fill="#0061AC" d="M24.291,51.602c1.294-1.294,2.54-1.941,4.383-1.743
		c3.038,0.25,4.931,2.044,5.081,5.031c0.299,5.677-7.222,9.115-11.904,8.865c-6.824-0.349-11.356-4.731-12.452-11.007
		c-0.647-3.786,0.797-7.971,3.486-10.859c2.641-2.838,6.227-3.984,9.962-4.084V20.771c-12.751,0-22.164,9.014-22.812,21.417
		C-0.663,55.985,9.348,65.35,22.099,65.797c6.824,0.25,11.904-2.291,16.537-6.674V44.431H24.291V51.602L24.291,51.602z"/>
	<polygon fill-rule="evenodd" clip-rule="evenodd" fill="#0061AC" points="42.022,65.3 46.306,65.3 46.306,47.767 48.248,47.767 
		48.248,44.431 42.022,44.431 42.022,65.3 	"/>
	<path fill-rule="evenodd" clip-rule="evenodd" fill="#0061AC" d="M50.489,44.431L48.447,65.3h3.785l0.448-3.836h1.644l0.498,3.836
		h3.785l-2.042-20.869H50.489L50.489,44.431z M52.83,57.678l0.598-7.521h0.2l0.597,7.521H52.83L52.83,57.678z"/>
	<path fill-rule="evenodd" clip-rule="evenodd" fill="#0061AC" d="M68.619,54.54v-0.198c0.947-0.15,0.896-1.993,0.896-2.84v-3.336
		c0-2.541-0.199-3.735-3.138-3.735h-3.536c-3.038,0-3.188,1.493-3.188,3.735v2.738h4.234v-2.34c0-0.548,0.448-0.698,0.696-0.698
		c0.399,0,0.648,0.349,0.648,0.698v2.489c0,1.295-0.398,1.545-1.594,1.545h-0.797v3.636h0.697c1.594,0,1.694,0.747,1.694,1.395
		v3.785c0,0.349-0.249,0.697-0.648,0.697c-0.249,0-0.696-0.149-0.696-0.697v-3.686h-4.234v3.835c0,2.989,0.15,3.736,3.188,3.736
		h3.536c2.74,0,3.138-0.499,3.138-3.736V57.38C69.516,56.633,69.665,54.54,68.619,54.54L68.619,54.54z"/>
	<polygon fill-rule="evenodd" clip-rule="evenodd" fill="#0061AC" points="71.458,65.3 75.691,65.3 75.691,47.816 77.037,47.816 
		77.037,65.3 81.32,65.3 81.32,44.431 71.458,44.431 71.458,65.3 	"/>
	<path fill-rule="evenodd" clip-rule="evenodd" fill="#0061AC" d="M90.235,44.431h-6.674V65.3h4.233v-7.123h2.44
		c2.989,0,3.188-1.345,3.188-3.686v-6.325C93.424,46.322,93.225,44.431,90.235,44.431L90.235,44.431z M89.14,53.894
		c0,0.696-0.349,1.096-0.797,1.096h-0.548v-7.223h0.548c0.449,0,0.797,0.399,0.797,1.047V53.894L89.14,53.894z"/>
	<path fill-rule="evenodd" clip-rule="evenodd" fill="#0061AC" d="M101.94,44.431h-3.586c-2.938,0-3.138,1.743-3.138,3.685v13.448
		c0,2.441,0.199,3.736,3.138,3.736h3.586c2.989,0,3.138-1.146,3.138-3.736V48.166C105.079,46.174,104.93,44.431,101.94,44.431
		L101.94,44.431z M100.845,61.314c0,0.349-0.299,0.647-0.697,0.647c-0.249,0-0.648-0.1-0.648-0.647V48.514
		c0-0.548,0.399-0.697,0.648-0.697c0.398,0,0.697,0.35,0.697,0.697V61.314L100.845,61.314z"/>
	<polygon fill-rule="evenodd" clip-rule="evenodd" fill="#0061AC" points="115.887,44.431 114.193,53.992 112.649,44.431 
		107.071,44.431 107.071,65.3 111.404,65.3 111.404,55.835 111.554,55.835 112.948,65.3 115.588,65.3 117.033,55.835 
		117.182,55.835 117.182,65.3 121.465,65.3 121.465,44.431 115.887,44.431 	"/>
</g>
</svg>
