<?xml version="1.0" encoding="utf-8"?>
<!-- Generator: Adobe Illustrator 16.0.0, SVG Export Plug-In . SVG Version: 6.00 Build 0)  -->
<!DOCTYPE svg PUBLIC "-//W3C//DTD SVG 1.1//EN" "http://www.w3.org/Graphics/SVG/1.1/DTD/svg11.dtd">
<svg version="1.1" id="Layer_1" xmlns="http://www.w3.org/2000/svg" xmlns:xlink="http://www.w3.org/1999/xlink" x="0px" y="0px"
	 width="239.5px" height="23.491px" viewBox="-14 81.182 239.5 23.491" enable-background="new -14 81.182 239.5 23.491"
	 xml:space="preserve">
<g>
	<g>
		<polygon fill="#FFFFFF" points="133.085,96.427 133.085,93.161 128.107,93.161 128.107,96.427 126.166,96.427 126.166,88.089 
			128.107,88.089 128.107,91.482 133.085,91.482 133.085,88.089 135.025,88.089 135.025,96.427 		"/>
		<path fill="#FFFFFF" d="M141.847,96.688c-0.92,0-1.691-0.113-2.293-0.328c-0.594-0.213-1.068-0.508-1.416-0.869
			c-0.344-0.359-0.588-0.793-0.729-1.277c-0.141-0.502-0.213-1.044-0.213-1.615v-0.681c0-0.572,0.072-1.114,0.213-1.614
			c0.141-0.488,0.385-0.918,0.729-1.28c0.348-0.36,0.822-0.653,1.416-0.868c0.604-0.217,1.373-0.328,2.293-0.328h0.471
			c0.922,0,1.691,0.111,2.293,0.328c0.596,0.215,1.07,0.508,1.418,0.868c0.344,0.362,0.59,0.792,0.727,1.28
			c0.143,0.5,0.215,1.043,0.215,1.614v0.679c0,0.57-0.072,1.113-0.215,1.613c-0.139,0.486-0.383,0.918-0.727,1.281
			c-0.348,0.359-0.822,0.654-1.418,0.867c-0.602,0.217-1.373,0.326-2.293,0.326L141.847,96.688L141.847,96.688z M142.083,89.52
			c-0.717,0-1.262,0.072-1.658,0.221c-0.406,0.155-0.711,0.365-0.902,0.634c-0.191,0.263-0.305,0.569-0.338,0.909
			c-0.031,0.307-0.047,0.635-0.047,0.972c0,0.339,0.016,0.667,0.047,0.979c0.033,0.344,0.146,0.652,0.338,0.918
			c0.193,0.266,0.496,0.479,0.902,0.631c0.396,0.15,0.941,0.221,1.658,0.221c0.719,0,1.262-0.07,1.66-0.221
			c0.404-0.152,0.709-0.365,0.902-0.631c0.189-0.266,0.303-0.574,0.336-0.918c0.033-0.314,0.049-0.643,0.049-0.979
			c0-0.335-0.016-0.663-0.049-0.972c-0.033-0.341-0.148-0.646-0.336-0.909c-0.193-0.269-0.498-0.479-0.902-0.634
			C143.345,89.593,142.802,89.52,142.083,89.52z"/>
		<polygon fill="#FFFFFF" points="151.666,96.427 147.849,88.361 147.849,88.089 149.833,88.089 152.71,94.841 155.587,88.089 
			157.568,88.089 157.568,88.361 153.753,96.427 		"/>
		<polygon fill="#FFFFFF" points="159.513,96.427 159.513,88.089 167.47,88.089 167.47,89.766 161.453,89.766 161.453,91.482 
			166.167,91.482 166.167,93.161 161.453,93.161 161.453,94.747 167.47,94.747 167.47,96.427 		"/>
		<path fill="#FFFFFF" d="M176.542,96.427l-1.75-2.742h-0.111c-0.465,0-0.918-0.006-1.355-0.014
			c-0.424-0.01-0.844-0.047-1.248-0.115l-0.24-0.039v2.908h-1.939v-8.359c0.688-0.074,1.412-0.135,2.16-0.174
			c0.814-0.043,1.629-0.065,2.41-0.065h0.367c0.707,0,1.295,0.073,1.752,0.22c0.447,0.141,0.809,0.336,1.074,0.575
			c0.258,0.235,0.441,0.515,0.543,0.827c0.105,0.325,0.16,0.678,0.16,1.045v0.523c0,0.514-0.102,0.986-0.305,1.406
			c-0.197,0.399-0.549,0.717-1.059,0.939l-0.217,0.096l1.713,2.709v0.258h-1.955V96.427z M174.498,89.507
			c-0.305,0-0.688,0.01-1.137,0.025c-0.449,0.018-0.9,0.049-1.336,0.093l-0.186,0.019v2.219l0.178,0.023
			c0.412,0.054,0.811,0.086,1.182,0.1c0.365,0.012,0.666,0.02,0.896,0.02c0.537,0,0.947-0.023,1.246-0.073
			c0.322-0.054,0.557-0.136,0.721-0.252c0.178-0.126,0.289-0.294,0.324-0.495c0.025-0.158,0.041-0.35,0.041-0.572
			c0-0.121-0.012-0.245-0.027-0.365c-0.025-0.16-0.115-0.3-0.262-0.42c-0.137-0.108-0.336-0.189-0.604-0.244
			C175.281,89.53,174.941,89.507,174.498,89.507z"/>
		<polygon fill="#FFFFFF" points="187.707,96.427 182.822,90.443 182.822,96.427 180.88,96.427 180.88,88.089 182.931,88.089 
			187.812,94.071 187.812,88.089 189.755,88.089 189.755,96.427 		"/>
		<polygon fill="#FFFFFF" points="192.257,96.427 192.257,88.089 200.216,88.089 200.216,89.766 194.197,89.766 194.197,91.482 
			198.91,91.482 198.91,93.161 194.197,93.161 194.197,94.747 200.216,94.747 200.216,96.427 		"/>
		<polygon fill="#FFFFFF" points="205.638,96.427 205.638,89.766 202.242,89.766 202.242,88.089 210.988,88.089 210.988,89.766 
			207.58,89.766 207.58,96.427 		"/>
		<rect x="213.13" y="88.089" fill="#FFFFFF" width="1.938" height="8.338"/>
		<path fill="#FFFFFF" d="M221.865,96.688c-0.895,0-1.643-0.113-2.227-0.328c-0.574-0.213-1.037-0.506-1.367-0.867
			c-0.334-0.359-0.574-0.791-0.713-1.279c-0.141-0.502-0.213-1.044-0.213-1.615v-0.681c0-0.572,0.072-1.114,0.213-1.614
			c0.139-0.488,0.377-0.92,0.713-1.282c0.332-0.361,0.795-0.653,1.367-0.868c0.584-0.217,1.332-0.326,2.227-0.326h0.471
			c0.578,0,1.15,0.038,1.697,0.109c0.488,0.067,0.984,0.16,1.467,0.277v1.701c-0.227-0.059-0.451-0.111-0.678-0.156
			c-0.314-0.062-0.625-0.114-0.926-0.153c-0.301-0.036-0.596-0.068-0.873-0.085c-0.281-0.019-0.535-0.025-0.756-0.025
			c-0.707,0-1.242,0.066-1.639,0.2c-0.406,0.139-0.713,0.343-0.904,0.599c-0.193,0.256-0.307,0.562-0.342,0.912
			c-0.031,0.317-0.047,0.672-0.047,1.051c0,0.381,0.016,0.734,0.047,1.052c0.033,0.349,0.148,0.659,0.34,0.917
			c0.195,0.264,0.5,0.467,0.906,0.605c0.395,0.137,0.932,0.203,1.639,0.203c0.223,0,0.479-0.01,0.756-0.025
			c0.275-0.018,0.57-0.047,0.873-0.086s0.615-0.094,0.928-0.16c0.227-0.049,0.451-0.102,0.676-0.162v1.711
			c-0.482,0.113-0.977,0.203-1.469,0.266c-0.545,0.072-1.117,0.111-1.695,0.111H221.865z"/>
	</g>
	<path fill="#00B4EC" d="M88.57,91.85c0.419,0.025,0.839,0.049,1.26,0.072c4.045,0.221,8.12,0.336,12.221,0.336
		c4.199,0,8.372-0.119,12.516-0.352c0.322-0.02,0.644-0.037,0.964-0.057c0.002,0,0.005,0,0.007,0
		c0.026-0.002,0.052-0.004,0.076-0.004c0.001-0.002,0.002-0.004,0.003-0.005c0.215-0.034,0.41-0.145,0.551-0.313
		c0.158-0.19,0.229-0.441,0.197-0.686c-0.004-0.023-0.007-0.049-0.01-0.072l0,0c-0.014-0.092-0.025-0.182-0.041-0.273
		c-0.007-0.045-0.014-0.093-0.022-0.139c-0.017-0.099-0.032-0.197-0.052-0.297c-0.002-0.012-0.004-0.021-0.007-0.034
		c-0.024-0.129-0.05-0.259-0.079-0.388c0-0.005-0.002-0.01-0.002-0.015c-0.204-0.931-0.494-1.827-0.867-2.679
		c-3.884,2.277-8.406,3.584-13.233,3.584c-4.829,0-9.35-1.307-13.234-3.586c-0.439,1.004-0.764,2.068-0.966,3.174
		c-0.005,0.029-0.011,0.061-0.017,0.09c-0.004,0.023-0.008,0.047-0.012,0.068c-0.032,0.188-0.061,0.376-0.086,0.566
		c-0.031,0.244,0.041,0.494,0.198,0.684C88.093,91.718,88.324,91.837,88.57,91.85z"/>
	<path fill="#00B4EC" d="M90.322,85.546c0.103,0.072,0.207,0.148,0.31,0.221c0.009,0.004,0.019,0.007,0.027,0.01
		c-0.002,0-0.006,0.002-0.009,0.004c3.231,2.254,7.161,3.576,11.4,3.576c3.885,0,7.509-1.111,10.576-3.032h0.001
		c0.033-0.022,0.068-0.044,0.101-0.065c0.026-0.018,0.054-0.033,0.08-0.051c0.087-0.057,0.173-0.111,0.259-0.169
		c0.01-0.008,0.022-0.015,0.033-0.022c0.23-0.153,0.455-0.31,0.678-0.471c0.391-0.285,0.485-0.828,0.213-1.228
		c-0.229-0.337-0.475-0.664-0.732-0.981c-0.014-0.017-0.027-0.034-0.043-0.051c-0.023-0.031-0.047-0.061-0.07-0.09
		c0,0.001-0.002,0.002-0.002,0.002c-0.614-0.738-1.299-1.412-2.047-2.015c-1.311,3.729-4.866,6.403-9.044,6.403
		c-4.18,0-7.734-2.674-9.048-6.404c-0.942,0.76-1.785,1.635-2.512,2.605c0-0.002,0-0.002,0-0.002
		c-0.014,0.02-0.028,0.039-0.044,0.061c-0.002,0.002-0.004,0.005-0.008,0.008l0,0c-0.112,0.153-0.224,0.307-0.329,0.464
		C89.838,84.717,89.932,85.26,90.322,85.546z"/>
	<path fill="#00B4EC" d="M113.85,100.376c0-0.004,0-0.006,0-0.008c-0.017-0.01-0.035-0.023-0.054-0.037
		c-0.006-0.006-0.012-0.01-0.019-0.014c-0.038-0.029-0.08-0.057-0.119-0.086c-0.073-0.051-0.147-0.105-0.222-0.158
		c-0.056-0.037-0.109-0.074-0.164-0.113c-0.125-0.086-0.249-0.166-0.375-0.252c-0.004-0.002-0.008-0.004-0.012-0.006l0,0
		c-3.119-2.023-6.84-3.199-10.835-3.199c-3.784,0-7.322,1.053-10.336,2.887c0,0,0,0,0-0.002c-0.02,0.012-0.04,0.023-0.06,0.035
		c-0.04,0.025-0.079,0.051-0.119,0.074c-0.073,0.045-0.146,0.09-0.218,0.137c-0.002,0.002-0.005,0.004-0.009,0.006
		c-0.335,0.213-0.664,0.439-0.987,0.672c-0.391,0.285-0.484,0.828-0.213,1.227c0.053,0.08,0.11,0.16,0.166,0.236l0,0
		c0.003,0.006,0.006,0.012,0.011,0.018c0.088,0.121,0.178,0.244,0.269,0.365c0.008,0.01,0.016,0.02,0.023,0.027
		c0.098,0.129,0.198,0.256,0.3,0.379c0.001,0.002,0.003,0.006,0.004,0.006c0.099,0.121,0.201,0.242,0.302,0.357l0,0
		c0.555,0.635,1.162,1.221,1.819,1.748c1.314-3.73,4.869-6.404,9.049-6.404c4.178,0,7.732,2.672,9.048,6.404
		c0.446-0.359,0.869-0.748,1.271-1.156l0,0c0.008-0.008,0.018-0.016,0.025-0.027c0.051-0.051,0.102-0.104,0.151-0.156
		c0.019-0.021,0.038-0.039,0.056-0.059c0.064-0.07,0.13-0.141,0.193-0.211c0.023-0.025,0.049-0.057,0.073-0.082
		c0.039-0.043,0.077-0.088,0.116-0.131c0.031-0.039,0.063-0.076,0.095-0.113c0.029-0.035,0.058-0.068,0.087-0.105
		c0.035-0.041,0.07-0.084,0.104-0.127c0.022-0.027,0.046-0.057,0.067-0.086c0.039-0.047,0.078-0.096,0.115-0.145
		c0.002,0,0.002,0,0.002-0.002c0.098-0.125,0.194-0.254,0.287-0.385c0.01-0.01,0.019-0.023,0.027-0.035
		c0.039-0.053,0.076-0.107,0.113-0.16c0.012-0.018,0.021-0.031,0.031-0.045v-0.002c0.025-0.035,0.052-0.07,0.076-0.109
		C114.248,101.169,114.18,100.669,113.85,100.376z"/>
	<path fill="#00B4EC" d="M115.531,93.792c-0.059-0.002-0.118-0.006-0.179-0.01l0,0c-0.054-0.004-0.11-0.006-0.164-0.012
		c-0.177-0.01-0.354-0.02-0.532-0.029h0.001c-4.173-0.234-8.375-0.355-12.605-0.355c-4.067,0-8.108,0.113-12.121,0.33
		c-0.455,0.023-0.907,0.049-1.361,0.076c-0.248,0.016-0.478,0.133-0.636,0.322c-0.157,0.191-0.229,0.439-0.198,0.686
		c0.029,0.223,0.064,0.443,0.104,0.668c0.009,0.049,0.019,0.1,0.028,0.148c0.003,0.016,0.005,0.031,0.009,0.047l0,0
		c0.203,1.057,0.521,2.074,0.941,3.035c3.884-2.279,8.405-3.588,13.234-3.588c4.827,0,9.35,1.309,13.233,3.588
		c0.347-0.797,0.624-1.631,0.826-2.494l0,0c0.028-0.127,0.057-0.254,0.082-0.381c0.008-0.033,0.013-0.068,0.02-0.098
		c0.021-0.111,0.041-0.217,0.061-0.326c0.002-0.016,0.006-0.025,0.009-0.039c-0.002,0-0.002,0-0.002,0
		c0.032-0.186,0.062-0.373,0.085-0.561c0.032-0.246-0.039-0.494-0.197-0.686C116.01,93.927,115.781,93.807,115.531,93.792z"/>
	<g>
		<path fill="#FFFFFF" d="M-0.94,101.714l-1.195-2.76h-6.713l-1.222,2.76H-14l8.308-17.837h0.584l8.175,17.837H-0.94z
			 M-5.505,91.388l-2.149,4.856h4.352l-2.097-4.856H-5.505z"/>
		<path fill="#FFFFFF" d="M15.409,87.221h-5.096v14.492H6.359V87.221H1.236v-3.053h14.175v3.053H15.409z"/>
		<path fill="#FFFFFF" d="M26.875,98.475h-0.583l-4.884-5.336c-0.026,0.026-0.054,0.026-0.08,0.026v8.548h-3.795V83.903h0.583
			l8.467,9.795l8.44-9.795h0.558v17.811h-3.822v-8.547c-0.026-0.026-0.053-0.026-0.106-0.026L26.875,98.475z"/>
		<path fill="#FFFFFF" d="M41.102,99.458c-1.699-1.725-2.547-3.877-2.547-6.504c0-2.548,0.902-4.697,2.68-6.45
			c1.805-1.751,4.061-2.627,6.769-2.627c2.733,0,4.99,0.876,6.742,2.627c1.752,1.726,2.628,3.876,2.628,6.45
			s-0.876,4.75-2.655,6.477c-1.752,1.725-4.008,2.574-6.742,2.574C45.11,102.005,42.828,101.155,41.102,99.458z M44.075,88.812
			c-1.035,1.115-1.54,2.496-1.54,4.142c0,1.699,0.505,3.105,1.487,4.219c1.008,1.117,2.335,1.674,4.008,1.674
			c1.619,0,2.946-0.557,3.929-1.699c1.007-1.141,1.513-2.521,1.513-4.193c0-1.646-0.505-3.026-1.513-4.143
			c-0.982-1.113-2.31-1.672-3.929-1.672C46.412,87.141,45.11,87.698,44.075,88.812z"/>
		<path fill="#FFFFFF" d="M59.443,97.014c0.77,0.586,1.699,1.035,2.733,1.383c1.062,0.342,1.99,0.502,2.813,0.502
			c1.806,0,3.054-0.635,3.054-1.938c0-1.193-1.328-2.146-2.946-2.865c-2.336-1.035-5.468-2.362-5.415-5.414
			c0-1.46,0.557-2.654,1.646-3.531c1.114-0.875,2.547-1.326,4.326-1.326c1.885,0,3.61,0.371,5.229,1.113v3.398
			c-0.609-0.398-1.38-0.742-2.255-1.009c-0.876-0.266-1.646-0.398-2.336-0.398c-1.566,0-2.655,0.557-2.655,1.726
			c0,1.273,2.125,1.777,4.167,2.84c0.717,0.371,1.407,0.77,2.017,1.195c1.247,0.82,2.177,2.361,2.177,4.193
			c0,1.484-0.557,2.707-1.699,3.688c-1.114,0.984-2.707,1.461-4.805,1.461c-2.442,0-4.458-0.477-6.051-1.408v-3.609H59.443z"/>
	</g>
</g>
</svg>
