<?xml version="1.0" encoding="utf-8"?>
<!-- Generator: Adobe Illustrator 16.0.0, SVG Export Plug-In . SVG Version: 6.00 Build 0)  -->
<!DOCTYPE svg PUBLIC "-//W3C//DTD SVG 1.1//EN" "http://www.w3.org/Graphics/SVG/1.1/DTD/svg11.dtd">
<svg version="1.1" id="Layer_1" xmlns="http://www.w3.org/2000/svg" xmlns:xlink="http://www.w3.org/1999/xlink" x="0px" y="0px"
	 width="142.131px" height="93.56px" viewBox="0 0 142.131 93.56" enable-background="new 0 0 142.131 93.56" xml:space="preserve">
<g>
	<path fill="#C7D3E0" d="M15.917,33.728c5,0,7,8.441,7,12.28c0,6.625-3.875,14.379-7.375,17.314s-5.5,3.061-5.5,3.061h10.625
		c0,0,12.625-3.061,12.625-20.875c0-8.148-4.134-10.79-7.66-11.78H15.917z"/>
	<g>
		<g>
			<path fill="#05589B" d="M40.8,41.734h6.669l2.36,8.639l2.36-8.639h6.669l2.122,15.156h-5.89l-0.693-7.881l-2.295,7.881h-4.547
				l-2.295-7.881l-0.693,7.881h-5.889L40.8,41.734z"/>
			<path fill="#05589B" d="M66.522,41.734h6.669l5.392,15.156h-6.214l-0.606-2.209h-3.811l-0.606,2.209h-6.214L66.522,41.734z
				 M68.796,50.893h2.122l-1.061-3.854L68.796,50.893z"/>
			<path fill="#05589B" d="M79.947,50.59l-4.698-8.855h6.062l1.884,4.461l1.754-4.461h5.759l-4.699,8.855v6.301h-6.062V50.59z"/>
			<path fill="#05589B" d="M94.756,46.131h-3.183v-4.396h12.429v4.396h-3.183v10.76h-6.062V46.131z"/>
			<path fill="#05589B" d="M109.891,49.312c0-4.092,2.836-8.033,8.769-8.033s8.769,3.941,8.769,8.033s-2.836,8.033-8.769,8.033
				S109.891,53.404,109.891,49.312z M121.648,49.312c0-2.121-1.451-3.182-2.988-3.182c-1.537,0-2.988,1.061-2.988,3.182
				c0,2.123,1.451,3.184,2.988,3.184C120.197,52.496,121.648,51.436,121.648,49.312z"/>
			<path fill="#05589B" d="M131.369,50.59l-4.698-8.855h6.062l1.884,4.461l1.754-4.461h5.76l-4.699,8.855v6.301h-6.063V50.59z"/>
		</g>
	</g>
	<g>
		<g>
			<path fill="#EB0F1E" d="M11.467,41.735h6.669l2.36,8.639l2.36-8.639h6.669l2.122,15.156h-5.89l-0.693-7.882l-2.295,7.882h-4.547
				l-2.295-7.882l-0.693,7.882H9.346L11.467,41.735z"/>
		</g>
	</g>
	<path fill="#05589B" d="M17.375,66.382c-5,0-7-8.441-7-12.28c0-6.625,3.875-14.379,7.375-17.314s5.5-3.061,5.5-3.061H12.625
		c0,0-12.625,3.061-12.625,20.875c0,8.148,4.134,10.79,7.66,11.78H17.375z"/>
</g>
</svg>
