<?xml version="1.0" encoding="utf-8"?>
<!-- Generator: Adobe Illustrator 16.0.0, SVG Export Plug-In . SVG Version: 6.00 Build 0)  -->
<!DOCTYPE svg PUBLIC "-//W3C//DTD SVG 1.1//EN" "http://www.w3.org/Graphics/SVG/1.1/DTD/svg11.dtd">
<svg version="1.1" id="Layer_1" xmlns="http://www.w3.org/2000/svg" xmlns:xlink="http://www.w3.org/1999/xlink" x="0px" y="0px"
	 width="155.141px" height="93.56px" viewBox="0 0 155.141 93.56" enable-background="new 0 0 155.141 93.56" xml:space="preserve">
<g id="layer1" transform="translate(-14.95023,-492.62767)">
	<g id="g3022" transform="translate(16.998421,463.73745)">
		<path id="path2673" fill="#284188" d="M4.682,94.699h11.871v-8.265H4.682V94.699z"/>
		<path id="path2675" fill="#284188" d="M4.682,77.677h11.871v-8.265H4.682V77.677z"/>
		<path id="path2677" fill="#284188" d="M18.159,77.677H30.03v-8.265H18.159V77.677z"/>
		<path id="path2679" fill="#284188" d="M18.159,94.699H30.03v-8.265H18.159V94.699z"/>
		<path id="path2683" fill="#5BB5D5" d="M32.932,85.763c-1.071,2.053-3.437,2.224-6.186,2.224L2.923,87.99
			c-1.526,0-3.392,0.018-4.972,0.695c0.152-0.394,0.322-0.842,0.5-1.324h0.009c1.044-2.047,3.294-2.209,6.123-2.209l23.822-0.008
			c1.464,0,3.383-0.002,5.017-0.713C33.19,85.076,32.949,85.705,32.932,85.763"/>
		<path id="path2687" fill="#5BB5D5" d="M34.609,81.255c-1.062,2.055-3.428,2.229-6.186,2.229L4.601,83.491
			c-1.517,0-3.382,0.009-4.962,0.69c0.152-0.397,0.321-0.84,0.5-1.327v0.003c1.053-2.048,3.303-2.211,6.132-2.211l23.822-0.004
			c1.464,0,3.383-0.008,5.017-0.719C34.868,80.572,34.636,81.203,34.609,81.255"/>
		<path id="path2691" fill="#5BB5D5" d="M36.297,76.751c-1.072,2.057-3.428,2.227-6.186,2.227L6.288,78.983
			c-1.517,0-3.383,0.014-4.962,0.695c0.151-0.394,0.312-0.841,0.5-1.325l0,0c1.054-2.048,3.294-2.209,6.124-2.209l23.831-0.009
			c1.455,0,3.383-0.003,5.016-0.713C36.546,76.071,36.323,76.695,36.297,76.751"/>
		<path id="path2695" fill="#284188" d="M51.616,74.902h5.473v14.297h-5.473v-5.271h-3.654v5.271h-5.469V74.902h5.469v4.943h3.654
			V74.902"/>
		<path id="path2699" fill="#284188" d="M66.48,78.089c2.071,0,2.205,2.469,2.205,3.962c0,1.491-0.133,3.96-2.205,3.96
			c-2.062,0-2.205-2.469-2.205-3.96C64.275,80.558,64.418,78.089,66.48,78.089 M66.48,74.661c-5.043,0-7.959,2.835-7.959,7.391
			c0,4.553,2.916,7.393,7.959,7.393c5.042,0,7.971-2.84,7.971-7.393C74.45,77.496,71.522,74.661,66.48,74.661"/>
		<path id="path2703" fill="#284188" d="M81.064,77.802h1.41c1.508,0,1.946,0.776,1.946,1.368c0,0.413-0.197,1.388-2.072,1.388
			h-1.284V77.802 M75.878,74.902v14.297h8.301c1.82,0,5.909-0.207,5.909-3.819c0-2.248-1.803-3.188-3.231-3.388v-0.088
			c1.786-0.326,2.901-1.653,2.901-3.285c0-1.326-0.812-3.717-5.284-3.717H75.878 M81.064,83.378h1.267c0.473,0,2.16,0,2.16,1.445
			c0,0.518-0.286,1.473-2.044,1.473h-1.383V83.378"/>
		<path id="path2707" fill="#284188" d="M99.129,78.293l1.49,4.472h-3.043l1.472-4.472H99.129 M95.515,74.902l-4.999,14.297h5.472
			l0.955-3.088h4.293l0.982,3.088h5.757l-5.087-14.297H95.515"/>
		<path id="path2711" fill="#284188" d="M121.265,74.902v4.232h-4.82v10.064h-5.471V79.134h-4.812v-4.232H121.265"/>
		<path id="path2715" fill="#284188" d="M130.164,80.498c-0.241-0.736-0.973-2.266-3.731-2.266c-0.49,0-1.839,0.083-3.204,0.653
			v-3.778l0.303-0.062c1.696-0.346,2.838-0.384,3.65-0.384c7.275,0,8.685,4.595,8.685,7.391c0,3.572-2.419,7.393-8.533,7.393
			c-1.518,0-2.981-0.292-4.105-0.575v-3.795c1.686,0.653,3.079,0.653,3.33,0.653c2.909,0,3.507-1.938,3.605-2.308h-4.936v-2.922
			H130.164"/>
		<path id="path2719" fill="#284188" d="M142.972,80.518h0.08l3.365-5.616h6.229l-4.82,6.701l5.266,7.596h-6.533l-3.507-6.067h-0.08
			v6.067h-5.471V74.902h5.471V80.518"/>
	</g>
</g>
</svg>
