<?xml version="1.0" encoding="utf-8"?>
<!-- Generator: Adobe Illustrator 16.0.0, SVG Export Plug-In . SVG Version: 6.00 Build 0)  -->
<!DOCTYPE svg PUBLIC "-//W3C//DTD SVG 1.1//EN" "http://www.w3.org/Graphics/SVG/1.1/DTD/svg11.dtd">
<svg version="1.1" id="Layer_1" xmlns="http://www.w3.org/2000/svg" xmlns:xlink="http://www.w3.org/1999/xlink" x="0px" y="0px"
	 width="129.356px" height="93.56px" viewBox="0 0 129.356 93.56" enable-background="new 0 0 129.356 93.56" xml:space="preserve">
<g>
	
		<radialGradient id="SVGID_1_" cx="-355.4038" cy="3882.0752" r="19.4203" gradientTransform="matrix(0.3101 3.000000e-04 -2.000000e-04 0.311 130.227 -1158.8871)" gradientUnits="userSpaceOnUse">
		<stop  offset="0" style="stop-color:#4C92CD"/>
		<stop  offset="1" style="stop-color:#132865"/>
	</radialGradient>
	<path fill="url(#SVGID_1_)" d="M23.783,53.605c-1.587,1.756-4.292,1.891-6.044,0.299c-1.752-1.591-1.888-4.306-0.304-6.062
		c1.586-1.757,4.293-1.89,6.045-0.299C25.232,49.134,25.367,51.848,23.783,53.605z"/>
	
		<linearGradient id="SVGID_2_" gradientUnits="userSpaceOnUse" x1="1871.8457" y1="-363.0674" x2="1889.7141" y2="-370.6764" gradientTransform="matrix(0.7071 0.7071 -0.7071 0.7071 -1565.5757 -1035.2302)">
		<stop  offset="0" style="stop-color:#4C92CD"/>
		<stop  offset="1" style="stop-color:#132865"/>
	</linearGradient>
	<path fill="url(#SVGID_2_)" d="M21.723,36.043c0.36,0.353,0.691,0.713,0.992,1.072c1.722,2.064,2.528,4.092,2.528,4.092
		c1.099,0.203,2.125,0.26,3.083,0.213c0.062-0.004,0.119-0.004,0.182-0.009c0.058-0.005,0.11-0.012,0.167-0.015
		c2.119-0.192,4.871-1.004,7.387-3.527c0.087-0.085,0.173-0.179,0.259-0.269c-0.389-0.466-0.791-0.923-1.227-1.36
		c-7.309-7.286-18.715-7.922-26.746-1.917C14.647,31.269,19.012,33.376,21.723,36.043z"/>
	
		<linearGradient id="SVGID_3_" gradientUnits="userSpaceOnUse" x1="-305.5952" y1="-460.4492" x2="-287.7275" y2="-468.058" gradientTransform="matrix(0.2588 -0.9659 0.9659 0.2588 530.719 -110.8862)">
		<stop  offset="0" style="stop-color:#4C92CD"/>
		<stop  offset="1" style="stop-color:#132865"/>
	</linearGradient>
	<path fill="url(#SVGID_3_)" d="M7.21,56.86c0.125-0.487,0.274-0.954,0.435-1.396c0.926-2.523,2.279-4.233,2.279-4.233
		c-0.373-1.055-0.837-1.971-1.357-2.775c-0.033-0.053-0.061-0.103-0.098-0.156c-0.032-0.046-0.065-0.089-0.097-0.136
		c-1.225-1.738-3.304-3.716-6.746-4.634c-0.118-0.032-0.241-0.061-0.363-0.089c-0.208,0.569-0.404,1.146-0.566,1.741
		c-2.654,9.972,2.499,20.169,11.712,24.12C6.616,65.375,6.257,60.541,7.21,56.86z"/>
	
		<linearGradient id="SVGID_4_" gradientUnits="userSpaceOnUse" x1="755.2461" y1="-2364.04" x2="773.1144" y2="-2371.6489" gradientTransform="matrix(-0.9659 0.2588 -0.2588 -0.9659 157.5436 -2423.6877)">
		<stop  offset="0" style="stop-color:#4C92CD"/>
		<stop  offset="1" style="stop-color:#132865"/>
	</linearGradient>
	<path fill="url(#SVGID_4_)" d="M32.544,59.043c-0.486,0.134-0.963,0.24-1.425,0.321c-2.648,0.46-4.807,0.144-4.807,0.144
		c-0.727,0.85-1.288,1.711-1.726,2.562c-0.027,0.056-0.057,0.106-0.084,0.162c-0.024,0.054-0.044,0.103-0.069,0.153
		c-0.895,1.932-1.566,4.721-0.641,8.16c0.032,0.118,0.069,0.238,0.104,0.359c0.598-0.105,1.195-0.225,1.791-0.383
		c9.964-2.687,16.219-12.248,15.033-22.203C40.215,55.302,36.208,58.027,32.544,59.043z"/>
	<linearGradient id="SVGID_5_" gradientUnits="userSpaceOnUse" x1="7.5249" y1="45.416" x2="15.6222" y2="32.9909">
		<stop  offset="0" style="stop-color:#4C92CD"/>
		<stop  offset="1" style="stop-color:#132865"/>
	</linearGradient>
	<path fill="url(#SVGID_5_)" d="M8.347,34.323c0,0-4.447,2.785-6.771,8.376c0.609,0.106,6.813,1.356,9.125,8.25
		c0.565-0.36,2.3-1.73,3.466-5.508c1.409-4.565,4.085-7.934,7.556-9.398C21.723,36.043,17.327,29.776,8.347,34.323z"/>
	<linearGradient id="SVGID_6_" gradientUnits="userSpaceOnUse" x1="22.8447" y1="63.1387" x2="8.3179" y2="64.6196">
		<stop  offset="0" style="stop-color:#4C92CD"/>
		<stop  offset="1" style="stop-color:#132865"/>
	</linearGradient>
	<path fill="url(#SVGID_6_)" d="M22.439,67.193c-0.001-2.312,0.642-5.377,3.212-8.263l0.028-0.044
		c-0.419-0.449-1.888-1.553-5.667-0.692c-4.658,1.062-9.798,0.938-12.804-1.334c0,0-3.228,6.94,5.199,12.442
		c0,0,4.629,2.457,10.627,1.678C22.928,70.683,22.44,69.225,22.439,67.193z"/>
	<linearGradient id="SVGID_7_" gradientUnits="userSpaceOnUse" x1="32.1968" y1="42.126" x2="35.1583" y2="57.0745">
		<stop  offset="0" style="stop-color:#4C92CD"/>
		<stop  offset="1" style="stop-color:#132865"/>
	</linearGradient>
	<path fill="url(#SVGID_7_)" d="M36.855,38.27c-0.663,0.804-3.812,4.104-9.067,4.107c-0.846,0-1.745-0.086-2.694-0.282l-0.045-0.009
		c-0.174,0.635-0.316,2.437,2.249,5.201c3.247,3.504,5.711,8.016,5.246,11.756c0,0,7.624-0.674,8.176-10.725
		C40.72,48.318,40.532,43.075,36.855,38.27z"/>
</g>
<g>
	<g>
		<g>
			<path fill="#1A1A1A" d="M49.76,44.063c0.822-0.14,1.972-0.243,3.593-0.243c1.641,0,2.809,0.312,3.594,0.939
				c0.749,0.594,1.257,1.57,1.257,2.723c0,1.15-0.385,2.127-1.083,2.789c-0.906,0.854-2.249,1.239-3.819,1.239
				c-0.347,0-0.663-0.019-0.905-0.054v4.203H49.76V44.063z M52.396,49.4c0.226,0.052,0.503,0.07,0.888,0.07
				c1.413,0,2.285-0.718,2.285-1.92c0-1.082-0.749-1.727-2.074-1.727c-0.541,0-0.91,0.053-1.099,0.104V49.4z"/>
			<path fill="#1A1A1A" d="M71.475,49.663c0,3.849-2.338,6.189-5.773,6.189c-3.488,0-5.528-2.634-5.528-5.981
				c0-3.523,2.25-6.154,5.721-6.154C69.504,43.717,71.475,46.418,71.475,49.663z M62.981,49.818c0,2.302,1.08,3.924,2.859,3.924
				c1.796,0,2.825-1.708,2.825-3.993c0-2.11-1.01-3.925-2.841-3.925C64.027,45.824,62.981,47.535,62.981,49.818z"/>
			<path fill="#1A1A1A" d="M82.724,55.328c-0.489,0.245-1.588,0.524-3.019,0.524c-4.062,0-6.154-2.546-6.154-5.894
				c0-4.012,2.858-6.242,6.416-6.242c1.377,0,2.423,0.276,2.894,0.521l-0.54,2.109c-0.541-0.227-1.291-0.437-2.233-0.437
				c-2.109,0-3.75,1.272-3.75,3.89c0,2.354,1.397,3.838,3.769,3.838c0.801,0,1.69-0.175,2.214-0.386L82.724,55.328z"/>
			<path fill="#1A1A1A" d="M87.415,51.963l-1.221,3.697h-1.569l3.995-11.753h1.828l4.012,11.753h-1.62l-1.259-3.697H87.415z
				 M91.268,50.779l-1.151-3.386c-0.261-0.768-0.435-1.465-0.609-2.146h-0.036c-0.175,0.699-0.365,1.414-0.593,2.128l-1.15,3.403
				H91.268z"/>
			<path fill="#1A1A1A" d="M97.95,45.196h-3.577v-1.289h8.703v1.289h-3.593V55.66H97.95V45.196z"/>
			<path fill="#1A1A1A" d="M114.83,49.663c0,4.044-2.459,6.189-5.459,6.189c-3.104,0-5.284-2.407-5.284-5.966
				c0-3.731,2.32-6.17,5.458-6.17C112.755,43.717,114.83,46.174,114.83,49.663z M105.709,49.854c0,2.512,1.359,4.759,3.749,4.759
				c2.406,0,3.768-2.213,3.768-4.882c0-2.337-1.223-4.778-3.75-4.778C106.965,44.952,105.709,47.271,105.709,49.854z"/>
			<path fill="#1A1A1A" d="M127.581,50.498c-0.09-1.641-0.193-3.609-0.177-5.073h-0.052c-0.401,1.375-0.887,2.858-1.482,4.462
				l-2.075,5.703h-1.15l-1.9-5.598c-0.559-1.656-1.03-3.173-1.362-4.567h-0.035c-0.034,1.464-0.122,3.433-0.227,5.195l-0.314,5.04
				h-1.446l0.82-11.753h1.935l2.005,5.685c0.486,1.446,0.89,2.738,1.185,3.957h0.053c0.295-1.184,0.714-2.474,1.238-3.957
				l2.092-5.685h1.935l0.732,11.753h-1.481L127.581,50.498z"/>
		</g>
	</g>
</g>
</svg>
