<?xml version="1.0" encoding="utf-8"?>
<!-- Generator: Adobe Illustrator 16.0.0, SVG Export Plug-In . SVG Version: 6.00 Build 0)  -->
<!DOCTYPE svg PUBLIC "-//W3C//DTD SVG 1.1//EN" "http://www.w3.org/Graphics/SVG/1.1/DTD/svg11.dtd">
<svg version="1.1" id="Layer_1" xmlns="http://www.w3.org/2000/svg" xmlns:xlink="http://www.w3.org/1999/xlink" x="0px" y="0px"
	 width="161.167px" height="93.56px" viewBox="0 0 161.167 93.56" enable-background="new 0 0 161.167 93.56" xml:space="preserve">
<radialGradient id="SVGID_1_" cx="15.8569" cy="51.6562" r="15.5493" gradientUnits="userSpaceOnUse">
	<stop  offset="0" style="stop-color:#D7DA00"/>
	<stop  offset="0.5135" style="stop-color:#29AB3A"/>
	<stop  offset="0.7102" style="stop-color:#29AB3A"/>
	<stop  offset="1" style="stop-color:#006236"/>
</radialGradient>
<path fill="url(#SVGID_1_)" d="M9.636,55.502L0.036,49.98c-0.018,0.277-0.031,0.557-0.035,0.837
	c-0.013,1.036,0.076,2.075,0.264,3.097c0.34,1.854,0.992,3.573,1.894,5.113c1.142,1.962,2.689,3.635,4.505,4.93
	c1.223,0.871,2.575,1.569,3.997,2.064c0.62,0.216,1.264,0.395,1.914,0.534c0.918,0.194,1.867,0.308,2.836,0.335h0.883
	c0.518-0.015,1.04-0.057,1.564-0.123c2.213-0.282,4.363-1.03,6.269-2.195c1.84-1.125,3.417-2.61,4.648-4.339
	c1.294-1.818,2.205-3.906,2.643-6.132c0.057-0.287,0.107-0.575,0.147-0.867c0.099-0.717,0.149-1.45,0.149-2.195
	c0-0.139,0-0.278-0.005-0.416c-0.018-0.652-0.076-1.312-0.178-1.973c-0.261-1.688-0.785-3.325-1.561-4.843L9.636,55.502z
	 M9.636,51.512l-8.937-5.139c-0.121,0.394-0.227,0.793-0.317,1.197c-0.042,0.182-0.079,0.365-0.114,0.549l9.368,5.391l19.464-11.197
	c-0.192-0.288-0.392-0.572-0.602-0.848c-0.092-0.121-0.187-0.24-0.282-0.358c-0.051-0.063-0.104-0.128-0.155-0.19L9.636,51.512z
	 M9.636,47.525l-7.552-4.345c-0.287,0.502-0.545,1.019-0.775,1.548l8.327,4.789l17.217-9.902c-0.441-0.423-0.907-0.822-1.393-1.191
	L9.636,47.525z M9.636,43.535l-5.508-3.168c-0.392,0.432-0.761,0.885-1.103,1.357l6.611,3.805l14.222-8.18
	c-0.596-0.349-1.215-0.658-1.853-0.928L9.636,43.535z"/>
<polygon fill="#006A38" points="40.072,62.236 40.072,61.37 161.145,61.37 161.145,62.996 40.072,62.996 "/>
<path fill="#006A38" d="M150.258,56.289c-0.096-0.094-0.156-0.229-0.179-0.402c-0.025-0.176-0.037-0.404-0.037-0.691v-1.271V43.795
	v-1.272c0-0.286,0.012-0.517,0.037-0.69c0.023-0.174,0.083-0.307,0.179-0.403c0.093-0.095,0.229-0.166,0.405-0.215
	c0.172-0.047,0.24-0.079,0.305-0.094v-0.534h-0.926h-3.543l0,0h-0.924v0.534c0.065,0.017,0.131,0.047,0.305,0.095
	c0.176,0.048,0.309,0.119,0.405,0.214c0.095,0.097,0.156,0.229,0.179,0.403c0.023,0.174,0.035,0.404,0.035,0.69v12.673
	c0,0.287-0.012,0.516-0.035,0.691c-0.023,0.174-0.084,0.309-0.179,0.402c-0.096,0.096-0.229,0.167-0.405,0.215
	c-0.174,0.049-0.24,0.079-0.305,0.094v0.533h5.394v-0.533c-0.065-0.015-0.133-0.045-0.305-0.094
	C150.487,56.456,150.351,56.385,150.258,56.289 M159.456,55.372c-0.556-0.604-1.007-1.102-1.357-1.5
	c-0.508-0.568-0.98-1.107-1.425-1.615c-0.443-0.506-0.864-1.006-1.259-1.498c-0.398-0.489-0.773-0.987-1.129-1.483
	c-0.357-0.5-0.71-1.036-1.059-1.607l0.262-0.332c0.395-0.506,0.864-1.088,1.403-1.746c0.538-0.658,1.092-1.308,1.663-1.949
	c0.57-0.641,1.141-1.235,1.712-1.783c0.572-0.547,1.085-0.963,1.546-1.248v-0.023h-3.874c-0.129,0.334-0.322,0.741-0.585,1.223
	c-0.261,0.484-0.566,1.004-0.913,1.559c-0.35,0.554-0.713,1.13-1.095,1.723c-0.38,0.596-0.76,1.162-1.142,1.701
	c-0.38,0.539-0.733,1.037-1.057,1.498c-0.325,0.457-0.599,0.829-0.82,1.116c0.395,0.539,0.755,1.029,1.082,1.473
	c0.323,0.445,0.632,0.868,0.925,1.272c0.294,0.405,0.579,0.801,0.854,1.189c0.279,0.389,0.567,0.796,0.87,1.225
	c0.316,0.443,0.599,0.879,0.844,1.305c0.246,0.43,0.471,0.85,0.679,1.262l5.585,0.049C160.581,56.574,160.01,55.973,159.456,55.372
	 M116.569,50.047l2.284-6.68l2.235,6.68H116.569z M125.866,53.422l-3.781-10.839c-0.176-0.491-0.289-0.892-0.345-1.2
	c-0.057-0.311-0.1-0.576-0.131-0.797h-4.728v0.534c0.066,0.017,0.133,0.047,0.309,0.094c0.173,0.049,0.309,0.12,0.403,0.215
	c0.095,0.097,0.154,0.229,0.179,0.403c0.013,0.101,0.023,0.225,0.028,0.361c-0.014,0.381-0.08,0.77-0.208,1.078l-2.64,6.537
	c-0.489,1.223-0.911,2.244-1.259,3.066c-0.35,0.824-0.645,1.515-0.891,2.068c-0.246,0.556-0.459,1-0.642,1.332
	c-0.183,0.333-0.343,0.619-0.488,0.855h2.995c0.033-0.396,0.158-1.073,0.37-2.033c0.214-0.957,0.597-2.278,1.153-3.959h5.252
	l0.713,2.117c0.317,0.949,0.57,1.752,0.76,2.4c0.192,0.65,0.302,1.142,0.333,1.475h4.208c-0.176-0.333-0.391-0.779-0.653-1.344
	C126.544,55.225,126.228,54.438,125.866,53.422 M142.65,40.586h-3.542l0,0h-0.926v0.534c0.065,0.017,0.131,0.047,0.306,0.095
	c0.176,0.048,0.31,0.119,0.405,0.214c0.096,0.097,0.154,0.229,0.179,0.403c0.023,0.174,0.036,0.404,0.036,0.69v5.29h-6.395v-1.986
	v0.001v-3.305c0-0.286,0.011-0.517,0.035-0.69c0.025-0.174,0.083-0.307,0.178-0.403c0.096-0.095,0.232-0.166,0.406-0.215
	c0.174-0.047,0.241-0.079,0.305-0.094v-0.534h-0.924h-3.544l0,0h-0.925v0.534c0.066,0.017,0.134,0.047,0.308,0.095
	c0.173,0.048,0.309,0.119,0.403,0.214c0.096,0.097,0.156,0.229,0.179,0.403c0.023,0.169,0.035,0.389,0.035,0.661v0.382
	c0,0.006,0.002,0.011,0.002,0.016v11.412c0,0.02,0,0.041-0.002,0.061v0.861c0,0.271-0.013,0.492-0.033,0.662
	c-0.025,0.174-0.084,0.309-0.179,0.402c-0.096,0.096-0.232,0.167-0.405,0.215c-0.174,0.049-0.242,0.079-0.308,0.094v0.533h5.393
	v-0.533c-0.064-0.015-0.131-0.045-0.305-0.094c-0.174-0.048-0.31-0.119-0.406-0.215c-0.095-0.094-0.153-0.229-0.178-0.402
	c-0.023-0.176-0.035-0.404-0.035-0.691v-3.305v0.002v-2.988h6.395v6.291c0,0.287-0.013,0.516-0.036,0.691
	c-0.025,0.174-0.083,0.309-0.178,0.402c-0.096,0.096-0.232,0.167-0.406,0.215c-0.174,0.049-0.241,0.079-0.306,0.094v0.533h5.392
	v-0.533c-0.065-0.015-0.131-0.045-0.305-0.094c-0.174-0.048-0.311-0.119-0.405-0.215c-0.096-0.094-0.154-0.229-0.179-0.402
	c-0.023-0.176-0.035-0.404-0.035-0.691v-3.305l-0.025,0.074v-6.209l0.025,0.071v-3.305c0-0.286,0.012-0.517,0.035-0.69
	c0.025-0.174,0.083-0.307,0.177-0.403c0.096-0.095,0.232-0.166,0.407-0.215c0.172-0.047,0.24-0.079,0.305-0.094v-0.534H142.65z
	 M107.572,54.088c-0.181,0.57-0.424,1.007-0.725,1.309c-0.302,0.3-0.646,0.496-1.034,0.58c-0.388,0.088-0.788,0.132-1.201,0.132
	c-0.396,0-0.705-0.026-0.927-0.081c-0.221-0.059-0.392-0.148-0.509-0.275c-0.12-0.125-0.194-0.293-0.228-0.497
	c-0.031-0.208-0.046-0.472-0.046-0.786v-6.918h1.425c1.284,0,2.191,0.329,2.722,0.986c0.529,0.657,0.798,1.732,0.798,3.221
	C107.848,52.741,107.756,53.518,107.572,54.088 M109.927,47.682c-0.578-0.404-1.331-0.697-2.26-0.88
	c-0.927-0.181-2.056-0.272-3.386-0.272h-1.378v-3.946c0-0.429,0.086-0.698,0.261-0.81c0.174-0.11,0.541-0.166,1.095-0.166h1.996
	c0.619,0,1.122,0.023,1.51,0.071c0.39,0.049,0.708,0.16,0.962,0.334c0.254,0.175,0.461,0.436,0.62,0.783
	c0.156,0.351,0.315,0.816,0.473,1.401h0.881v-3.611H99.36l0,0h-0.926v0.534c0.066,0.017,0.133,0.047,0.307,0.095
	s0.309,0.119,0.405,0.214c0.096,0.097,0.154,0.229,0.179,0.403c0.021,0.174,0.035,0.404,0.035,0.69v3.305v-0.001v6.066v-0.002v3.305
	c0,0.287-0.013,0.516-0.035,0.691c-0.025,0.174-0.083,0.309-0.179,0.402c-0.096,0.096-0.23,0.167-0.405,0.215
	c-0.174,0.049-0.241,0.079-0.307,0.094v0.533h6.225c0.858,0,1.702-0.046,2.535-0.145c0.831-0.092,1.571-0.326,2.223-0.699
	c0.648-0.372,1.171-0.928,1.567-1.662c0.396-0.74,0.594-1.75,0.594-3.033c0-0.919-0.131-1.701-0.394-2.341
	C110.925,48.607,110.505,48.085,109.927,47.682 M92.502,48.418c-0.405,0.754-1.115,1.129-2.127,1.129h-1.664v-7.036
	c0-0.157,0.012-0.297,0.033-0.417c0.026-0.117,0.081-0.212,0.166-0.285c0.089-0.07,0.224-0.121,0.406-0.154
	c0.183-0.031,0.432-0.047,0.748-0.047c0.428,0,0.828,0.056,1.203,0.166c0.37,0.111,0.692,0.307,0.972,0.583
	c0.277,0.278,0.493,0.647,0.642,1.106c0.151,0.458,0.226,1.037,0.226,1.734C93.108,46.594,92.905,47.666,92.502,48.418
	 M94.951,41.334c-0.564-0.323-1.209-0.53-1.938-0.617c-0.73-0.086-1.483-0.131-2.258-0.131h-5.611l0,0h-0.926v0.534
	c0.063,0.017,0.133,0.047,0.305,0.095c0.176,0.048,0.311,0.119,0.405,0.214c0.096,0.097,0.156,0.229,0.179,0.403
	c0.025,0.174,0.037,0.404,0.037,0.69v12.673c0,0.287-0.012,0.516-0.037,0.691c-0.023,0.174-0.083,0.309-0.179,0.402
	c-0.095,0.096-0.229,0.167-0.405,0.215c-0.172,0.049-0.242,0.079-0.305,0.094v0.533h5.417v-0.533
	c-0.064-0.015-0.132-0.045-0.307-0.094c-0.174-0.048-0.309-0.119-0.405-0.215c-0.095-0.094-0.153-0.229-0.179-0.402
	c-0.023-0.176-0.033-0.404-0.033-0.691V50.57h1.639c0.856,0,1.67-0.064,2.45-0.19c0.773-0.128,1.46-0.378,2.054-0.749
	c0.594-0.373,1.065-0.899,1.416-1.581c0.348-0.681,0.524-1.584,0.524-2.709c0-1.078-0.167-1.935-0.5-2.568
	C95.961,42.14,95.513,41.66,94.951,41.334 M80.591,54.825c-0.116,0.382-0.289,0.667-0.509,0.855
	c-0.223,0.188-0.534,0.31-0.941,0.355c-0.401,0.048-0.962,0.072-1.675,0.072c-0.666,0-1.185-0.024-1.558-0.072
	c-0.372-0.046-0.65-0.134-0.841-0.261c-0.191-0.126-0.311-0.312-0.357-0.558c-0.05-0.247-0.071-0.56-0.071-0.939v-5.206h2.233
	c0.191,0,0.417,0.009,0.679,0.023c0.26,0.017,0.529,0.038,0.806,0.071c0.279,0.03,0.544,0.084,0.798,0.155
	c0.254,0.071,0.468,0.162,0.641,0.273v-2.118c-0.172,0.112-0.387,0.2-0.641,0.264c-0.253,0.063-0.519,0.114-0.798,0.154
	c-0.277,0.04-0.546,0.063-0.806,0.07c-0.262,0.011-0.488,0.015-0.679,0.015h-2.233v-5.493c0-0.365,0.052-0.603,0.154-0.714
	c0.101-0.11,0.32-0.166,0.652-0.166h1.784c0.619,0,1.12,0.023,1.511,0.071c0.387,0.049,0.708,0.16,0.96,0.334
	c0.254,0.175,0.459,0.436,0.619,0.783c0.159,0.351,0.316,0.816,0.474,1.401h0.883v-3.611H71.118l0,0h-0.925v0.534
	c0.065,0.017,0.132,0.047,0.306,0.095s0.309,0.119,0.405,0.214c0.095,0.097,0.154,0.229,0.179,0.403
	c0.023,0.174,0.035,0.404,0.035,0.69v12.673c0,0.287-0.011,0.516-0.035,0.691c-0.025,0.174-0.084,0.309-0.177,0.402
	c-0.098,0.096-0.232,0.167-0.407,0.215c-0.172,0.049-0.241,0.079-0.307,0.094v0.533h11.862v-3.85H80.96
	C80.833,53.93,80.71,54.444,80.591,54.825 M64.261,54.088c-0.182,0.57-0.424,1.007-0.725,1.309c-0.301,0.3-0.646,0.496-1.036,0.58
	c-0.387,0.088-0.788,0.132-1.2,0.132c-0.396,0-0.704-0.026-0.927-0.081c-0.22-0.059-0.392-0.148-0.51-0.275
	c-0.118-0.125-0.194-0.293-0.227-0.497c-0.031-0.208-0.047-0.472-0.047-0.786v-6.918h1.428c1.283,0,2.189,0.329,2.722,0.986
	c0.53,0.657,0.796,1.732,0.796,3.221C64.535,52.741,64.442,53.518,64.261,54.088 M66.615,47.682
	c-0.579-0.404-1.333-0.697-2.258-0.88c-0.928-0.181-2.058-0.272-3.388-0.272h-1.38v-3.946c0-0.429,0.088-0.698,0.264-0.81
	c0.173-0.11,0.538-0.166,1.093-0.166h1.996c0.618,0,1.121,0.023,1.509,0.071c0.388,0.049,0.71,0.16,0.964,0.334
	c0.253,0.175,0.457,0.436,0.618,0.783c0.157,0.351,0.315,0.816,0.475,1.401h0.88v-3.611h-11.34l0,0h-0.926v0.534
	c0.066,0.017,0.134,0.047,0.307,0.095c0.175,0.048,0.311,0.119,0.405,0.214c0.094,0.097,0.155,0.229,0.179,0.403
	c0.023,0.17,0.035,0.393,0.035,0.667v0.347c0.001,0.008,0.001,0.015,0.001,0.023v2.958l0-0.001v6.066l0-0.002v2.451
	c0,0.014,0,0.027-0.001,0.041v0.836c0,0.275-0.012,0.496-0.035,0.668c-0.024,0.174-0.084,0.309-0.178,0.402
	c-0.095,0.096-0.23,0.167-0.406,0.215c-0.173,0.049-0.24,0.079-0.307,0.094v0.533h6.226c0.856,0,1.7-0.046,2.532-0.145
	c0.833-0.092,1.573-0.326,2.223-0.699c0.652-0.372,1.173-0.928,1.57-1.662c0.396-0.74,0.594-1.75,0.594-3.033
	c0-0.919-0.131-1.701-0.393-2.341C67.612,48.607,67.193,48.085,66.615,47.682 M52.197,55.336c-0.27,0.119-0.559,0.226-0.869,0.32
	c-0.309,0.096-0.661,0.171-1.057,0.227c-0.396,0.057-0.857,0.083-1.378,0.083c-1.015,0-1.842-0.19-2.485-0.569
	c-0.64-0.383-1.146-0.904-1.507-1.569c-0.366-0.666-0.617-1.45-0.75-2.354c-0.134-0.902-0.202-1.885-0.202-2.947
	c0-0.824,0.039-1.659,0.119-2.509c0.078-0.847,0.269-1.608,0.569-2.282c0.302-0.672,0.746-1.224,1.333-1.65
	c0.586-0.43,1.388-0.641,2.4-0.641c0.92,0,1.715,0.248,2.389,0.747c0.674,0.499,1.091,1.256,1.25,2.271h1.044v-3.306
	c-0.301-0.142-0.654-0.264-1.057-0.368c-0.403-0.104-0.829-0.183-1.272-0.237s-0.88-0.099-1.308-0.132
	c-0.428-0.03-0.815-0.046-1.165-0.046c-1.458,0-2.701,0.198-3.732,0.594c-1.029,0.396-1.874,0.97-2.532,1.724
	c-0.657,0.752-1.142,1.672-1.449,2.758c-0.31,1.086-0.464,2.318-0.464,3.695c0,1.301,0.155,2.465,0.464,3.496
	c0.308,1.031,0.785,1.904,1.424,2.625c0.644,0.722,1.456,1.271,2.439,1.653c0.981,0.38,2.154,0.569,3.518,0.569
	c0.681,0,1.307-0.047,1.876-0.143c0.572-0.094,1.091-0.218,1.559-0.369c0.467-0.149,0.884-0.312,1.249-0.485
	c0.364-0.175,0.68-0.341,0.95-0.499l-0.523-1.021C52.744,55.095,52.466,55.218,52.197,55.336"/>
</svg>
