<?xml version="1.0" encoding="utf-8"?>
<!-- Generator: Adobe Illustrator 16.0.0, SVG Export Plug-In . SVG Version: 6.00 Build 0)  -->
<!DOCTYPE svg PUBLIC "-//W3C//DTD SVG 1.1//EN" "http://www.w3.org/Graphics/SVG/1.1/DTD/svg11.dtd">
<svg version="1.1" id="Layer_1" xmlns="http://www.w3.org/2000/svg" xmlns:xlink="http://www.w3.org/1999/xlink" x="0px" y="0px"
	 width="150.718px" height="93.56px" viewBox="0 0 150.718 93.56" enable-background="new 0 0 150.718 93.56" xml:space="preserve">
<radialGradient id="SVGID_1_" cx="28.0454" cy="49.7266" r="29.1172" gradientUnits="userSpaceOnUse">
	<stop  offset="0" style="stop-color:#81B5DF"/>
	<stop  offset="0.2471" style="stop-color:#145DA6"/>
	<stop  offset="0.7102" style="stop-color:#0F4073"/>
	<stop  offset="1" style="stop-color:#135DA7"/>
</radialGradient>
<path fill="url(#SVGID_1_)" d="M16.354,33.57c1.294-0.224,2.609-0.108,3.913-0.144c0.003,0.073,0.009,0.225,0.011,0.298
	c-0.037,0.059-0.075,0.115-0.114,0.172c-0.461,0.518-1.049,0.9-1.643,1.246c-2.988,1.697-6.136,3.083-9.177,4.677
	c-0.709,0.389-1.438,0.737-2.133,1.15c-1.816,1.058-3.628,2.177-5.135,3.654c-0.491,0.525-0.956,1.083-1.287,1.726
	c1.124-3.121,3.052-5.953,5.562-8.126C9.139,35.746,12.673,34.139,16.354,33.57L16.354,33.57z M3.727,52.443
	c1.869-1.182,3.838-2.198,5.852-3.11c2.061-0.948,4.155-1.818,6.245-2.701c0.616-0.282,1.244-0.54,1.876-0.784
	c2.271-0.951,4.553-1.89,6.768-2.966c0.407-0.229,0.828-0.429,1.252-0.624c0.64-0.34,1.282-0.681,1.888-1.079
	c0.977-0.648,2.018-1.31,2.641-2.336c0.282-0.419,0.353-0.944,0.232-1.432c-0.274-0.626-0.774-1.116-1.323-1.506
	c1.765,0.958,3.328,2.259,4.706,3.717c2.344,2.47,3.899,5.629,4.674,8.929c0.189,0.701,0.072,1.476-0.313,2.089
	c-0.734,1.363-2.059,2.261-3.302,3.12c-1.497,0.945-3.055,1.797-4.658,2.551c-3.054,1.452-6.185,2.729-9.3,4.04
	c-0.445,0.179-0.879,0.383-1.328,0.551c-2.905,1.266-5.871,2.444-8.577,4.112c-0.199,0.132-0.398,0.262-0.596,0.396
	c-0.852,0.576-1.686,1.243-2.184,2.161c-0.131,0.384-0.223,0.809-0.086,1.205c0.241,0.688,0.814,1.188,1.403,1.585
	c-0.745-0.399-1.436-0.896-2.122-1.387c-1.93-1.514-3.668-3.313-4.935-5.425c-1.12-1.814-1.931-3.815-2.416-5.89
	c-0.064-0.639-0.134-1.33,0.203-1.91c0.532-1.107,1.492-1.924,2.455-2.647C3.096,52.883,3.411,52.662,3.727,52.443L3.727,52.443z
	 M20.957,70.587c2.056-1.089,4.15-2.103,6.244-3.117c0.728-0.383,1.472-0.74,2.197-1.13c1.458-0.771,2.921-1.542,4.281-2.479
	c1.239-0.82,2.453-1.711,3.422-2.849c0.262-0.361,0.534-0.72,0.756-1.107c-0.034,0.297-0.186,0.56-0.29,0.836
	c-1.281,3.175-3.421,5.989-6.112,8.102c-3.674,2.676-8.244,4.03-12.775,4.01c-0.211,0.031-0.351-0.154-0.3-0.354
	c0.042-0.067,0.085-0.136,0.132-0.199c0.451-0.525,1.046-0.896,1.634-1.25C20.413,70.891,20.682,70.734,20.957,70.587L20.957,70.587
	z M37.861,59.873c0.026-0.048,0.076-0.147,0.101-0.196l0.047,0.089l-0.052,0.1L37.861,59.873L37.861,59.873z"/>
<path fill="#020202" d="M53.525,43.646c1.597-0.307,3.23-0.424,4.854-0.356c1.872,0.111,3.836,0.787,5.026,2.309
	c1.648,2.17,1.376,5.66-0.778,7.408c-1.646,1.359-3.906,1.699-5.976,1.467c-0.001,1.801-0.001,3.603-0.001,5.403
	c-1.039,0.003-2.077-0.005-3.115,0.005C53.527,54.469,53.538,49.057,53.525,43.646L53.525,43.646z M56.651,46.04
	c0.001,1.919-0.004,3.835,0.002,5.753c1.186,0.096,2.475,0.073,3.508-0.586c1.567-1.008,1.476-3.663-0.083-4.635
	C59.067,45.928,57.806,45.913,56.651,46.04L56.651,46.04z M89.729,59.871c0-5.455-0.009-10.909,0.006-16.361
	c3.416,0.016,6.833,0.001,10.25,0.006c0,0.921-0.002,1.845,0,2.768c-2.376-0.01-4.753,0.004-7.128-0.008
	c-0.005,4.528-0.005,9.06,0,13.589C91.815,59.867,90.772,59.854,89.729,59.871L89.729,59.871z M79.86,50.04
	c1.272-1.136,3.061-1.521,4.725-1.331c0.811,0.079,1.622,0.295,2.316,0.734c-0.008,0.929,0.018,1.855,0.016,2.785
	c-0.889-0.779-2.104-1.178-3.283-1.025c-1.04,0.12-2.003,0.816-2.381,1.801c-0.36,0.969-0.338,2.11,0.176,3.021
	c0.503,0.904,1.504,1.489,2.533,1.54c1.104,0.037,2.203-0.36,3.054-1.061c-0.001,0.92-0.013,1.84,0.008,2.761
	c-1.137,0.709-2.533,0.858-3.844,0.785c-1.543-0.093-3.08-0.799-4.02-2.052C77.395,55.674,77.638,51.99,79.86,50.04L79.86,50.04z
	 M126.876,49.443c1.092-0.384,2.233-0.625,3.387-0.726c1.55-0.152,3.184-0.059,4.586,0.679c1.449,0.729,2.5,2.174,2.736,3.78
	c0.185,1.398,0.055,2.886-0.611,4.148c-0.637,1.259-1.884,2.129-3.237,2.471c-1.272,0.313-2.641,0.398-3.905-0.003
	c0.009,1.484,0.003,2.97,0.003,4.455h-2.961C126.876,59.313,126.871,54.377,126.876,49.443L126.876,49.443z M129.848,51.486
	c-0.028,1.946-0.002,3.896-0.013,5.846c1.239,0.367,2.726,0.346,3.792-0.46c1.027-0.835,1.174-2.337,0.911-3.552
	c-0.305-1.342-1.679-2.219-3.016-2.153C130.968,51.203,130.32,51.176,129.848,51.486L129.848,51.486z M143.311,48.879
	c1.401-0.365,2.934-0.299,4.271,0.279c1.959,0.852,3.293,2.99,3.118,5.134c0.129,1.472-0.395,2.96-1.397,4.039
	c-1.893,2.04-5.296,2.265-7.586,0.785c-2.377-1.563-3.048-4.985-1.784-7.462C140.582,50.291,141.854,49.262,143.311,48.879
	L143.311,48.879z M144.396,51.234c-0.995,0.232-1.71,1.131-1.942,2.095c-0.317,1.218-0.087,2.66,0.847,3.558
	c1.008,0.969,2.822,0.876,3.704-0.221c1.01-1.25,1.022-3.185,0.098-4.484C146.506,51.337,145.383,50.984,144.396,51.234
	L144.396,51.234z M65.391,48.872c1.029,0,2.057-0.001,3.088,0.003c0.629,2.721,1.561,5.381,2.85,7.862
	c1.125-2.531,1.855-5.211,2.611-7.866c1.062,0.004,2.122,0,3.182,0.003c-0.582,2.342-1.396,4.618-2.274,6.865
	c-1.148,2.881-2.375,5.736-3.764,8.509h-3.187c0.79-1.416,1.483-2.891,2.081-4.397C67.914,56.451,66.271,52.759,65.391,48.872
	L65.391,48.872z M98.611,48.872c0.983,0,1.966,0.002,2.95-0.001c0.005,2.254-0.006,4.508,0.005,6.763
	c1.705-2.218,3.31-4.517,4.98-6.762c0.981-0.001,1.964,0.005,2.945-0.004c0.006,3.669,0.008,7.339,0,11.008
	c-0.984-0.025-1.969-0.005-2.951-0.014c-0.007-2.265,0.002-4.529-0.007-6.794c-1.648,2.275-3.315,4.54-4.983,6.801
	c-0.98-0.01-1.959-0.005-2.939-0.004C98.611,56.201,98.613,52.537,98.611,48.872L98.611,48.872z M114.59,48.872
	c2.718,0.005,5.437,0,8.156-0.015c-0.002,2.846-0.004,5.692,0,8.538c0.587-0.008,1.173-0.005,1.759-0.009
	c0.001,1.562,0.016,3.124-0.008,4.688c-0.902-0.015-1.803-0.004-2.705-0.006c0-0.736-0.002-1.472,0.001-2.206
	c-2.506,0.003-5.011,0.002-7.516,0c-0.022,0.733,0.025,1.466-0.022,2.197c-0.89,0.025-1.779-0.005-2.667,0.012
	c-0.038-1.561-0.004-3.122-0.018-4.683c0.5-0.001,0.999,0.007,1.5-0.012C114.329,54.741,114.518,51.748,114.59,48.872L114.59,48.872
	z M117.058,51.328c-0.095,2.082-0.324,4.176-0.983,6.162c1.238-0.027,2.476-0.007,3.713-0.014c0.004-2.047,0.001-4.096,0.001-6.146
	C118.878,51.333,117.968,51.339,117.058,51.328L117.058,51.328z"/>
<path fill="#F38822" d="M10.462,65.41c0.198-0.135,0.396-0.265,0.596-0.396c2.269,1.099,4.58,2.148,6.668,3.573
	c0.938,0.671,1.89,1.408,2.419,2.462c-0.588,0.354-1.184,0.725-1.634,1.25c-0.047,0.063-0.091,0.132-0.132,0.199
	c-3.056,0.202-6.139-0.617-8.784-2.137c-0.588-0.396-1.162-0.896-1.403-1.585c-0.137-0.396-0.045-0.821,0.086-1.205
	C8.777,66.653,9.611,65.986,10.462,65.41L10.462,65.41z"/>
<path fill="#F38822" d="M30.263,56.311c1.603-0.754,3.162-1.605,4.658-2.551c1.195,0.803,2.367,1.762,3.012,3.08
	c0.444,0.881,0.416,1.94,0.028,2.837c-0.025,0.049-0.075,0.148-0.101,0.196l-0.005,0.031c-0.222,0.388-0.494,0.746-0.756,1.107
	c-0.969,1.138-2.183,2.028-3.422,2.849c-1.359,0.938-2.823,1.708-4.281,2.479c-0.715-1.379-1.972-2.372-3.237-3.222
	c-1.652-1.064-3.411-1.954-5.198-2.768C24.078,59.04,27.209,57.763,30.263,56.311L30.263,56.311z"/>
<path fill="#F38822" d="M7.21,40.97c0.695-0.413,1.424-0.762,2.133-1.15l-0.081,0.05c0.313,0.612,0.746,1.154,1.242,1.629
	c1.155,1.153,2.577,1.98,3.992,2.771c1.048,0.566,2.116,1.095,3.204,1.579c-0.633,0.244-1.26,0.502-1.876,0.784
	c-2.09,0.883-4.185,1.753-6.245,2.701c-2.014,0.912-3.983,1.929-5.852,3.11c-1.054-0.737-2.094-1.557-2.778-2.668
	c-0.443-0.716-0.68-1.597-0.488-2.434c0.09-0.334,0.198-0.668,0.327-0.992c0.332-0.643,0.796-1.2,1.287-1.726
	C3.582,43.146,5.394,42.027,7.21,40.97L7.21,40.97z"/>
<path fill="#F38822" d="M20.163,33.896c0.04-0.057,0.077-0.113,0.114-0.172c2.072-0.17,4.148,0.27,6.105,0.926
	c0.959,0.333,1.892,0.751,2.775,1.255c0.549,0.39,1.049,0.88,1.323,1.506c0.121,0.487,0.05,1.013-0.232,1.432
	c-0.623,1.026-1.664,1.688-2.641,2.336c-2.21-1.041-4.432-2.085-6.479-3.429c-0.999-0.715-2.054-1.473-2.608-2.607
	C19.114,34.797,19.702,34.414,20.163,33.896L20.163,33.896z"/>
</svg>
