<?xml version="1.0" encoding="utf-8"?>
<!-- Generator: Adobe Illustrator 16.0.0, SVG Export Plug-In . SVG Version: 6.00 Build 0)  -->
<!DOCTYPE svg PUBLIC "-//W3C//DTD SVG 1.1//EN" "http://www.w3.org/Graphics/SVG/1.1/DTD/svg11.dtd">
<svg version="1.1" id="Layer_1" xmlns="http://www.w3.org/2000/svg" xmlns:xlink="http://www.w3.org/1999/xlink" x="0px" y="0px"
	 width="239.498px" height="23.491px" viewBox="-27.546 60.606 239.498 23.491"
	 enable-background="new -27.546 60.606 239.498 23.491" xml:space="preserve">
<g>
	<g>
		<polygon fill="#1D2534" points="119.539,75.85 119.539,72.585 114.56,72.585 114.56,75.85 112.619,75.85 112.619,67.512 
			114.56,67.512 114.56,70.906 119.539,70.906 119.539,67.512 121.478,67.512 121.478,75.85 		"/>
		<path fill="#1D2534" d="M128.3,76.112c-0.92,0-1.691-0.113-2.293-0.328c-0.594-0.213-1.068-0.508-1.416-0.869
			c-0.344-0.359-0.588-0.793-0.729-1.277c-0.141-0.502-0.213-1.044-0.213-1.615v-0.681c0-0.572,0.072-1.114,0.213-1.614
			c0.141-0.488,0.385-0.918,0.729-1.28c0.348-0.36,0.822-0.653,1.416-0.868c0.604-0.217,1.373-0.328,2.293-0.328h0.471
			c0.922,0,1.691,0.111,2.293,0.328c0.596,0.215,1.07,0.508,1.418,0.868c0.344,0.362,0.59,0.792,0.727,1.28
			c0.143,0.5,0.215,1.043,0.215,1.614v0.679c0,0.57-0.072,1.113-0.215,1.613c-0.139,0.486-0.383,0.918-0.727,1.281
			c-0.348,0.359-0.822,0.654-1.418,0.867c-0.602,0.217-1.373,0.326-2.293,0.326L128.3,76.112L128.3,76.112z M128.537,68.944
			c-0.717,0-1.262,0.072-1.658,0.221c-0.406,0.155-0.711,0.365-0.902,0.634c-0.191,0.263-0.305,0.569-0.338,0.909
			c-0.031,0.307-0.047,0.635-0.047,0.972c0,0.339,0.016,0.667,0.047,0.979c0.033,0.344,0.146,0.652,0.338,0.918
			c0.193,0.266,0.496,0.479,0.902,0.631c0.396,0.15,0.941,0.221,1.658,0.221c0.719,0,1.262-0.07,1.66-0.221
			c0.404-0.152,0.709-0.365,0.902-0.631c0.189-0.266,0.303-0.574,0.336-0.918c0.033-0.314,0.049-0.643,0.049-0.979
			c0-0.335-0.016-0.663-0.049-0.972c-0.033-0.341-0.148-0.646-0.336-0.909c-0.193-0.269-0.498-0.479-0.902-0.634
			C129.798,69.016,129.255,68.944,128.537,68.944z"/>
		<polygon fill="#1D2534" points="138.119,75.85 134.302,67.785 134.302,67.512 136.287,67.512 139.164,74.264 142.041,67.512 
			144.021,67.512 144.021,67.785 140.207,75.85 		"/>
		<polygon fill="#1D2534" points="145.966,75.85 145.966,67.512 153.923,67.512 153.923,69.19 147.906,69.19 147.906,70.906 
			152.621,70.906 152.621,72.585 147.906,72.585 147.906,74.171 153.923,74.171 153.923,75.85 		"/>
		<path fill="#1D2534" d="M162.996,75.85l-1.75-2.742h-0.111c-0.465,0-0.918-0.006-1.355-0.014c-0.424-0.01-0.844-0.047-1.248-0.115
			l-0.24-0.039v2.908h-1.939v-8.359c0.688-0.074,1.412-0.135,2.16-0.174c0.814-0.043,1.629-0.065,2.41-0.065h0.367
			c0.707,0,1.295,0.073,1.752,0.22c0.447,0.141,0.809,0.336,1.074,0.575c0.258,0.235,0.441,0.515,0.543,0.827
			c0.105,0.325,0.16,0.678,0.16,1.045v0.523c0,0.514-0.102,0.986-0.305,1.406c-0.197,0.399-0.549,0.717-1.059,0.939l-0.217,0.096
			l1.713,2.709v0.258h-1.955V75.85z M160.951,68.93c-0.305,0-0.688,0.01-1.137,0.025c-0.449,0.018-0.9,0.049-1.336,0.093
			l-0.186,0.019v2.219l0.178,0.023c0.412,0.054,0.811,0.086,1.182,0.1c0.365,0.012,0.666,0.02,0.896,0.02
			c0.537,0,0.947-0.023,1.246-0.073c0.322-0.054,0.557-0.136,0.721-0.252c0.178-0.126,0.289-0.294,0.324-0.495
			c0.025-0.158,0.041-0.35,0.041-0.572c0-0.121-0.012-0.245-0.027-0.365c-0.025-0.16-0.115-0.3-0.262-0.42
			c-0.137-0.108-0.336-0.189-0.604-0.244C161.734,68.954,161.394,68.93,160.951,68.93z"/>
		<polygon fill="#1D2534" points="174.16,75.85 169.275,69.867 169.275,75.85 167.333,75.85 167.333,67.512 169.384,67.512 
			174.265,73.495 174.265,67.512 176.208,67.512 176.208,75.85 		"/>
		<polygon fill="#1D2534" points="178.71,75.85 178.71,67.512 186.669,67.512 186.669,69.19 180.65,69.19 180.65,70.906 
			185.363,70.906 185.363,72.585 180.65,72.585 180.65,74.171 186.669,74.171 186.669,75.85 		"/>
		<polygon fill="#1D2534" points="192.091,75.85 192.091,69.19 188.695,69.19 188.695,67.512 197.441,67.512 197.441,69.19 
			194.033,69.19 194.033,75.85 		"/>
		<rect x="199.583" y="67.512" fill="#1D2534" width="1.938" height="8.338"/>
		<path fill="#1D2534" d="M208.318,76.112c-0.895,0-1.643-0.113-2.227-0.328c-0.574-0.213-1.037-0.506-1.367-0.867
			c-0.334-0.359-0.574-0.791-0.713-1.279c-0.141-0.502-0.213-1.044-0.213-1.615v-0.681c0-0.572,0.072-1.114,0.213-1.614
			c0.139-0.488,0.377-0.92,0.713-1.282c0.332-0.361,0.795-0.653,1.367-0.868c0.584-0.217,1.332-0.326,2.227-0.326h0.471
			c0.578,0,1.15,0.038,1.697,0.109c0.488,0.067,0.984,0.16,1.467,0.277v1.701c-0.227-0.059-0.451-0.111-0.678-0.156
			c-0.314-0.062-0.625-0.114-0.926-0.153c-0.301-0.036-0.596-0.068-0.873-0.085c-0.281-0.019-0.535-0.025-0.756-0.025
			c-0.707,0-1.242,0.066-1.639,0.2c-0.406,0.139-0.713,0.343-0.904,0.599c-0.193,0.256-0.307,0.562-0.342,0.912
			c-0.031,0.317-0.047,0.672-0.047,1.051c0,0.381,0.016,0.734,0.047,1.052c0.033,0.349,0.148,0.659,0.34,0.917
			c0.195,0.264,0.5,0.467,0.906,0.605c0.395,0.137,0.932,0.203,1.639,0.203c0.223,0,0.479-0.01,0.756-0.025
			c0.275-0.018,0.57-0.047,0.873-0.086s0.615-0.094,0.928-0.16c0.227-0.049,0.451-0.102,0.676-0.162v1.711
			c-0.482,0.113-0.977,0.203-1.469,0.266c-0.545,0.072-1.117,0.111-1.695,0.111H208.318z"/>
	</g>
	<path fill="#00B4EC" d="M75.023,71.274c0.419,0.025,0.839,0.049,1.26,0.072c4.045,0.221,8.12,0.336,12.221,0.336
		c4.199,0,8.373-0.119,12.516-0.352c0.322-0.02,0.644-0.037,0.964-0.057c0.002,0,0.004,0,0.006,0
		c0.026-0.002,0.052-0.004,0.076-0.004c0.001-0.002,0.002-0.004,0.003-0.005c0.214-0.034,0.411-0.145,0.551-0.313
		c0.158-0.19,0.229-0.441,0.197-0.686c-0.003-0.023-0.007-0.049-0.01-0.072l0,0c-0.014-0.092-0.025-0.182-0.041-0.273
		c-0.007-0.045-0.015-0.093-0.023-0.139c-0.017-0.099-0.032-0.197-0.051-0.297c-0.002-0.012-0.004-0.021-0.007-0.034
		c-0.024-0.129-0.05-0.259-0.079-0.388c-0.001-0.005-0.002-0.01-0.003-0.015c-0.204-0.931-0.494-1.827-0.867-2.679
		c-3.883,2.277-8.406,3.584-13.233,3.584c-4.829,0-9.35-1.307-13.234-3.586c-0.439,1.004-0.764,2.068-0.966,3.174
		c-0.005,0.029-0.011,0.061-0.017,0.09c-0.004,0.023-0.008,0.047-0.012,0.068c-0.032,0.188-0.061,0.376-0.086,0.566
		c-0.031,0.244,0.041,0.494,0.198,0.684C74.547,71.141,74.777,71.26,75.023,71.274z"/>
	<path fill="#00B4EC" d="M76.775,64.969c0.103,0.072,0.207,0.148,0.31,0.221c0.009,0.004,0.019,0.007,0.027,0.01
		c-0.002,0-0.006,0.002-0.009,0.004c3.231,2.254,7.161,3.576,11.4,3.576c3.885,0,7.509-1.111,10.576-3.032h0.001
		c0.033-0.022,0.068-0.044,0.101-0.065c0.026-0.018,0.053-0.033,0.08-0.051c0.086-0.057,0.172-0.111,0.258-0.169
		c0.01-0.008,0.023-0.015,0.034-0.022c0.229-0.153,0.455-0.31,0.677-0.471c0.391-0.285,0.485-0.828,0.213-1.228
		c-0.229-0.337-0.475-0.664-0.732-0.981c-0.014-0.017-0.027-0.034-0.043-0.051c-0.023-0.031-0.048-0.061-0.071-0.09
		c0,0.001-0.001,0.002-0.001,0.002c-0.615-0.738-1.299-1.412-2.047-2.015c-1.312,3.729-4.866,6.403-9.044,6.403
		c-4.18,0-7.734-2.674-9.048-6.404c-0.942,0.76-1.785,1.635-2.512,2.605c0-0.002,0-0.002,0-0.002
		c-0.014,0.02-0.028,0.039-0.044,0.061c-0.002,0.002-0.004,0.005-0.008,0.008l0,0c-0.112,0.153-0.224,0.307-0.329,0.464
		C76.292,64.14,76.386,64.684,76.775,64.969z"/>
	<path fill="#00B4EC" d="M100.304,79.8c0-0.004,0-0.006,0-0.008c-0.017-0.01-0.035-0.023-0.053-0.037
		c-0.006-0.006-0.012-0.01-0.019-0.014c-0.039-0.029-0.08-0.057-0.119-0.086c-0.073-0.051-0.148-0.105-0.222-0.158
		c-0.055-0.037-0.109-0.074-0.164-0.113c-0.125-0.086-0.249-0.166-0.375-0.252c-0.004-0.002-0.008-0.004-0.012-0.006l0,0
		c-3.119-2.023-6.839-3.199-10.834-3.199c-3.784,0-7.322,1.053-10.336,2.887c0,0,0,0,0-0.002c-0.02,0.012-0.04,0.023-0.06,0.035
		c-0.04,0.025-0.079,0.051-0.119,0.074c-0.073,0.045-0.146,0.09-0.218,0.137c-0.002,0.002-0.005,0.004-0.009,0.006
		c-0.335,0.213-0.664,0.439-0.987,0.672c-0.391,0.285-0.484,0.828-0.213,1.227c0.053,0.08,0.11,0.16,0.166,0.236l0,0
		c0.003,0.006,0.006,0.012,0.011,0.018c0.088,0.121,0.178,0.244,0.269,0.365c0.008,0.01,0.016,0.02,0.023,0.027
		c0.098,0.129,0.198,0.256,0.3,0.379c0.001,0.002,0.003,0.006,0.004,0.006c0.099,0.121,0.201,0.242,0.302,0.357l0,0
		c0.555,0.635,1.162,1.221,1.819,1.748c1.314-3.73,4.869-6.404,9.049-6.404c4.178,0,7.732,2.672,9.048,6.404
		c0.447-0.359,0.87-0.748,1.271-1.156l0,0c0.008-0.008,0.018-0.016,0.026-0.027c0.051-0.051,0.101-0.104,0.151-0.156
		c0.019-0.021,0.038-0.039,0.056-0.059c0.065-0.07,0.13-0.141,0.193-0.211c0.024-0.025,0.049-0.057,0.073-0.082
		c0.039-0.043,0.077-0.088,0.116-0.131c0.032-0.039,0.064-0.076,0.095-0.113c0.029-0.035,0.058-0.068,0.087-0.105
		c0.035-0.041,0.07-0.084,0.104-0.127c0.023-0.027,0.046-0.057,0.068-0.086c0.039-0.047,0.078-0.096,0.115-0.145
		c0.001,0,0.001,0,0.001-0.002c0.098-0.125,0.194-0.254,0.288-0.385c0.009-0.01,0.018-0.023,0.026-0.035
		c0.039-0.053,0.076-0.107,0.114-0.16c0.011-0.018,0.021-0.031,0.031-0.045v-0.002c0.025-0.035,0.052-0.07,0.076-0.109
		C100.701,80.593,100.634,80.093,100.304,79.8z"/>
	<path fill="#00B4EC" d="M101.985,73.216c-0.06-0.002-0.119-0.006-0.179-0.01l0,0c-0.054-0.004-0.111-0.006-0.164-0.012
		c-0.177-0.01-0.354-0.02-0.532-0.029h0.001c-4.173-0.234-8.375-0.355-12.605-0.355c-4.067,0-8.108,0.113-12.121,0.33
		c-0.455,0.023-0.907,0.049-1.361,0.076c-0.248,0.016-0.478,0.133-0.636,0.322c-0.157,0.191-0.229,0.439-0.198,0.686
		c0.029,0.223,0.064,0.443,0.104,0.668c0.009,0.049,0.019,0.1,0.028,0.148c0.003,0.016,0.005,0.031,0.009,0.047l0,0
		c0.203,1.057,0.521,2.074,0.941,3.035c3.884-2.279,8.405-3.588,13.234-3.588c4.827,0,9.35,1.309,13.233,3.588
		c0.347-0.797,0.625-1.631,0.826-2.494l0,0c0.029-0.127,0.058-0.254,0.083-0.381c0.007-0.033,0.012-0.068,0.02-0.098
		c0.021-0.111,0.041-0.217,0.061-0.326c0.002-0.016,0.005-0.025,0.008-0.039c-0.002,0-0.002,0-0.002,0
		c0.032-0.186,0.061-0.373,0.085-0.561c0.032-0.246-0.039-0.494-0.197-0.686C102.464,73.35,102.234,73.231,101.985,73.216z"/>
	<g>
		<path fill="#1D2534" d="M-14.487,81.137l-1.195-2.76h-6.713l-1.222,2.76h-3.929l8.308-17.837h0.584l8.175,17.837H-14.487z
			 M-19.052,70.812l-2.149,4.856h4.352l-2.097-4.856H-19.052z"/>
		<path fill="#1D2534" d="M1.863,66.645h-5.096v14.492h-3.954V66.645h-5.124v-3.053H1.864v3.053H1.863z"/>
		<path fill="#1D2534" d="M13.329,77.899h-0.583l-4.884-5.336c-0.026,0.026-0.054,0.026-0.08,0.026v8.548H3.985V63.327h0.583
			l8.467,9.795l8.44-9.795h0.558v17.811h-3.822v-8.547c-0.026-0.026-0.053-0.026-0.106-0.026L13.329,77.899z"/>
		<path fill="#1D2534" d="M27.555,78.882c-1.699-1.725-2.547-3.877-2.547-6.504c0-2.548,0.902-4.697,2.68-6.45
			c1.805-1.751,4.061-2.627,6.769-2.627c2.733,0,4.99,0.876,6.742,2.627c1.752,1.726,2.628,3.876,2.628,6.45
			s-0.876,4.75-2.655,6.477c-1.752,1.725-4.008,2.574-6.742,2.574C31.564,81.428,29.281,80.579,27.555,78.882z M30.528,68.236
			c-1.035,1.115-1.54,2.496-1.54,4.142c0,1.699,0.505,3.105,1.487,4.219c1.008,1.117,2.335,1.674,4.008,1.674
			c1.619,0,2.946-0.557,3.929-1.699c1.007-1.141,1.513-2.521,1.513-4.193c0-1.646-0.505-3.026-1.513-4.143
			c-0.982-1.113-2.31-1.672-3.929-1.672C32.866,66.565,31.564,67.122,30.528,68.236z"/>
		<path fill="#1D2534" d="M45.897,76.438c0.77,0.586,1.699,1.035,2.733,1.383c1.062,0.342,1.99,0.502,2.813,0.502
			c1.806,0,3.054-0.635,3.054-1.938c0-1.193-1.328-2.146-2.946-2.865c-2.336-1.035-5.468-2.362-5.415-5.414
			c0-1.46,0.557-2.654,1.646-3.531c1.114-0.875,2.547-1.326,4.326-1.326c1.885,0,3.61,0.371,5.229,1.113v3.398
			c-0.609-0.398-1.38-0.742-2.255-1.009c-0.876-0.266-1.646-0.398-2.336-0.398c-1.566,0-2.655,0.557-2.655,1.726
			c0,1.273,2.125,1.777,4.167,2.84c0.717,0.371,1.407,0.77,2.017,1.195c1.247,0.82,2.177,2.361,2.177,4.193
			c0,1.484-0.557,2.707-1.699,3.688c-1.114,0.984-2.707,1.461-4.805,1.461c-2.442,0-4.458-0.477-6.051-1.408v-3.609H45.897z"/>
	</g>
</g>
</svg>
